{"glyphs":{"0":{"ha":792,"x_min":56,"x_max":736,"o":"m 56 400 q 99 185 56 281 q 221 35 143 89 q 397 -18 299 -18 q 572 36 494 -18 q 692 186 649 90 q 736 401 736 282 q 692 608 736 517 q 572 752 649 700 q 397 804 494 804 q 221 752 299 804 q 99 608 143 700 q 56 400 56 515 m 126 404 q 161 581 126 503 q 258 703 196 658 q 397 747 319 747 q 535 702 474 747 q 631 577 596 657 q 665 397 665 497 q 631 213 665 294 q 535 85 596 131 q 397 39 474 39 q 258 86 319 39 q 161 217 196 133 q 126 404 126 300 z "},"1":{"ha":417,"x_min":14,"x_max":306,"o":"m 257 786 l 14 668 l 39 618 l 238 706 l 238 0 l 306 0 l 306 786 l 257 786 z "},"2":{"ha":653,"x_min":35,"x_max":625,"o":"m 304 804 q 165 783 225 804 q 53 732 104 763 l 83 685 q 184 731 133 714 q 301 749 235 749 q 451 701 392 749 q 510 579 510 653 q 476 461 510 513 q 347 331 442 410 l 35 69 l 35 0 l 625 0 l 614 54 l 104 54 l 375 272 q 531 431 481 358 q 582 581 582 504 q 546 695 582 644 q 447 775 510 746 q 304 804 383 804 z "},"3":{"ha":621,"x_min":0,"x_max":558,"o":"m 285 804 q 15 722 144 804 l 58 679 q 281 747 163 747 q 380 723 336 747 q 447 659 424 699 q 471 578 471 619 q 404 447 471 497 q 222 397 338 397 l 175 397 l 189 343 l 214 343 q 420 290 353 343 q 488 144 488 238 q 456 46 488 90 q 374 -24 425 1 q 268 -49 324 -49 q 149 -33 197 -49 q 46 14 100 -18 l 0 -33 q 123 -85 54 -64 q 264 -106 192 -106 q 418 -72 351 -106 q 522 19 485 -39 q 558 147 558 76 q 510 292 558 231 q 383 372 463 354 q 497 451 451 394 q 542 579 542 507 q 513 690 542 639 q 425 773 483 742 q 285 804 367 804 z "},"4":{"ha":711,"x_min":14,"x_max":683,"o":"m 521 793 l 482 793 l 14 174 l 26 103 l 453 103 l 453 -96 l 521 -96 l 521 103 l 672 103 l 683 157 l 521 157 l 521 793 m 83 157 l 453 653 l 453 157 l 83 157 z "},"5":{"ha":682,"x_min":56,"x_max":626,"o":"m 161 319 q 242 377 192 353 q 343 401 292 401 q 497 341 439 401 q 554 181 554 281 q 490 15 554 78 q 311 -49 425 -49 q 89 14 194 -49 l 56 -36 q 306 -106 186 -106 q 479 -67 407 -106 q 589 37 551 -28 q 626 181 626 101 q 554 380 626 301 q 338 458 482 458 q 258 444 301 458 q 179 401 215 429 l 194 732 l 568 732 l 572 786 l 132 786 l 111 319 l 161 319 z "},"6":{"ha":683,"x_min":56,"x_max":628,"o":"m 351 538 q 499 499 436 538 q 595 399 563 461 q 628 264 628 336 q 592 126 628 192 q 494 22 557 61 q 353 -18 432 -18 q 137 81 218 -18 q 56 361 56 181 q 123 622 56 510 q 297 800 190 735 q 521 881 403 865 l 546 825 q 368 771 460 821 q 209 633 276 721 q 125 436 142 546 q 351 538 221 538 m 350 39 q 460 70 413 39 q 532 152 507 101 q 557 257 557 203 q 501 417 557 353 q 351 481 446 481 q 219 443 283 481 q 121 356 156 406 q 183 122 124 204 q 350 39 242 39 z "},"7":{"ha":596,"x_min":14,"x_max":568,"o":"m 538 786 l 14 786 l 25 732 l 500 732 l 171 -68 l 235 -96 l 568 746 l 538 786 z "},"8":{"ha":696,"x_min":56,"x_max":640,"o":"m 349 893 q 159 828 224 893 q 94 668 94 764 q 137 549 94 601 q 246 471 179 497 q 151 422 194 460 q 81 335 107 385 q 56 235 56 285 q 131 53 56 125 q 349 -18 206 -18 q 509 17 443 -18 q 608 108 575 51 q 640 235 640 165 q 584 386 640 319 q 451 471 528 453 q 558 551 514 499 q 601 668 601 603 q 574 778 601 726 q 490 861 547 829 q 349 893 433 893 m 344 836 q 485 788 436 836 q 533 672 533 740 q 483 563 533 614 q 349 500 432 513 q 214 562 264 513 q 164 672 164 611 q 210 788 164 739 q 344 836 257 836 m 349 439 q 512 367 454 426 q 569 225 569 307 q 540 130 569 172 q 459 63 510 88 q 349 39 408 39 q 235 63 286 39 q 156 131 185 88 q 126 225 126 174 q 184 367 126 308 q 349 439 242 426 z "},"9":{"ha":683,"x_min":56,"x_max":628,"o":"m 331 803 q 547 703 465 803 q 628 424 628 604 q 560 163 628 275 q 387 -15 493 50 q 163 -96 281 -81 l 138 -40 q 315 14 224 -36 q 474 151 407 64 q 558 349 542 239 q 332 247 463 247 q 184 285 247 247 q 88 386 121 324 q 56 521 56 449 q 91 658 56 593 q 189 763 126 724 q 331 803 251 803 m 332 304 q 463 342 399 304 q 563 429 526 379 q 499 664 558 582 q 333 746 440 746 q 224 715 271 746 q 151 633 176 683 q 126 528 126 582 q 182 368 126 432 q 332 304 238 304 z "},"\r":{"ha":0,"x_min":0,"x_max":0,"o":""}," ":{"ha":333,"x_min":0,"x_max":0,"o":""},"\u0000":{"ha":0,"x_min":0,"x_max":0,"o":""}," ":{"ha":319,"x_min":0,"x_max":0,"o":""},"‌":{"ha":0,"x_min":-35,"x_max":33,"o":"m 33 1718 l -35 1718 l -35 -94 l 33 -94 l 33 1718 z "},"‍":{"ha":0,"x_min":-157,"x_max":158,"o":"m -157 1778 l -54 1675 l -157 1572 l -103 1518 l -35 1578 l -35 -94 l 33 -94 l 33 1579 l 104 1518 l 158 1572 l 56 1675 l 158 1778 l 103 1833 l 0 1731 l -101 1833 l -157 1778 z "},"◌":{"ha":854,"x_min":69,"x_max":785,"o":"m 426 638 q 456 649 444 638 q 467 678 467 660 q 456 708 467 696 q 426 719 444 719 q 397 708 408 719 q 386 678 386 696 q 397 649 386 660 q 426 638 408 638 m 303 697 q 274 686 285 697 q 263 657 263 675 q 274 628 263 639 q 303 617 285 617 q 332 628 321 617 q 343 657 343 639 q 332 686 343 675 q 303 697 321 697 m 551 617 q 581 628 569 617 q 592 657 592 639 q 581 686 592 675 q 551 697 569 697 q 522 686 533 697 q 511 657 511 675 q 522 628 511 639 q 551 617 533 617 m 197 628 q 167 616 179 628 q 156 586 156 604 q 167 557 156 568 q 197 546 179 546 q 226 557 215 546 q 238 586 238 568 q 226 616 238 604 q 197 628 215 628 m 657 546 q 687 557 675 546 q 699 586 699 568 q 687 616 699 604 q 657 628 675 628 q 628 616 639 628 q 617 586 617 604 q 628 557 617 568 q 657 546 639 546 m 131 518 q 101 506 113 518 q 89 476 89 494 q 101 447 89 458 q 131 436 113 436 q 160 447 149 436 q 171 476 171 458 q 160 506 171 494 q 131 518 149 518 m 724 436 q 753 447 742 436 q 764 476 764 458 q 753 506 764 494 q 724 518 742 518 q 694 506 706 518 q 683 476 683 494 q 694 447 683 458 q 724 436 706 436 m 111 399 q 81 387 93 399 q 69 357 69 375 q 81 328 69 339 q 111 318 93 318 q 140 328 129 318 q 151 357 151 339 q 140 387 151 375 q 111 399 129 399 m 743 318 q 773 328 761 318 q 785 357 785 339 q 773 387 785 375 q 743 399 761 399 q 714 387 725 399 q 703 357 703 375 q 714 328 703 339 q 743 318 725 318 m 131 282 q 101 271 113 282 q 89 242 89 260 q 101 213 89 224 q 131 201 113 201 q 160 213 149 201 q 171 242 171 224 q 160 271 171 260 q 131 282 149 282 m 724 201 q 753 213 742 201 q 764 242 764 224 q 753 271 764 260 q 724 282 742 282 q 694 271 706 282 q 683 242 683 260 q 694 213 683 224 q 724 201 706 201 m 196 171 q 166 160 178 171 q 154 131 154 149 q 166 101 154 113 q 196 90 178 90 q 225 101 214 90 q 236 131 236 113 q 225 160 236 149 q 196 171 214 171 m 658 90 q 688 101 676 90 q 700 131 700 113 q 688 160 700 149 q 658 171 676 171 q 629 160 640 171 q 618 131 618 149 q 629 101 618 113 q 658 90 640 90 m 303 103 q 274 91 285 103 q 263 61 263 79 q 274 32 263 43 q 303 21 285 21 q 332 32 321 21 q 343 61 343 43 q 332 91 343 79 q 303 103 321 103 m 551 21 q 581 32 569 21 q 592 61 592 43 q 581 91 592 79 q 551 103 569 103 q 522 91 533 103 q 511 61 511 79 q 522 32 511 43 q 551 21 533 21 m 426 0 q 456 11 444 0 q 467 40 467 22 q 456 70 467 58 q 426 82 444 82 q 397 70 408 82 q 386 40 386 58 q 397 11 386 22 q 426 0 408 0 z "},"A":{"ha":794,"x_min":14,"x_max":781,"o":"m 82 0 l 189 296 l 599 296 l 711 -8 l 781 7 l 421 944 l 357 944 l 14 0 l 82 0 m 390 853 l 579 350 l 208 350 l 390 853 z "},"B":{"ha":785,"x_min":139,"x_max":729,"o":"m 374 0 q 632 61 535 0 q 729 261 729 122 q 678 415 729 356 q 536 503 628 475 q 638 583 599 533 q 676 699 676 632 q 587 888 676 832 q 336 944 497 944 l 139 944 l 139 0 l 374 0 m 353 890 q 539 845 474 890 q 604 697 604 800 q 529 561 604 604 q 335 517 454 518 l 208 517 l 208 890 l 353 890 m 406 463 q 590 412 524 463 q 657 258 657 361 q 583 104 657 154 q 390 54 510 54 l 208 54 l 208 463 l 406 463 z "},"C":{"ha":768,"x_min":69,"x_max":726,"o":"m 726 913 q 622 950 692 936 q 500 964 551 964 q 270 898 368 964 q 121 719 172 832 q 69 467 69 606 q 116 223 69 333 q 258 47 163 113 q 492 -19 353 -19 q 619 -4 550 -19 q 726 32 688 11 l 693 82 q 601 51 649 63 q 485 40 553 40 q 303 99 381 40 q 186 255 226 157 q 146 468 146 353 q 192 697 146 599 q 317 849 238 796 q 497 904 397 903 q 606 894 565 904 q 699 863 646 885 l 726 913 z "},"D":{"ha":919,"x_min":139,"x_max":850,"o":"m 446 0 q 670 63 579 0 q 806 235 761 126 q 850 478 850 343 q 753 815 850 686 q 450 944 656 944 l 139 944 l 139 0 l 446 0 m 461 890 q 637 835 565 890 q 744 685 708 779 q 779 476 779 592 q 738 260 779 356 q 620 109 696 164 q 447 54 544 54 l 207 54 l 207 890 l 461 890 z "},"E":{"ha":688,"x_min":139,"x_max":660,"o":"m 207 54 l 207 457 l 547 457 l 540 511 l 207 511 l 207 890 l 628 890 l 621 944 l 139 944 l 139 0 l 660 0 l 651 54 l 207 54 z "},"F":{"ha":643,"x_min":139,"x_max":615,"o":"m 207 890 l 615 890 l 606 944 l 139 944 l 139 0 l 207 0 l 207 451 l 533 451 l 525 506 l 207 506 l 207 890 z "},"G":{"ha":853,"x_min":69,"x_max":769,"o":"m 699 72 q 529 40 611 40 q 332 95 419 40 q 195 247 244 150 q 146 467 146 344 q 197 693 146 593 q 339 850 249 793 q 542 907 429 907 q 650 897 608 907 q 743 867 692 888 l 769 913 q 663 950 735 936 q 539 964 590 964 q 298 900 406 964 q 130 723 190 836 q 69 467 69 610 q 125 217 69 328 q 285 44 181 107 q 531 -19 390 -19 q 659 -1 590 -19 q 767 43 728 17 l 767 475 l 494 475 l 486 421 l 699 421 l 699 72 z "},"H":{"ha":910,"x_min":139,"x_max":771,"o":"m 703 944 l 703 506 l 207 506 l 207 951 l 139 944 l 139 0 l 207 0 l 207 451 l 703 451 l 703 0 l 771 0 l 771 944 l 703 944 z "},"I":{"ha":346,"x_min":139,"x_max":207,"o":"m 139 944 l 139 0 l 207 0 l 207 944 l 139 944 z "},"J":{"ha":329,"x_min":14,"x_max":204,"o":"m 136 68 q 125 -17 136 13 q 90 -62 114 -46 q 14 -97 65 -78 l 47 -142 q 147 -97 114 -122 q 192 -37 181 -72 q 204 58 204 -1 l 204 944 l 136 944 l 136 68 z "},"K":{"ha":806,"x_min":139,"x_max":792,"o":"m 207 374 l 207 0 l 139 0 l 139 944 l 207 944 l 207 451 l 674 965 l 721 921 l 374 551 l 792 0 l 706 0 l 328 503 l 207 374 z "},"L":{"ha":682,"x_min":139,"x_max":668,"o":"m 207 944 l 139 944 l 139 0 l 668 0 l 661 54 l 207 54 l 207 944 z "},"M":{"ha":1004,"x_min":139,"x_max":865,"o":"m 797 0 l 865 0 l 865 944 l 828 944 l 501 442 l 169 944 l 139 944 l 139 0 l 207 0 l 207 779 l 490 340 l 518 346 l 797 786 l 797 0 z "},"N":{"ha":914,"x_min":139,"x_max":775,"o":"m 226 757 l 738 0 l 775 0 l 775 944 l 707 944 l 707 154 l 660 236 l 178 944 l 139 944 l 139 0 l 207 0 l 207 797 l 226 757 z "},"O":{"ha":982,"x_min":69,"x_max":913,"o":"m 496 967 q 276 902 374 967 q 124 724 179 838 q 69 468 69 611 q 123 217 69 328 q 272 43 176 106 q 488 -19 368 -19 q 706 45 608 -19 q 858 223 803 110 q 913 479 913 336 q 859 731 913 619 q 710 904 806 842 q 496 967 615 967 m 146 469 q 191 694 146 594 q 316 851 236 794 q 497 908 396 908 q 672 853 594 908 q 792 699 749 797 q 836 478 836 601 q 791 251 836 351 q 666 94 746 151 q 485 38 586 38 q 310 93 388 38 q 190 247 233 149 q 146 469 146 346 z "},"P":{"ha":761,"x_min":139,"x_max":706,"o":"m 350 367 q 606 440 507 367 q 706 660 706 514 q 614 876 706 807 q 365 944 522 944 l 139 944 l 139 0 l 207 0 l 207 367 l 350 367 m 382 889 q 569 833 501 889 q 636 658 636 776 q 560 483 636 544 q 367 421 483 421 l 207 421 l 207 889 l 382 889 z "},"Q":{"ha":982,"x_min":69,"x_max":913,"o":"m 913 479 q 880 277 913 371 q 788 115 847 183 l 903 1 l 858 -33 l 744 74 q 626 4 692 28 q 488 -19 561 -19 q 272 43 368 -19 q 123 217 176 106 q 69 468 69 328 q 124 724 69 611 q 276 902 179 838 q 496 967 374 967 q 710 904 615 967 q 859 731 806 842 q 913 479 913 619 m 485 38 q 696 118 607 38 l 563 244 l 610 290 l 739 164 q 810 304 785 224 q 836 478 836 385 q 792 699 836 601 q 672 853 749 797 q 497 908 594 908 q 316 851 396 908 q 191 694 236 794 q 146 469 146 594 q 190 247 146 346 q 310 93 233 149 q 485 38 388 38 z "},"R":{"ha":794,"x_min":139,"x_max":781,"o":"m 207 0 l 207 397 l 350 397 q 476 411 419 397 l 704 0 l 781 0 l 535 429 q 660 522 614 460 q 706 675 706 583 q 615 881 706 817 q 365 944 524 944 l 139 944 l 139 0 l 207 0 m 368 889 q 562 838 488 889 q 636 672 636 786 q 553 507 636 563 q 353 451 469 451 l 207 451 l 207 889 l 368 889 z "},"S":{"ha":700,"x_min":69,"x_max":644,"o":"m 76 40 q 184 1 100 19 q 329 -18 268 -18 q 562 47 479 -18 q 644 218 644 111 q 584 374 644 310 q 393 493 524 439 q 203 603 264 547 q 142 736 142 660 q 201 860 142 810 q 358 910 261 910 q 465 897 422 910 q 558 863 508 885 l 589 913 q 481 951 542 936 q 356 967 421 967 q 203 938 268 967 q 104 858 139 908 q 69 743 69 807 q 132 578 69 646 q 322 458 194 511 q 513 350 453 404 q 574 222 574 296 q 545 132 574 174 q 460 65 517 90 q 328 40 404 40 q 203 56 264 40 q 97 94 142 72 l 76 40 z "},"T":{"ha":742,"x_min":14,"x_max":728,"o":"m 14 890 l 336 890 l 336 0 l 404 0 l 404 890 l 728 890 l 721 944 l 14 944 l 14 890 z "},"U":{"ha":914,"x_min":125,"x_max":789,"o":"m 125 332 q 164 151 125 231 q 278 28 203 72 q 457 -17 353 -17 q 637 28 563 -17 q 750 151 711 72 q 789 332 789 231 l 789 944 l 721 944 l 721 328 q 689 181 721 247 q 597 78 657 115 q 457 40 538 40 q 319 78 379 40 q 226 182 258 117 q 193 328 193 247 l 193 944 l 125 944 l 125 332 z "},"V":{"ha":794,"x_min":14,"x_max":781,"o":"m 374 -1 l 438 -1 l 781 943 l 713 943 l 404 90 l 83 951 l 14 936 l 374 -1 z "},"W":{"ha":1128,"x_min":14,"x_max":1114,"o":"m 804 -1 l 565 824 l 354 -1 l 290 -1 l 14 936 l 83 951 l 321 110 l 532 943 l 600 943 l 835 110 l 1046 943 l 1114 943 l 868 -1 l 804 -1 z "},"X":{"ha":726,"x_min":14,"x_max":713,"o":"m 631 0 l 713 0 l 414 468 l 713 944 l 638 944 l 376 526 l 119 960 l 53 928 l 329 486 l 14 0 l 94 0 l 363 432 l 631 0 z "},"Y":{"ha":736,"x_min":14,"x_max":722,"o":"m 722 944 l 643 944 l 360 446 l 82 957 l 14 928 l 326 374 l 326 0 l 394 0 l 394 381 l 722 944 z "},"Z":{"ha":749,"x_min":42,"x_max":707,"o":"m 707 876 l 700 944 l 65 944 l 79 890 l 643 890 l 42 69 l 50 0 l 700 0 l 693 54 l 110 54 l 707 876 z "},"a":{"ha":660,"x_min":72,"x_max":568,"o":"m 146 588 q 238 624 197 613 q 339 635 278 635 q 459 591 418 635 q 500 474 500 547 l 500 390 l 313 390 q 139 337 206 390 q 72 189 72 283 q 131 40 72 97 q 299 -18 189 -18 q 414 7 360 -18 q 504 72 468 32 l 515 0 l 568 0 l 568 472 q 508 633 568 574 q 335 692 447 692 q 222 675 289 692 q 119 633 156 658 l 146 588 m 143 189 q 187 297 143 256 q 318 339 231 339 l 500 339 l 500 151 q 416 69 465 100 q 304 39 367 39 q 187 82 231 39 q 143 189 143 125 z "},"b":{"ha":711,"x_min":111,"x_max":656,"o":"m 365 692 q 583 594 510 692 q 656 333 656 497 q 578 79 656 176 q 356 -18 500 -18 q 258 3 308 -18 q 169 54 208 24 l 150 0 l 111 0 l 111 967 l 179 981 l 179 619 q 365 692 260 692 m 358 39 q 481 78 431 39 q 558 185 532 118 q 585 332 585 251 q 529 549 585 464 q 365 635 474 635 q 263 612 304 635 q 179 544 221 589 l 179 115 q 358 39 264 39 z "},"c":{"ha":624,"x_min":56,"x_max":574,"o":"m 539 86 q 502 68 532 83 q 438 46 472 53 q 360 39 403 39 q 233 79 286 39 q 153 188 181 119 q 126 342 126 257 q 156 488 126 421 q 240 595 185 556 q 367 635 294 635 q 460 623 422 635 q 546 588 497 611 l 574 633 q 474 675 535 658 q 369 692 413 692 q 201 647 272 692 q 93 522 131 601 q 56 340 56 442 q 135 81 56 179 q 360 -18 214 -18 q 466 -2 406 -18 q 567 39 526 14 l 539 86 z "},"d":{"ha":711,"x_min":56,"x_max":600,"o":"m 600 0 l 563 0 l 538 60 q 346 -18 453 -18 q 128 79 201 -18 q 56 340 56 176 q 133 594 56 497 q 356 692 211 692 q 447 674 400 692 q 532 628 493 656 l 532 967 l 600 979 l 600 0 m 346 39 q 449 62 407 39 q 532 129 490 85 l 532 558 q 353 635 447 635 q 230 595 281 635 q 153 489 179 556 q 126 342 126 422 q 182 124 126 210 q 346 39 238 39 z "},"e":{"ha":667,"x_min":56,"x_max":611,"o":"m 611 336 q 578 519 611 438 q 486 646 546 600 q 350 692 426 692 q 131 595 207 692 q 56 340 56 499 q 135 79 56 176 q 375 -18 215 -18 q 487 -3 422 -18 q 590 35 551 11 l 563 86 q 475 51 519 64 q 364 39 431 39 q 187 122 246 39 q 126 336 128 206 l 611 336 m 129 388 q 192 565 139 494 q 340 635 246 635 q 481 566 433 635 q 539 388 528 497 l 129 388 z "},"f":{"ha":367,"x_min":28,"x_max":367,"o":"m 129 0 l 197 0 l 197 601 l 349 601 l 319 653 l 197 653 l 197 804 q 293 918 197 918 q 324 914 306 918 q 350 906 342 910 l 367 957 q 275 975 319 975 q 166 924 203 975 q 129 782 129 872 l 129 653 l 28 653 l 28 601 l 129 601 l 129 0 z "},"g":{"ha":706,"x_min":56,"x_max":600,"o":"m 600 -86 q 531 -255 600 -190 q 333 -319 461 -319 q 213 -303 286 -319 q 104 -262 140 -286 l 131 -214 q 229 -251 186 -239 q 331 -262 272 -262 q 476 -221 419 -262 q 532 -100 532 -179 l 532 54 q 346 -18 451 -18 q 128 79 201 -18 q 56 340 56 176 q 133 594 56 497 q 356 692 211 692 q 456 669 404 692 q 546 617 507 647 l 563 674 l 600 674 l 600 -86 m 346 39 q 449 62 407 39 q 532 129 490 85 l 532 558 q 353 635 447 635 q 230 595 281 635 q 153 489 179 556 q 126 342 126 422 q 182 124 126 210 q 346 39 238 39 z "},"h":{"ha":708,"x_min":111,"x_max":617,"o":"m 417 692 q 568 631 519 692 q 617 468 617 571 l 617 0 l 549 0 l 549 468 q 521 590 549 546 q 422 635 493 635 q 179 499 313 635 l 179 0 l 111 0 l 111 967 l 179 981 l 179 569 q 290 656 224 621 q 417 692 356 692 z "},"i":{"ha":263,"x_min":78,"x_max":185,"o":"m 131 833 q 169 849 154 833 q 185 886 185 864 q 169 924 185 908 q 131 939 153 939 q 92 924 107 939 q 78 886 78 908 q 92 849 78 864 q 131 833 107 833 m 97 674 l 97 0 l 165 0 l 165 674 l 97 674 z "},"j":{"ha":286,"x_min":0,"x_max":194,"o":"m 140 833 q 102 849 117 833 q 88 886 88 864 q 102 924 88 908 q 140 939 117 939 q 178 924 163 939 q 194 886 194 908 q 179 849 194 864 q 140 833 164 833 m 175 -86 q 165 -189 175 -150 q 122 -256 154 -228 q 25 -304 90 -283 l 0 -254 q 69 -215 47 -236 q 99 -163 92 -194 q 107 -75 107 -132 l 107 674 l 175 674 l 175 -86 z "},"k":{"ha":624,"x_min":111,"x_max":624,"o":"m 282 389 l 542 0 l 624 0 l 328 435 l 543 649 l 492 692 l 179 367 l 179 981 l 111 967 l 111 0 l 179 0 l 179 286 l 282 389 z "},"l":{"ha":290,"x_min":111,"x_max":179,"o":"m 111 967 l 111 0 l 179 0 l 179 981 l 111 967 z "},"m":{"ha":1078,"x_min":97,"x_max":986,"o":"m 800 692 q 942 632 897 692 q 986 468 986 572 l 986 0 l 918 0 l 918 468 q 894 592 918 549 q 806 635 871 635 q 581 510 708 635 q 582 468 582 496 l 582 0 l 514 0 l 514 468 q 490 592 514 549 q 401 635 467 635 q 288 598 349 635 q 165 499 228 561 l 165 0 l 97 0 l 97 674 l 150 674 l 164 568 q 275 655 207 618 q 396 692 343 692 q 569 569 532 692 q 680 656 613 619 q 800 692 747 692 z "},"n":{"ha":694,"x_min":97,"x_max":603,"o":"m 165 499 q 408 635 299 635 q 507 590 479 635 q 535 468 535 546 l 535 0 l 603 0 l 603 468 q 554 631 603 571 q 403 692 506 692 q 275 656 342 692 q 164 568 208 619 l 150 674 l 97 674 l 97 0 l 165 0 l 165 499 z "},"o":{"ha":726,"x_min":56,"x_max":671,"o":"m 671 333 q 634 153 671 233 q 526 28 597 74 q 360 -18 456 -18 q 135 81 214 -17 q 56 340 56 179 q 92 520 56 440 q 200 646 129 600 q 368 692 271 692 q 592 592 514 690 q 671 333 671 494 m 360 39 q 487 78 432 39 q 571 185 542 118 q 600 332 600 253 q 573 485 600 417 q 493 594 546 554 q 367 635 440 635 q 240 595 294 635 q 156 488 185 556 q 126 342 126 421 q 153 188 126 257 q 233 79 181 119 q 360 39 286 39 z "},"p":{"ha":706,"x_min":106,"x_max":650,"o":"m 360 692 q 577 594 504 692 q 650 333 650 497 q 572 79 650 176 q 350 -18 494 -18 q 259 0 306 -18 q 174 46 213 18 l 174 -289 l 106 -304 l 106 674 l 144 674 l 164 610 q 360 692 250 692 m 353 39 q 476 78 425 39 q 553 185 526 118 q 579 332 579 251 q 524 549 579 464 q 360 635 468 635 q 257 612 299 635 q 174 544 215 589 l 174 115 q 353 39 258 39 z "},"q":{"ha":706,"x_min":56,"x_max":600,"o":"m 600 -289 l 532 -304 l 532 54 q 346 -18 450 -18 q 128 79 201 -18 q 56 340 56 176 q 133 594 56 497 q 356 692 211 692 q 455 670 404 692 q 544 618 506 649 l 563 674 l 600 674 l 600 -289 m 346 39 q 449 62 407 39 q 532 129 490 85 l 532 558 q 353 635 447 635 q 230 595 281 635 q 153 489 179 556 q 126 342 126 422 q 182 124 126 210 q 346 39 238 39 z "},"r":{"ha":419,"x_min":97,"x_max":406,"o":"m 165 496 q 277 582 208 543 q 406 621 346 621 l 382 674 q 272 640 335 674 q 161 567 208 606 l 136 674 l 97 674 l 97 0 l 165 0 l 165 496 z "},"s":{"ha":564,"x_min":58,"x_max":508,"o":"m 58 35 q 155 -3 94 11 q 263 -18 215 -18 q 508 171 508 -18 q 453 284 508 236 q 304 369 399 332 q 179 435 224 401 q 135 511 135 468 q 178 598 135 561 q 292 635 222 635 q 381 623 346 635 q 464 588 415 611 l 492 636 q 402 676 458 660 q 301 692 346 692 q 131 640 192 692 q 69 506 69 588 q 265 318 69 394 q 443 165 443 249 q 396 73 443 107 q 265 39 349 39 q 176 53 218 39 q 83 92 133 67 l 58 35 z "},"t":{"ha":406,"x_min":28,"x_max":364,"o":"m 196 865 l 128 835 l 128 653 l 28 653 l 28 601 l 128 601 l 128 161 q 167 28 128 75 q 272 -18 206 -18 q 326 -11 299 -18 q 364 -1 360 -1 l 347 51 q 290 39 318 39 q 219 77 243 39 q 196 171 196 115 l 196 601 l 347 601 l 318 653 l 196 653 l 196 865 z "},"u":{"ha":694,"x_min":92,"x_max":597,"o":"m 529 175 q 286 39 396 39 q 188 83 215 39 q 160 206 160 128 l 160 674 l 92 674 l 92 206 q 140 42 92 103 q 292 -18 189 -18 q 419 18 353 -18 q 531 106 486 54 l 544 0 l 597 0 l 597 674 l 529 674 l 529 175 z "},"v":{"ha":597,"x_min":14,"x_max":583,"o":"m 514 674 l 300 78 l 78 683 l 14 658 l 268 0 l 333 0 l 583 674 l 514 674 z "},"w":{"ha":892,"x_min":14,"x_max":878,"o":"m 808 674 l 647 89 l 472 674 l 414 674 l 243 89 l 78 682 l 14 657 l 213 0 l 278 0 l 438 568 l 613 0 l 678 0 l 878 674 l 808 674 z "},"x":{"ha":563,"x_min":14,"x_max":549,"o":"m 454 0 l 531 0 l 326 322 l 549 674 l 474 674 l 290 371 l 101 686 l 42 658 l 238 339 l 14 0 l 92 0 l 272 288 l 454 0 z "},"y":{"ha":597,"x_min":14,"x_max":583,"o":"m 225 -136 q 176 -207 208 -181 q 88 -251 143 -233 l 94 -304 q 210 -251 161 -290 q 279 -156 258 -212 l 583 674 l 514 674 l 300 78 l 78 682 l 14 657 l 268 0 l 225 -136 z "},"z":{"ha":600,"x_min":39,"x_max":561,"o":"m 101 622 l 486 622 l 39 43 l 50 0 l 553 0 l 539 51 l 110 51 l 561 629 l 557 674 l 79 674 l 101 622 z "},"ﬁ":{"ha":629,"x_min":28,"x_max":551,"o":"m 129 0 l 197 0 l 197 601 l 349 601 l 319 653 l 197 653 l 197 804 q 293 918 197 918 q 324 914 306 918 q 350 906 342 910 l 367 957 q 275 975 319 975 q 166 924 203 975 q 129 782 129 872 l 129 653 l 28 653 l 28 601 l 129 601 l 129 0 m 497 833 q 536 849 521 833 q 551 886 551 864 q 535 924 551 908 q 497 939 519 939 q 459 924 474 939 q 444 886 444 908 q 459 849 444 864 q 497 833 474 833 m 464 674 l 464 0 l 532 0 l 532 674 l 464 674 z "},"ﬂ":{"ha":657,"x_min":28,"x_max":546,"o":"m 129 0 l 197 0 l 197 601 l 349 601 l 319 653 l 197 653 l 197 804 q 293 918 197 918 q 324 914 306 918 q 350 906 342 910 l 367 957 q 275 975 319 975 q 166 924 203 975 q 129 782 129 872 l 129 653 l 28 653 l 28 601 l 129 601 l 129 0 m 478 967 l 478 0 l 546 0 l 546 981 l 478 967 z "},"`":{"ha":190,"x_min":14,"x_max":176,"o":"m 99 1031 l 14 1031 l 132 818 l 176 833 l 99 1031 z "},"¨":{"ha":351,"x_min":14,"x_max":338,"o":"m 65 858 q 101 873 86 858 q 117 910 117 888 q 101 945 117 931 q 65 960 86 960 q 28 946 42 960 q 14 910 14 932 q 28 873 14 888 q 65 858 42 858 m 286 858 q 322 873 307 858 q 338 910 338 888 q 322 945 338 931 q 286 960 307 960 q 249 946 263 960 q 235 910 235 932 q 249 873 235 888 q 286 858 263 858 z "},"¯":{"ha":363,"x_min":14,"x_max":349,"o":"m 340 940 l 14 940 l 14 889 l 349 889 l 340 940 z "},"´":{"ha":190,"x_min":14,"x_max":176,"o":"m 92 1031 l 14 833 l 58 818 l 176 1031 l 92 1031 z "},"ˆ":{"ha":376,"x_min":14,"x_max":363,"o":"m 363 838 l 217 1031 l 161 1031 l 14 832 l 71 818 l 190 982 l 306 818 l 363 838 z "},"ˇ":{"ha":376,"x_min":14,"x_max":363,"o":"m 14 1017 l 161 818 l 217 818 l 363 1011 l 306 1031 l 190 867 l 71 1031 l 14 1017 z "},"˘":{"ha":389,"x_min":14,"x_max":375,"o":"m 318 1015 q 285 926 318 963 q 194 889 251 889 q 105 926 139 889 q 71 1015 71 964 l 14 1015 q 63 888 14 942 q 194 835 111 835 q 328 888 281 835 q 375 1015 375 940 l 318 1015 z "},"˙":{"ha":135,"x_min":14,"x_max":121,"o":"m 67 858 q 105 874 89 858 q 121 911 121 889 q 105 949 121 933 q 67 964 89 964 q 28 949 43 964 q 14 911 14 933 q 28 874 14 889 q 67 858 43 858 z "},"˚":{"ha":274,"x_min":14,"x_max":260,"o":"m 138 1054 q 51 1021 88 1054 q 14 938 14 988 q 50 857 14 889 q 138 825 86 825 q 224 857 189 825 q 260 938 260 889 q 224 1021 260 988 q 138 1054 188 1054 m 138 867 q 88 887 107 867 q 68 938 68 907 q 88 990 68 969 q 138 1011 107 1011 q 187 990 168 1011 q 206 938 206 969 q 187 887 206 907 q 138 867 168 867 z "},"˜":{"ha":415,"x_min":14,"x_max":401,"o":"m 349 971 q 330 917 346 938 q 286 897 314 897 q 219 938 251 897 q 129 976 189 976 q 47 944 79 976 q 14 850 14 913 l 68 850 q 131 924 75 924 q 203 885 165 924 q 286 844 239 844 q 369 876 336 844 q 401 971 401 908 l 349 971 z "},"˝":{"ha":368,"x_min":14,"x_max":354,"o":"m 92 1031 l 14 833 l 58 818 l 176 1031 l 92 1031 m 269 1031 l 192 833 l 236 818 l 354 1031 l 269 1031 z "},"˛":{"ha":285,"x_min":14,"x_max":271,"o":"m 100 6 q 38 -70 63 -25 q 14 -154 14 -115 q 56 -250 14 -212 q 160 -287 97 -287 q 223 -276 193 -287 q 271 -246 253 -264 l 240 -208 q 164 -237 204 -237 q 106 -215 133 -237 q 78 -156 78 -193 q 96 -72 78 -110 q 151 0 114 -35 l 100 6 z "},"¸":{"ha":286,"x_min":14,"x_max":272,"o":"m 76 -107 q 176 -133 139 -107 q 214 -192 214 -160 q 186 -237 214 -218 q 117 -257 158 -257 q 35 -237 82 -257 l 14 -281 q 63 -299 31 -292 q 121 -307 94 -307 q 231 -274 189 -307 q 272 -189 272 -242 q 239 -116 272 -150 q 146 -71 206 -82 l 181 18 l 124 18 l 76 -107 z "},"":{"ha":0,"x_min":14,"x_max":156,"o":"m 101 -29 q 63 -45 76 -29 q 49 -83 49 -61 q 63 -118 49 -100 q 99 -136 76 -136 q 14 -250 97 -206 l 36 -285 q 124 -205 93 -257 q 156 -89 156 -153 q 140 -48 156 -67 q 101 -29 125 -29 z "},"Þ":{"ha":761,"x_min":139,"x_max":706,"o":"m 365 833 q 614 765 522 833 q 706 549 706 696 q 606 329 706 403 q 350 256 507 256 l 207 256 l 207 0 l 139 0 l 139 944 l 207 944 l 207 833 l 365 833 m 367 310 q 560 372 483 310 q 636 547 636 433 q 569 722 636 665 q 382 778 501 778 l 207 778 l 207 310 l 367 310 z "},"Ð":{"ha":919,"x_min":14,"x_max":850,"o":"m 450 944 q 753 815 656 944 q 850 478 850 686 q 806 235 850 343 q 670 63 761 126 q 446 0 579 0 l 139 0 l 139 436 l 28 436 l 14 490 l 139 490 l 139 944 l 450 944 m 447 54 q 620 109 544 54 q 738 260 696 164 q 779 476 779 356 q 744 685 779 592 q 637 835 708 779 q 461 890 565 890 l 207 890 l 207 490 l 358 490 l 372 436 l 207 436 l 207 54 l 447 54 z "},"Æ":{"ha":1151,"x_min":14,"x_max":1124,"o":"m 1115 54 l 671 54 l 671 457 l 1011 457 l 1004 511 l 671 511 l 671 890 l 1092 890 l 1085 944 l 592 944 l 14 7 l 83 -7 l 264 296 l 603 296 l 603 0 l 1124 0 l 1115 54 m 297 350 l 603 849 l 603 350 l 297 350 z "},"Đ":{"ha":919,"x_min":14,"x_max":850,"o":"m 450 944 q 753 815 656 944 q 850 478 850 686 q 806 235 850 343 q 670 63 761 126 q 446 0 579 0 l 139 0 l 139 436 l 28 436 l 14 490 l 139 490 l 139 944 l 450 944 m 447 54 q 620 109 544 54 q 738 260 696 164 q 779 476 779 356 q 744 685 779 592 q 637 835 708 779 q 461 890 565 890 l 207 890 l 207 490 l 358 490 l 372 436 l 207 436 l 207 54 l 447 54 z "},"Ł":{"ha":682,"x_min":14,"x_max":668,"o":"m 44 304 l 14 354 l 139 463 l 139 944 l 207 944 l 207 522 l 360 656 l 390 608 l 207 447 l 207 54 l 661 54 l 668 0 l 139 0 l 139 388 l 44 304 z "},"Œ":{"ha":1239,"x_min":69,"x_max":1211,"o":"m 690 17 q 593 -9 647 1 q 492 -19 539 -19 q 258 47 353 -19 q 116 223 163 113 q 69 467 69 333 q 121 719 69 606 q 270 898 172 832 q 500 964 368 964 q 594 955 539 964 q 690 931 650 946 l 690 944 l 1172 944 l 1179 890 l 758 890 l 758 511 l 1092 511 l 1099 457 l 758 457 l 758 54 l 1203 54 l 1211 0 l 690 0 l 690 17 m 485 40 q 600 51 553 40 q 690 81 647 61 l 690 865 q 602 894 643 885 q 497 904 561 904 q 317 849 397 903 q 192 697 238 796 q 146 468 146 599 q 186 255 146 353 q 303 99 226 157 q 485 40 381 40 z "},"Ø":{"ha":982,"x_min":69,"x_max":913,"o":"m 496 967 q 710 904 615 967 q 859 731 806 842 q 913 479 913 619 q 858 223 913 336 q 706 45 803 110 q 488 -19 608 -19 q 272 43 368 -19 q 123 217 176 106 q 69 468 69 328 q 124 724 69 611 q 276 902 179 838 q 496 967 374 967 m 146 469 q 186 256 146 351 q 297 103 226 160 l 628 879 q 497 908 569 908 q 316 851 396 908 q 191 694 236 794 q 146 469 146 594 m 485 38 q 666 94 586 38 q 791 251 746 151 q 836 478 836 351 q 797 691 836 596 q 688 842 757 786 l 356 67 q 485 38 414 38 z "},"ß":{"ha":756,"x_min":111,"x_max":693,"o":"m 181 657 q 235 822 181 757 q 388 888 289 888 q 520 837 467 888 q 574 697 574 786 q 520 562 574 607 q 344 517 467 517 l 307 517 l 307 463 l 369 463 q 554 412 488 463 q 621 258 621 361 q 548 104 621 154 q 356 54 475 54 l 285 54 l 285 0 l 338 0 q 597 61 500 0 q 693 261 693 122 q 642 410 693 349 q 513 494 592 472 q 611 574 576 521 q 646 699 646 626 q 572 880 646 815 q 383 944 497 944 q 183 868 254 944 q 111 657 111 792 l 111 0 l 181 0 l 181 657 z "},"ð":{"ha":726,"x_min":56,"x_max":671,"o":"m 389 915 q 601 660 531 808 q 671 333 671 513 q 634 153 671 233 q 526 28 597 74 q 360 -18 456 -18 q 135 81 214 -17 q 56 340 56 179 q 92 520 56 440 q 200 646 129 600 q 368 692 271 692 q 538 638 468 690 q 332 886 468 783 l 151 794 l 125 847 l 279 924 q 140 997 211 967 l 158 1042 q 336 951 251 1004 l 497 1031 l 522 982 l 389 915 m 360 39 q 487 78 432 39 q 571 185 542 118 q 600 332 600 253 q 572 543 600 446 q 367 635 476 635 q 240 595 294 635 q 156 488 185 556 q 126 342 126 421 q 153 188 126 257 q 233 79 181 119 q 360 39 286 39 z "},"þ":{"ha":706,"x_min":106,"x_max":650,"o":"m 360 692 q 577 594 504 692 q 650 333 650 497 q 572 79 650 176 q 350 -18 494 -18 q 259 0 306 -18 q 174 46 213 18 l 174 -289 l 106 -304 l 106 967 l 174 981 l 174 619 q 360 692 254 692 m 353 39 q 476 78 425 39 q 553 185 526 118 q 579 332 579 251 q 524 549 579 464 q 360 635 468 635 q 257 612 299 635 q 174 544 215 589 l 174 115 q 353 39 258 39 z "},"ƒ":{"ha":407,"x_min":0,"x_max":407,"o":"m 169 601 l 169 79 q 74 -35 169 -35 q 43 -31 61 -35 q 17 -22 25 -26 l 0 -74 q 92 -92 47 -92 q 201 -40 164 -92 q 238 101 238 11 l 238 601 l 389 601 l 360 653 l 238 653 l 238 804 q 333 918 238 918 q 364 914 346 918 q 390 906 382 910 l 407 957 q 315 975 360 975 q 206 924 243 975 q 169 782 169 872 l 169 653 l 68 653 l 68 601 l 169 601 z "},"æ":{"ha":1104,"x_min":72,"x_max":1049,"o":"m 801 39 q 913 51 868 39 q 1000 86 957 64 l 1028 35 q 924 -3 989 11 q 813 -18 860 -18 q 655 15 721 -18 q 550 110 589 49 q 452 15 511 47 q 299 -18 393 -18 q 131 40 189 -18 q 72 189 72 97 q 139 337 72 283 q 313 390 206 390 l 494 390 q 500 431 497 415 l 500 474 q 459 591 500 547 q 339 635 418 635 q 238 624 278 635 q 146 588 197 613 l 119 633 q 222 675 156 658 q 335 692 289 692 q 472 660 418 692 q 550 569 526 628 q 647 660 588 628 q 788 692 707 692 q 924 646 864 692 q 1016 519 983 600 q 1049 336 1049 438 l 564 336 q 624 122 565 206 q 801 39 683 39 m 778 635 q 630 565 683 635 q 567 388 576 494 l 976 388 q 918 566 965 497 q 778 635 871 635 m 304 39 q 434 73 382 39 q 522 167 486 107 q 493 339 493 242 l 318 339 q 187 297 231 339 q 143 189 143 256 q 187 82 143 125 q 304 39 231 39 z "},"đ":{"ha":711,"x_min":56,"x_max":694,"o":"m 600 806 l 600 0 l 563 0 l 538 60 q 346 -18 453 -18 q 128 79 201 -18 q 56 340 56 176 q 133 594 56 497 q 356 692 211 692 q 447 674 400 692 q 532 628 493 656 l 532 806 l 350 806 l 336 854 l 532 854 l 532 967 l 600 979 l 600 854 l 681 854 l 694 806 l 600 806 m 346 39 q 449 62 407 39 q 532 129 490 85 l 532 558 q 353 635 447 635 q 230 595 281 635 q 153 489 179 556 q 126 342 126 422 q 182 124 126 210 q 346 39 238 39 z "},"œ":{"ha":1053,"x_min":56,"x_max":997,"o":"m 750 39 q 861 51 817 39 q 949 86 906 64 l 976 35 q 873 -3 938 11 q 761 -18 808 -18 q 565 38 646 -18 q 465 -2 525 14 q 360 -18 404 -18 q 135 81 214 -18 q 56 340 56 179 q 93 522 56 442 q 201 647 131 601 q 369 692 272 692 q 467 677 410 692 q 564 639 524 663 q 736 692 635 692 q 872 646 813 692 q 965 519 932 600 q 997 336 997 438 l 513 336 q 573 122 514 206 q 750 39 632 39 m 126 342 q 153 188 126 257 q 233 79 181 119 q 360 39 286 39 q 449 49 415 39 q 522 78 483 58 q 442 340 442 172 q 521 600 442 504 q 450 626 486 617 q 367 635 414 635 q 240 595 294 635 q 156 488 185 556 q 126 342 126 421 m 726 635 q 578 565 632 635 q 515 388 525 494 l 925 388 q 867 566 914 497 q 726 635 819 635 z "},"ĺ":{"ha":290,"x_min":111,"x_max":279,"o":"m 194 1239 l 117 1042 l 161 1026 l 279 1239 l 194 1239 m 111 936 l 111 0 l 179 0 l 179 950 l 111 936 z "},"ł":{"ha":376,"x_min":0,"x_max":376,"o":"m 222 981 l 154 967 l 154 488 l 0 354 l 31 304 l 154 413 l 154 0 l 222 0 l 222 472 l 376 608 l 346 656 l 222 547 l 222 981 z "},"ı":{"ha":263,"x_min":97,"x_max":165,"o":"m 97 674 l 97 0 l 165 0 l 165 674 l 97 674 z "},"ø":{"ha":726,"x_min":56,"x_max":671,"o":"m 368 692 q 592 592 514 690 q 671 333 671 494 q 634 153 671 233 q 526 28 597 74 q 360 -18 456 -18 q 135 81 214 -17 q 56 340 56 179 q 92 520 56 440 q 200 646 129 600 q 368 692 271 692 m 126 342 q 149 202 126 265 q 213 97 171 139 l 476 606 q 367 635 425 635 q 240 595 294 635 q 156 488 185 556 q 126 342 126 421 m 360 39 q 487 78 432 39 q 571 185 542 118 q 600 332 600 253 q 581 462 600 401 q 525 564 561 522 l 264 61 q 360 39 308 39 z "},"À":{"ha":794,"x_min":14,"x_max":781,"o":"m 82 0 l 189 296 l 599 296 l 711 -8 l 781 7 l 421 944 l 357 944 l 14 0 l 82 0 m 390 853 l 579 350 l 208 350 l 390 853 m 364 1239 l 279 1239 l 397 1026 l 442 1042 l 364 1239 z "},"Á":{"ha":794,"x_min":14,"x_max":781,"o":"m 82 0 l 189 296 l 599 296 l 711 -8 l 781 7 l 421 944 l 357 944 l 14 0 l 82 0 m 390 853 l 579 350 l 208 350 l 390 853 m 410 1239 l 332 1042 l 376 1026 l 494 1239 l 410 1239 z "},"Â":{"ha":794,"x_min":14,"x_max":781,"o":"m 82 0 l 189 296 l 599 296 l 711 -8 l 781 7 l 421 944 l 357 944 l 14 0 l 82 0 m 390 853 l 579 350 l 208 350 l 390 853 m 572 1047 l 426 1240 l 371 1240 l 224 1042 l 281 1028 l 400 1192 l 515 1028 l 572 1047 z "},"Ã":{"ha":794,"x_min":14,"x_max":781,"o":"m 82 0 l 189 296 l 599 296 l 711 -8 l 781 7 l 421 944 l 357 944 l 14 0 l 82 0 m 390 853 l 579 350 l 208 350 l 390 853 m 524 1179 q 505 1126 521 1146 q 461 1106 489 1106 q 394 1146 426 1106 q 304 1185 364 1185 q 222 1153 254 1185 q 189 1058 189 1121 l 243 1058 q 306 1132 250 1132 q 378 1093 340 1132 q 461 1053 414 1053 q 544 1085 511 1053 q 576 1179 576 1117 l 524 1179 z "},"Ä":{"ha":794,"x_min":14,"x_max":781,"o":"m 82 0 l 189 296 l 599 296 l 711 -8 l 781 7 l 421 944 l 357 944 l 14 0 l 82 0 m 390 853 l 579 350 l 208 350 l 390 853 m 276 1067 q 313 1081 297 1067 q 328 1118 328 1096 q 313 1153 328 1139 q 276 1168 297 1168 q 239 1154 253 1168 q 225 1118 225 1140 q 239 1081 225 1096 q 276 1067 253 1067 m 497 1067 q 533 1081 518 1067 q 549 1118 549 1096 q 533 1153 549 1139 q 497 1168 518 1168 q 460 1154 474 1168 q 446 1118 446 1140 q 460 1081 446 1096 q 497 1067 474 1067 z "},"Å":{"ha":794,"x_min":14,"x_max":781,"o":"m 82 0 l 189 296 l 599 296 l 711 -8 l 781 7 l 421 944 l 357 944 l 14 0 l 82 0 m 390 853 l 579 350 l 208 350 l 390 853 m 388 1263 q 301 1229 338 1263 q 264 1146 264 1196 q 300 1065 264 1097 q 388 1033 336 1033 q 474 1065 439 1033 q 510 1146 510 1097 q 474 1229 510 1196 q 388 1263 438 1263 m 388 1075 q 338 1095 357 1075 q 318 1146 318 1115 q 338 1199 318 1178 q 388 1219 357 1219 q 437 1199 418 1219 q 456 1146 456 1178 q 437 1095 456 1115 q 388 1075 418 1075 z "},"Ă":{"ha":794,"x_min":14,"x_max":781,"o":"m 82 0 l 189 296 l 599 296 l 711 -8 l 781 7 l 421 944 l 357 944 l 14 0 l 82 0 m 390 853 l 579 350 l 208 350 l 390 853 m 515 1224 q 482 1134 515 1171 q 392 1097 449 1097 q 302 1135 336 1097 q 268 1224 268 1172 l 211 1224 q 260 1097 211 1150 q 392 1043 308 1043 q 525 1096 478 1043 q 572 1224 572 1149 l 515 1224 z "},"Ą":{"ha":794,"x_min":14,"x_max":890,"o":"m 890 -246 q 842 -276 872 -264 q 779 -287 813 -287 q 675 -250 717 -287 q 633 -154 633 -212 q 655 -76 633 -118 q 710 -3 676 -35 l 599 296 l 189 296 l 82 0 l 14 0 l 357 944 l 421 944 l 781 7 l 756 1 l 771 0 q 715 -72 733 -35 q 697 -156 697 -110 q 725 -215 697 -193 q 783 -237 753 -237 q 860 -208 824 -237 l 890 -246 m 390 853 l 208 350 l 579 350 l 390 853 z "},"Ā":{"ha":794,"x_min":14,"x_max":781,"o":"m 82 0 l 189 296 l 599 296 l 711 -8 l 781 7 l 421 944 l 357 944 l 14 0 l 82 0 m 390 853 l 579 350 l 208 350 l 390 853 m 547 1149 l 219 1149 l 219 1097 l 554 1097 l 547 1149 z "},"Ç":{"ha":768,"x_min":69,"x_max":726,"o":"m 726 32 q 630 -2 690 13 q 514 -19 569 -17 l 493 -71 q 586 -116 553 -82 q 619 -189 619 -150 q 578 -274 619 -242 q 468 -307 536 -307 q 410 -299 442 -307 q 361 -281 378 -292 l 382 -237 q 464 -257 429 -257 q 533 -237 506 -257 q 561 -192 561 -218 q 524 -133 561 -160 q 424 -107 486 -107 l 457 -18 q 242 58 329 -10 q 113 232 156 125 q 69 467 69 339 q 121 719 69 606 q 270 898 172 832 q 500 964 368 964 q 622 950 551 964 q 726 913 692 936 l 699 863 q 606 894 646 885 q 497 904 565 904 q 317 849 397 903 q 192 697 238 796 q 146 468 146 599 q 186 255 146 353 q 303 99 226 157 q 485 40 381 40 q 601 51 553 40 q 693 82 649 63 l 726 32 z "},"Ć":{"ha":768,"x_min":69,"x_max":726,"o":"m 726 913 q 622 950 692 936 q 500 964 551 964 q 270 898 368 964 q 121 719 172 832 q 69 467 69 606 q 116 223 69 333 q 258 47 163 113 q 492 -19 353 -19 q 619 -4 550 -19 q 726 32 688 11 l 693 82 q 601 51 649 63 q 485 40 553 40 q 303 99 381 40 q 186 255 226 157 q 146 468 146 353 q 192 697 146 599 q 317 849 238 796 q 497 904 397 903 q 606 894 565 904 q 699 863 646 885 l 726 913 m 519 1239 l 442 1042 l 486 1026 l 604 1239 l 519 1239 z "},"Č":{"ha":768,"x_min":69,"x_max":726,"o":"m 726 913 q 622 950 692 936 q 500 964 551 964 q 270 898 368 964 q 121 719 172 832 q 69 467 69 606 q 116 223 69 333 q 258 47 163 113 q 492 -19 353 -19 q 619 -4 550 -19 q 726 32 688 11 l 693 82 q 601 51 649 63 q 485 40 553 40 q 303 99 381 40 q 186 255 226 157 q 146 468 146 353 q 192 697 146 599 q 317 849 238 796 q 497 904 397 903 q 606 894 565 904 q 699 863 646 885 l 726 913 m 328 1225 l 475 1026 l 531 1026 l 676 1219 l 619 1239 l 504 1075 l 385 1239 l 328 1225 z "},"Ď":{"ha":919,"x_min":139,"x_max":850,"o":"m 446 0 q 670 63 579 0 q 806 235 761 126 q 850 478 850 343 q 753 815 850 686 q 450 944 656 944 l 139 944 l 139 0 l 446 0 m 461 890 q 637 835 565 890 q 744 685 708 779 q 779 476 779 592 q 738 260 779 356 q 620 109 696 164 q 447 54 544 54 l 207 54 l 207 890 l 461 890 m 254 1225 l 401 1026 l 457 1026 l 603 1219 l 546 1239 l 431 1075 l 311 1239 l 254 1225 z "},"È":{"ha":688,"x_min":139,"x_max":660,"o":"m 207 54 l 207 457 l 547 457 l 540 511 l 207 511 l 207 890 l 628 890 l 621 944 l 139 944 l 139 0 l 660 0 l 651 54 l 207 54 m 356 1239 l 271 1239 l 389 1026 l 433 1042 l 356 1239 z "},"É":{"ha":688,"x_min":139,"x_max":660,"o":"m 207 54 l 207 457 l 547 457 l 540 511 l 207 511 l 207 890 l 628 890 l 621 944 l 139 944 l 139 0 l 660 0 l 651 54 l 207 54 m 401 1239 l 324 1042 l 368 1026 l 486 1239 l 401 1239 z "},"Ê":{"ha":688,"x_min":139,"x_max":660,"o":"m 207 54 l 207 457 l 547 457 l 540 511 l 207 511 l 207 890 l 628 890 l 621 944 l 139 944 l 139 0 l 660 0 l 651 54 l 207 54 m 564 1047 l 418 1240 l 363 1240 l 215 1042 l 272 1028 l 392 1192 l 507 1028 l 564 1047 z "},"Ë":{"ha":688,"x_min":139,"x_max":660,"o":"m 207 54 l 207 457 l 547 457 l 540 511 l 207 511 l 207 890 l 628 890 l 621 944 l 139 944 l 139 0 l 660 0 l 651 54 l 207 54 m 268 1067 q 304 1081 289 1067 q 319 1118 319 1096 q 304 1153 319 1139 q 268 1168 289 1168 q 231 1154 244 1168 q 217 1118 217 1140 q 231 1081 217 1096 q 268 1067 244 1067 m 489 1067 q 525 1081 510 1067 q 540 1118 540 1096 q 525 1153 540 1139 q 489 1168 510 1168 q 451 1154 465 1168 q 438 1118 438 1140 q 451 1081 438 1096 q 489 1067 465 1067 z "},"Ē":{"ha":688,"x_min":139,"x_max":660,"o":"m 207 54 l 207 457 l 547 457 l 540 511 l 207 511 l 207 890 l 628 890 l 621 944 l 139 944 l 139 0 l 660 0 l 651 54 l 207 54 m 539 1149 l 211 1149 l 211 1097 l 546 1097 l 539 1149 z "},"Ė":{"ha":688,"x_min":139,"x_max":660,"o":"m 207 54 l 207 457 l 547 457 l 540 511 l 207 511 l 207 890 l 628 890 l 621 944 l 139 944 l 139 0 l 660 0 l 651 54 l 207 54 m 379 1067 q 417 1082 401 1067 q 433 1119 433 1097 q 417 1157 433 1142 q 379 1172 401 1172 q 341 1157 356 1172 q 326 1119 326 1142 q 341 1082 326 1097 q 379 1067 356 1067 z "},"Ę":{"ha":688,"x_min":139,"x_max":671,"o":"m 671 -246 q 623 -276 653 -264 q 560 -287 593 -287 q 456 -250 497 -287 q 414 -154 414 -212 q 436 -74 414 -117 q 493 0 458 -31 l 139 0 l 139 944 l 621 944 l 628 890 l 207 890 l 207 511 l 540 511 l 547 457 l 207 457 l 207 54 l 651 54 l 660 0 l 551 0 q 496 -72 514 -35 q 478 -156 478 -110 q 506 -215 478 -193 q 564 -237 533 -237 q 640 -208 604 -237 l 671 -246 z "},"Ě":{"ha":688,"x_min":139,"x_max":660,"o":"m 207 54 l 207 457 l 547 457 l 540 511 l 207 511 l 207 890 l 628 890 l 621 944 l 139 944 l 139 0 l 660 0 l 651 54 l 207 54 m 210 1225 l 357 1026 l 413 1026 l 558 1219 l 501 1239 l 386 1075 l 267 1239 l 210 1225 z "},"Ğ":{"ha":853,"x_min":69,"x_max":769,"o":"m 699 72 q 529 40 611 40 q 332 95 419 40 q 195 247 244 150 q 146 467 146 344 q 197 693 146 593 q 339 850 249 793 q 542 907 429 907 q 650 897 608 907 q 743 867 692 888 l 769 913 q 663 950 735 936 q 539 964 590 964 q 298 900 406 964 q 130 723 190 836 q 69 467 69 610 q 125 217 69 328 q 285 44 181 107 q 531 -19 390 -19 q 659 -1 590 -19 q 767 43 728 17 l 767 475 l 494 475 l 486 421 l 699 421 l 699 72 m 664 1224 q 631 1134 664 1171 q 540 1097 597 1097 q 451 1135 485 1097 q 417 1224 417 1172 l 360 1224 q 408 1097 360 1150 q 540 1043 457 1043 q 674 1096 626 1043 q 721 1224 721 1149 l 664 1224 z "},"Ì":{"ha":346,"x_min":63,"x_max":225,"o":"m 139 944 l 139 0 l 207 0 l 207 944 l 139 944 m 147 1239 l 63 1239 l 181 1026 l 225 1042 l 147 1239 z "},"Í":{"ha":346,"x_min":115,"x_max":278,"o":"m 139 944 l 139 0 l 207 0 l 207 944 l 139 944 m 193 1239 l 115 1042 l 160 1026 l 278 1239 l 193 1239 z "},"Î":{"ha":346,"x_min":7,"x_max":356,"o":"m 139 944 l 139 0 l 207 0 l 207 944 l 139 944 m 356 1047 l 210 1240 l 154 1240 l 7 1042 l 64 1028 l 183 1192 l 299 1028 l 356 1047 z "},"Ï":{"ha":346,"x_min":8,"x_max":332,"o":"m 139 944 l 139 0 l 207 0 l 207 944 l 139 944 m 60 1067 q 96 1081 81 1067 q 111 1118 111 1096 q 96 1153 111 1139 q 60 1168 81 1168 q 22 1154 36 1168 q 8 1118 8 1140 q 22 1081 8 1096 q 60 1067 36 1067 m 281 1067 q 317 1081 301 1067 q 332 1118 332 1096 q 317 1153 332 1139 q 281 1168 301 1168 q 243 1154 257 1168 q 229 1118 229 1140 q 243 1081 229 1096 q 281 1067 257 1067 z "},"Ī":{"ha":346,"x_min":3,"x_max":338,"o":"m 139 944 l 139 0 l 207 0 l 207 944 l 139 944 m 331 1149 l 3 1149 l 3 1097 l 338 1097 l 331 1149 z "},"Į":{"ha":346,"x_min":60,"x_max":317,"o":"m 317 -246 q 269 -276 299 -264 q 206 -287 239 -287 q 101 -250 143 -287 q 60 -154 60 -212 q 82 -74 60 -117 q 139 0 104 -31 l 139 944 l 207 944 l 207 0 l 197 0 q 142 -72 160 -35 q 124 -156 124 -110 q 151 -215 124 -193 q 210 -237 179 -237 q 286 -208 250 -237 l 317 -246 z "},"İ":{"ha":346,"x_min":118,"x_max":225,"o":"m 139 944 l 139 0 l 207 0 l 207 944 l 139 944 m 171 1067 q 209 1082 193 1067 q 225 1119 225 1097 q 209 1157 225 1142 q 171 1172 193 1172 q 133 1157 147 1172 q 118 1119 118 1142 q 133 1082 118 1097 q 171 1067 147 1067 z "},"Ĺ":{"ha":682,"x_min":139,"x_max":668,"o":"m 207 944 l 139 944 l 139 0 l 668 0 l 661 54 l 207 54 l 207 944 m 254 1239 l 176 1042 l 221 1026 l 339 1239 l 254 1239 z "},"Ľ":{"ha":682,"x_min":139,"x_max":668,"o":"m 207 944 l 139 944 l 139 0 l 668 0 l 661 54 l 207 54 l 207 944 m 514 975 q 475 959 489 975 q 461 921 461 943 q 475 886 461 904 q 511 868 489 868 q 426 754 510 799 l 449 719 q 537 799 506 747 q 568 915 568 851 q 553 956 568 938 q 514 975 538 975 z "},"Ñ":{"ha":914,"x_min":139,"x_max":775,"o":"m 226 757 l 738 0 l 775 0 l 775 944 l 707 944 l 707 154 l 660 236 l 178 944 l 139 944 l 139 0 l 207 0 l 207 797 l 226 757 m 592 1179 q 573 1126 589 1146 q 529 1106 557 1106 q 463 1146 494 1106 q 372 1185 432 1185 q 290 1153 322 1185 q 257 1058 257 1121 l 311 1058 q 374 1132 318 1132 q 446 1093 408 1132 q 529 1053 482 1053 q 612 1085 579 1053 q 644 1179 644 1117 l 592 1179 z "},"Ń":{"ha":914,"x_min":139,"x_max":775,"o":"m 226 757 l 738 0 l 775 0 l 775 944 l 707 944 l 707 154 l 660 236 l 178 944 l 139 944 l 139 0 l 207 0 l 207 797 l 226 757 m 478 1239 l 400 1042 l 444 1026 l 563 1239 l 478 1239 z "},"Ň":{"ha":914,"x_min":139,"x_max":775,"o":"m 226 757 l 738 0 l 775 0 l 775 944 l 707 944 l 707 154 l 660 236 l 178 944 l 139 944 l 139 0 l 207 0 l 207 797 l 226 757 m 286 1225 l 433 1026 l 489 1026 l 635 1219 l 578 1239 l 463 1075 l 343 1239 l 286 1225 z "},"Ò":{"ha":982,"x_min":69,"x_max":913,"o":"m 496 967 q 276 902 374 967 q 124 724 179 838 q 69 468 69 611 q 123 217 69 328 q 272 43 176 106 q 488 -19 368 -19 q 706 45 608 -19 q 858 223 803 110 q 913 479 913 336 q 859 731 913 619 q 710 904 806 842 q 496 967 615 967 m 146 469 q 191 694 146 594 q 316 851 236 794 q 497 908 396 908 q 672 853 594 908 q 792 699 749 797 q 836 478 836 601 q 791 251 836 351 q 666 94 746 151 q 485 38 586 38 q 310 93 388 38 q 190 247 233 149 q 146 469 146 346 m 469 1239 l 385 1239 l 503 1026 l 547 1042 l 469 1239 z "},"Ó":{"ha":982,"x_min":69,"x_max":913,"o":"m 496 967 q 276 902 374 967 q 124 724 179 838 q 69 468 69 611 q 123 217 69 328 q 272 43 176 106 q 488 -19 368 -19 q 706 45 608 -19 q 858 223 803 110 q 913 479 913 336 q 859 731 913 619 q 710 904 806 842 q 496 967 615 967 m 146 469 q 191 694 146 594 q 316 851 236 794 q 497 908 396 908 q 672 853 594 908 q 792 699 749 797 q 836 478 836 601 q 791 251 836 351 q 666 94 746 151 q 485 38 586 38 q 310 93 388 38 q 190 247 233 149 q 146 469 146 346 m 515 1239 l 438 1042 l 482 1026 l 600 1239 l 515 1239 z "},"Ô":{"ha":982,"x_min":69,"x_max":913,"o":"m 496 967 q 276 902 374 967 q 124 724 179 838 q 69 468 69 611 q 123 217 69 328 q 272 43 176 106 q 488 -19 368 -19 q 706 45 608 -19 q 858 223 803 110 q 913 479 913 336 q 859 731 913 619 q 710 904 806 842 q 496 967 615 967 m 146 469 q 191 694 146 594 q 316 851 236 794 q 497 908 396 908 q 672 853 594 908 q 792 699 749 797 q 836 478 836 601 q 791 251 836 351 q 666 94 746 151 q 485 38 586 38 q 310 93 388 38 q 190 247 233 149 q 146 469 146 346 m 678 1047 l 532 1240 l 476 1240 l 329 1042 l 386 1028 l 506 1192 l 621 1028 l 678 1047 z "},"Õ":{"ha":982,"x_min":69,"x_max":913,"o":"m 496 967 q 276 902 374 967 q 124 724 179 838 q 69 468 69 611 q 123 217 69 328 q 272 43 176 106 q 488 -19 368 -19 q 706 45 608 -19 q 858 223 803 110 q 913 479 913 336 q 859 731 913 619 q 710 904 806 842 q 496 967 615 967 m 146 469 q 191 694 146 594 q 316 851 236 794 q 497 908 396 908 q 672 853 594 908 q 792 699 749 797 q 836 478 836 601 q 791 251 836 351 q 666 94 746 151 q 485 38 586 38 q 310 93 388 38 q 190 247 233 149 q 146 469 146 346 m 629 1179 q 610 1126 626 1146 q 567 1106 594 1106 q 500 1146 532 1106 q 410 1185 469 1185 q 327 1153 360 1185 q 294 1058 294 1121 l 349 1058 q 411 1132 356 1132 q 483 1093 446 1132 q 567 1053 519 1053 q 649 1085 617 1053 q 682 1179 682 1117 l 629 1179 z "},"Ö":{"ha":982,"x_min":69,"x_max":913,"o":"m 496 967 q 276 902 374 967 q 124 724 179 838 q 69 468 69 611 q 123 217 69 328 q 272 43 176 106 q 488 -19 368 -19 q 706 45 608 -19 q 858 223 803 110 q 913 479 913 336 q 859 731 913 619 q 710 904 806 842 q 496 967 615 967 m 146 469 q 191 694 146 594 q 316 851 236 794 q 497 908 396 908 q 672 853 594 908 q 792 699 749 797 q 836 478 836 601 q 791 251 836 351 q 666 94 746 151 q 485 38 586 38 q 310 93 388 38 q 190 247 233 149 q 146 469 146 346 m 382 1067 q 418 1081 403 1067 q 433 1118 433 1096 q 418 1153 433 1139 q 382 1168 403 1168 q 344 1154 358 1168 q 331 1118 331 1140 q 344 1081 331 1096 q 382 1067 358 1067 m 603 1067 q 639 1081 624 1067 q 654 1118 654 1096 q 639 1153 654 1139 q 603 1168 624 1168 q 565 1154 579 1168 q 551 1118 551 1140 q 565 1081 551 1096 q 603 1067 579 1067 z "},"Ō":{"ha":982,"x_min":69,"x_max":913,"o":"m 496 967 q 276 902 374 967 q 124 724 179 838 q 69 468 69 611 q 123 217 69 328 q 272 43 176 106 q 488 -19 368 -19 q 706 45 608 -19 q 858 223 803 110 q 913 479 913 336 q 859 731 913 619 q 710 904 806 842 q 496 967 615 967 m 146 469 q 191 694 146 594 q 316 851 236 794 q 497 908 396 908 q 672 853 594 908 q 792 699 749 797 q 836 478 836 601 q 791 251 836 351 q 666 94 746 151 q 485 38 586 38 q 310 93 388 38 q 190 247 233 149 q 146 469 146 346 m 653 1149 l 325 1149 l 325 1097 l 660 1097 l 653 1149 z "},"Ő":{"ha":982,"x_min":69,"x_max":913,"o":"m 496 967 q 276 902 374 967 q 124 724 179 838 q 69 468 69 611 q 123 217 69 328 q 272 43 176 106 q 488 -19 368 -19 q 706 45 608 -19 q 858 223 803 110 q 913 479 913 336 q 859 731 913 619 q 710 904 806 842 q 496 967 615 967 m 146 469 q 191 694 146 594 q 316 851 236 794 q 497 908 396 908 q 672 853 594 908 q 792 699 749 797 q 836 478 836 601 q 791 251 836 351 q 666 94 746 151 q 485 38 586 38 q 310 93 388 38 q 190 247 233 149 q 146 469 146 346 m 446 1239 l 368 1042 l 413 1026 l 531 1239 l 446 1239 m 624 1239 l 546 1042 l 590 1026 l 708 1239 l 624 1239 z "},"Ŕ":{"ha":794,"x_min":139,"x_max":781,"o":"m 207 0 l 207 397 l 350 397 q 476 411 419 397 l 704 0 l 781 0 l 535 429 q 660 522 614 460 q 706 675 706 583 q 615 881 706 817 q 365 944 524 944 l 139 944 l 139 0 l 207 0 m 368 889 q 562 838 488 889 q 636 672 636 786 q 553 507 636 563 q 353 451 469 451 l 207 451 l 207 889 l 368 889 m 385 1239 l 307 1042 l 351 1026 l 469 1239 l 385 1239 z "},"Ř":{"ha":794,"x_min":139,"x_max":781,"o":"m 207 0 l 207 397 l 350 397 q 476 411 419 397 l 704 0 l 781 0 l 535 429 q 660 522 614 460 q 706 675 706 583 q 615 881 706 817 q 365 944 524 944 l 139 944 l 139 0 l 207 0 m 368 889 q 562 838 488 889 q 636 672 636 786 q 553 507 636 563 q 353 451 469 451 l 207 451 l 207 889 l 368 889 m 193 1225 l 340 1026 l 396 1026 l 542 1219 l 485 1239 l 369 1075 l 250 1239 l 193 1225 z "},"Ś":{"ha":700,"x_min":69,"x_max":644,"o":"m 76 40 q 184 1 100 19 q 329 -18 268 -18 q 562 47 479 -18 q 644 218 644 111 q 584 374 644 310 q 393 493 524 439 q 203 603 264 547 q 142 736 142 660 q 201 860 142 810 q 358 910 261 910 q 465 897 422 910 q 558 863 508 885 l 589 913 q 481 951 542 936 q 356 967 421 967 q 203 938 268 967 q 104 858 139 908 q 69 743 69 807 q 132 578 69 646 q 322 458 194 511 q 513 350 453 404 q 574 222 574 296 q 545 132 574 174 q 460 65 517 90 q 328 40 404 40 q 203 56 264 40 q 97 94 142 72 l 76 40 m 375 1239 l 297 1042 l 342 1026 l 460 1239 l 375 1239 z "},"Š":{"ha":700,"x_min":69,"x_max":644,"o":"m 76 40 q 184 1 100 19 q 329 -18 268 -18 q 562 47 479 -18 q 644 218 644 111 q 584 374 644 310 q 393 493 524 439 q 203 603 264 547 q 142 736 142 660 q 201 860 142 810 q 358 910 261 910 q 465 897 422 910 q 558 863 508 885 l 589 913 q 481 951 542 936 q 356 967 421 967 q 203 938 268 967 q 104 858 139 908 q 69 743 69 807 q 132 578 69 646 q 322 458 194 511 q 513 350 453 404 q 574 222 574 296 q 545 132 574 174 q 460 65 517 90 q 328 40 404 40 q 203 56 264 40 q 97 94 142 72 l 76 40 m 183 1225 l 331 1026 l 386 1026 l 532 1219 l 475 1239 l 360 1075 l 240 1239 l 183 1225 z "},"Ť":{"ha":742,"x_min":14,"x_max":728,"o":"m 14 890 l 336 890 l 336 0 l 404 0 l 404 890 l 728 890 l 721 944 l 14 944 l 14 890 m 197 1225 l 344 1026 l 400 1026 l 546 1219 l 489 1239 l 374 1075 l 254 1239 l 197 1225 z "},"Ù":{"ha":914,"x_min":125,"x_max":789,"o":"m 125 332 q 164 151 125 231 q 278 28 203 72 q 457 -17 353 -17 q 637 28 563 -17 q 750 151 711 72 q 789 332 789 231 l 789 944 l 721 944 l 721 328 q 689 181 721 247 q 597 78 657 115 q 457 40 538 40 q 319 78 379 40 q 226 182 258 117 q 193 328 193 247 l 193 944 l 125 944 l 125 332 m 431 1239 l 346 1239 l 464 1026 l 508 1042 l 431 1239 z "},"Ú":{"ha":914,"x_min":125,"x_max":789,"o":"m 125 332 q 164 151 125 231 q 278 28 203 72 q 457 -17 353 -17 q 637 28 563 -17 q 750 151 711 72 q 789 332 789 231 l 789 944 l 721 944 l 721 328 q 689 181 721 247 q 597 78 657 115 q 457 40 538 40 q 319 78 379 40 q 226 182 258 117 q 193 328 193 247 l 193 944 l 125 944 l 125 332 m 476 1239 l 399 1042 l 443 1026 l 561 1239 l 476 1239 z "},"Û":{"ha":914,"x_min":125,"x_max":789,"o":"m 125 332 q 164 151 125 231 q 278 28 203 72 q 457 -17 353 -17 q 637 28 563 -17 q 750 151 711 72 q 789 332 789 231 l 789 944 l 721 944 l 721 328 q 689 181 721 247 q 597 78 657 115 q 457 40 538 40 q 319 78 379 40 q 226 182 258 117 q 193 328 193 247 l 193 944 l 125 944 l 125 332 m 639 1047 l 493 1240 l 438 1240 l 290 1042 l 347 1028 l 467 1192 l 582 1028 l 639 1047 z "},"Ü":{"ha":914,"x_min":125,"x_max":789,"o":"m 125 332 q 164 151 125 231 q 278 28 203 72 q 457 -17 353 -17 q 637 28 563 -17 q 750 151 711 72 q 789 332 789 231 l 789 944 l 721 944 l 721 328 q 689 181 721 247 q 597 78 657 115 q 457 40 538 40 q 319 78 379 40 q 226 182 258 117 q 193 328 193 247 l 193 944 l 125 944 l 125 332 m 343 1067 q 379 1081 364 1067 q 394 1118 394 1096 q 379 1153 394 1139 q 343 1168 364 1168 q 306 1154 319 1168 q 292 1118 292 1140 q 306 1081 292 1096 q 343 1067 319 1067 m 564 1067 q 600 1081 585 1067 q 615 1118 615 1096 q 600 1153 615 1139 q 564 1168 585 1168 q 526 1154 540 1168 q 513 1118 513 1140 q 526 1081 513 1096 q 564 1067 540 1067 z "},"Ū":{"ha":914,"x_min":125,"x_max":789,"o":"m 125 332 q 164 151 125 231 q 278 28 203 72 q 457 -17 353 -17 q 637 28 563 -17 q 750 151 711 72 q 789 332 789 231 l 789 944 l 721 944 l 721 328 q 689 181 721 247 q 597 78 657 115 q 457 40 538 40 q 319 78 379 40 q 226 182 258 117 q 193 328 193 247 l 193 944 l 125 944 l 125 332 m 614 1149 l 286 1149 l 286 1097 l 621 1097 l 614 1149 z "},"Ů":{"ha":914,"x_min":125,"x_max":789,"o":"m 125 332 q 164 151 125 231 q 278 28 203 72 q 457 -17 353 -17 q 637 28 563 -17 q 750 151 711 72 q 789 332 789 231 l 789 944 l 721 944 l 721 328 q 689 181 721 247 q 597 78 657 115 q 457 40 538 40 q 319 78 379 40 q 226 182 258 117 q 193 328 193 247 l 193 944 l 125 944 l 125 332 m 454 1263 q 367 1229 404 1263 q 331 1146 331 1196 q 367 1065 331 1097 q 454 1033 403 1033 q 541 1065 506 1033 q 576 1146 576 1097 q 540 1229 576 1196 q 454 1263 504 1263 m 454 1075 q 404 1095 424 1075 q 385 1146 385 1115 q 404 1199 385 1178 q 454 1219 424 1219 q 503 1199 485 1219 q 522 1146 522 1178 q 503 1095 522 1115 q 454 1075 485 1075 z "},"Ű":{"ha":914,"x_min":125,"x_max":789,"o":"m 125 332 q 164 151 125 231 q 278 28 203 72 q 457 -17 353 -17 q 637 28 563 -17 q 750 151 711 72 q 789 332 789 231 l 789 944 l 721 944 l 721 328 q 689 181 721 247 q 597 78 657 115 q 457 40 538 40 q 319 78 379 40 q 226 182 258 117 q 193 328 193 247 l 193 944 l 125 944 l 125 332 m 407 1239 l 329 1042 l 374 1026 l 492 1239 l 407 1239 m 585 1239 l 507 1042 l 551 1026 l 669 1239 l 585 1239 z "},"Ų":{"ha":914,"x_min":125,"x_max":789,"o":"m 789 332 q 751 153 789 232 q 640 30 714 75 q 464 -17 567 -15 q 407 -156 407 -78 q 435 -215 407 -193 q 493 -237 463 -237 q 569 -208 533 -237 l 600 -246 q 552 -276 582 -264 q 489 -287 522 -287 q 385 -250 426 -287 q 343 -154 343 -212 q 361 -83 343 -121 q 408 -14 379 -44 q 200 96 275 1 q 125 332 125 190 l 125 944 l 193 944 l 193 328 q 226 182 193 247 q 319 78 258 117 q 457 40 379 40 q 597 78 538 40 q 689 181 657 115 q 721 328 721 247 l 721 944 l 789 944 l 789 332 z "},"Ý":{"ha":736,"x_min":14,"x_max":722,"o":"m 722 944 l 643 944 l 360 446 l 82 957 l 14 928 l 326 374 l 326 0 l 394 0 l 394 381 l 722 944 m 379 1239 l 301 1042 l 346 1026 l 464 1239 l 379 1239 z "},"Ÿ":{"ha":736,"x_min":14,"x_max":722,"o":"m 722 944 l 643 944 l 360 446 l 82 957 l 14 928 l 326 374 l 326 0 l 394 0 l 394 381 l 722 944 m 246 1067 q 282 1081 267 1067 q 297 1118 297 1096 q 282 1153 297 1139 q 246 1168 267 1168 q 208 1154 222 1168 q 194 1118 194 1140 q 208 1081 194 1096 q 246 1067 222 1067 m 467 1067 q 503 1081 488 1067 q 518 1118 518 1096 q 503 1153 518 1139 q 467 1168 488 1168 q 429 1154 443 1168 q 415 1118 415 1140 q 429 1081 415 1096 q 467 1067 443 1067 z "},"Ź":{"ha":749,"x_min":42,"x_max":707,"o":"m 707 876 l 700 944 l 65 944 l 79 890 l 643 890 l 42 69 l 50 0 l 700 0 l 693 54 l 110 54 l 707 876 m 392 1239 l 314 1042 l 358 1026 l 476 1239 l 392 1239 z "},"Ż":{"ha":749,"x_min":42,"x_max":707,"o":"m 707 876 l 700 944 l 65 944 l 79 890 l 643 890 l 42 69 l 50 0 l 700 0 l 693 54 l 110 54 l 707 876 m 369 1067 q 408 1082 392 1067 q 424 1119 424 1097 q 408 1157 424 1142 q 369 1172 392 1172 q 331 1157 346 1172 q 317 1119 317 1142 q 331 1082 317 1097 q 369 1067 346 1067 z "},"Ž":{"ha":749,"x_min":42,"x_max":707,"o":"m 707 876 l 700 944 l 65 944 l 79 890 l 643 890 l 42 69 l 50 0 l 700 0 l 693 54 l 110 54 l 707 876 m 200 1225 l 347 1026 l 403 1026 l 549 1219 l 492 1239 l 376 1075 l 257 1239 l 200 1225 z "},"Ş":{"ha":700,"x_min":69,"x_max":644,"o":"m 644 218 q 568 51 644 115 q 351 -18 492 -12 l 331 -71 q 424 -116 390 -82 q 457 -189 457 -150 q 415 -274 457 -242 q 306 -307 374 -307 q 247 -299 279 -307 q 199 -281 215 -292 l 219 -237 q 301 -257 267 -257 q 371 -237 343 -257 q 399 -192 399 -218 q 361 -133 399 -160 q 261 -107 324 -107 l 296 -17 q 165 6 233 -11 q 76 40 97 24 l 97 94 q 203 56 142 72 q 328 40 264 40 q 460 65 404 40 q 545 132 517 90 q 574 222 574 174 q 513 350 574 296 q 322 458 453 404 q 132 578 194 511 q 69 743 69 646 q 104 858 69 807 q 203 938 139 908 q 356 967 268 967 q 481 951 421 967 q 589 913 542 936 l 558 863 q 465 897 508 885 q 358 910 422 910 q 201 860 261 910 q 142 736 142 810 q 203 603 142 660 q 393 493 264 547 q 584 374 524 439 q 644 218 644 310 z "},"Ţ":{"ha":742,"x_min":14,"x_max":728,"o":"m 372 -71 q 465 -116 432 -82 q 499 -189 499 -150 q 457 -274 499 -242 q 347 -307 415 -307 q 289 -299 321 -307 q 240 -281 257 -292 l 261 -237 q 343 -257 308 -257 q 413 -237 385 -257 q 440 -192 440 -218 q 403 -133 440 -160 q 303 -107 365 -107 l 343 0 l 336 0 l 336 890 l 14 890 l 14 944 l 721 944 l 728 890 l 404 890 l 404 18 l 407 18 l 404 11 l 404 0 l 400 0 l 372 -71 z "},"Ș":{"ha":700,"x_min":69,"x_max":644,"o":"m 76 40 q 184 1 100 19 q 329 -18 268 -18 q 562 47 479 -18 q 644 218 644 111 q 584 374 644 310 q 393 493 524 439 q 203 603 264 547 q 142 736 142 660 q 201 860 142 810 q 358 910 261 910 q 465 897 422 910 q 558 863 508 885 l 589 913 q 481 951 542 936 q 356 967 421 967 q 203 938 268 967 q 104 858 139 908 q 69 743 69 807 q 132 578 69 646 q 322 458 194 511 q 513 350 453 404 q 574 222 574 296 q 545 132 574 174 q 460 65 517 90 q 328 40 404 40 q 203 56 264 40 q 97 94 142 72 l 76 40 m 331 -29 q 292 -45 306 -29 q 278 -83 278 -61 q 292 -118 278 -100 q 328 -136 306 -136 q 243 -250 326 -206 l 265 -285 q 353 -205 322 -257 q 385 -89 385 -153 q 369 -48 385 -67 q 331 -29 354 -29 z "},"à":{"ha":660,"x_min":72,"x_max":568,"o":"m 146 588 q 238 624 197 613 q 339 635 278 635 q 459 591 418 635 q 500 474 500 547 l 500 390 l 313 390 q 139 337 206 390 q 72 189 72 283 q 131 40 72 97 q 299 -18 189 -18 q 414 7 360 -18 q 504 72 468 32 l 515 0 l 568 0 l 568 472 q 508 633 568 574 q 335 692 447 692 q 222 675 289 692 q 119 633 156 658 l 146 588 m 143 189 q 187 297 143 256 q 318 339 231 339 l 500 339 l 500 151 q 416 69 465 100 q 304 39 367 39 q 187 82 231 39 q 143 189 143 125 m 304 1031 l 219 1031 l 338 818 l 382 833 l 304 1031 z "},"á":{"ha":660,"x_min":72,"x_max":568,"o":"m 146 588 q 238 624 197 613 q 339 635 278 635 q 459 591 418 635 q 500 474 500 547 l 500 390 l 313 390 q 139 337 206 390 q 72 189 72 283 q 131 40 72 97 q 299 -18 189 -18 q 414 7 360 -18 q 504 72 468 32 l 515 0 l 568 0 l 568 472 q 508 633 568 574 q 335 692 447 692 q 222 675 289 692 q 119 633 156 658 l 146 588 m 143 189 q 187 297 143 256 q 318 339 231 339 l 500 339 l 500 151 q 416 69 465 100 q 304 39 367 39 q 187 82 231 39 q 143 189 143 125 m 351 1031 l 274 833 l 318 818 l 436 1031 l 351 1031 z "},"â":{"ha":660,"x_min":72,"x_max":568,"o":"m 146 588 q 238 624 197 613 q 339 635 278 635 q 459 591 418 635 q 500 474 500 547 l 500 390 l 313 390 q 139 337 206 390 q 72 189 72 283 q 131 40 72 97 q 299 -18 189 -18 q 414 7 360 -18 q 504 72 468 32 l 515 0 l 568 0 l 568 472 q 508 633 568 574 q 335 692 447 692 q 222 675 289 692 q 119 633 156 658 l 146 588 m 143 189 q 187 297 143 256 q 318 339 231 339 l 500 339 l 500 151 q 416 69 465 100 q 304 39 367 39 q 187 82 231 39 q 143 189 143 125 m 521 838 l 375 1031 l 319 1031 l 172 832 l 229 818 l 349 982 l 464 818 l 521 838 z "},"ã":{"ha":660,"x_min":72,"x_max":568,"o":"m 146 588 q 238 624 197 613 q 339 635 278 635 q 459 591 418 635 q 500 474 500 547 l 500 390 l 313 390 q 139 337 206 390 q 72 189 72 283 q 131 40 72 97 q 299 -18 189 -18 q 414 7 360 -18 q 504 72 468 32 l 515 0 l 568 0 l 568 472 q 508 633 568 574 q 335 692 447 692 q 222 675 289 692 q 119 633 156 658 l 146 588 m 143 189 q 187 297 143 256 q 318 339 231 339 l 500 339 l 500 151 q 416 69 465 100 q 304 39 367 39 q 187 82 231 39 q 143 189 143 125 m 475 971 q 456 917 472 938 q 413 897 440 897 q 346 938 378 897 q 256 976 315 976 q 173 944 206 976 q 140 850 140 913 l 194 850 q 257 924 201 924 q 329 885 292 924 q 413 844 365 844 q 495 876 463 844 q 528 971 528 908 l 475 971 z "},"ä":{"ha":660,"x_min":72,"x_max":568,"o":"m 146 588 q 238 624 197 613 q 339 635 278 635 q 459 591 418 635 q 500 474 500 547 l 500 390 l 313 390 q 139 337 206 390 q 72 189 72 283 q 131 40 72 97 q 299 -18 189 -18 q 414 7 360 -18 q 504 72 468 32 l 515 0 l 568 0 l 568 472 q 508 633 568 574 q 335 692 447 692 q 222 675 289 692 q 119 633 156 658 l 146 588 m 143 189 q 187 297 143 256 q 318 339 231 339 l 500 339 l 500 151 q 416 69 465 100 q 304 39 367 39 q 187 82 231 39 q 143 189 143 125 m 228 858 q 264 873 249 858 q 279 910 279 888 q 264 945 279 931 q 228 960 249 960 q 190 946 204 960 q 176 910 176 932 q 190 873 176 888 q 228 858 204 858 m 449 858 q 485 873 469 858 q 500 910 500 888 q 485 945 500 931 q 449 960 469 960 q 411 946 425 960 q 397 910 397 932 q 411 873 397 888 q 449 858 425 858 z "},"å":{"ha":660,"x_min":72,"x_max":568,"o":"m 146 588 q 238 624 197 613 q 339 635 278 635 q 459 591 418 635 q 500 474 500 547 l 500 390 l 313 390 q 139 337 206 390 q 72 189 72 283 q 131 40 72 97 q 299 -18 189 -18 q 414 7 360 -18 q 504 72 468 32 l 515 0 l 568 0 l 568 472 q 508 633 568 574 q 335 692 447 692 q 222 675 289 692 q 119 633 156 658 l 146 588 m 143 189 q 187 297 143 256 q 318 339 231 339 l 500 339 l 500 151 q 416 69 465 100 q 304 39 367 39 q 187 82 231 39 q 143 189 143 125 m 331 1054 q 244 1021 281 1054 q 207 938 207 988 q 243 857 207 889 q 331 825 279 825 q 417 857 382 825 q 453 938 453 889 q 417 1021 453 988 q 331 1054 381 1054 m 331 867 q 281 887 300 867 q 261 938 261 907 q 281 990 261 969 q 331 1011 300 1011 q 380 990 361 1011 q 399 938 399 969 q 380 887 399 907 q 331 867 361 867 z "},"ā":{"ha":660,"x_min":72,"x_max":568,"o":"m 146 588 q 238 624 197 613 q 339 635 278 635 q 459 591 418 635 q 500 474 500 547 l 500 390 l 313 390 q 139 337 206 390 q 72 189 72 283 q 131 40 72 97 q 299 -18 189 -18 q 414 7 360 -18 q 504 72 468 32 l 515 0 l 568 0 l 568 472 q 508 633 568 574 q 335 692 447 692 q 222 675 289 692 q 119 633 156 658 l 146 588 m 143 189 q 187 297 143 256 q 318 339 231 339 l 500 339 l 500 151 q 416 69 465 100 q 304 39 367 39 q 187 82 231 39 q 143 189 143 125 m 490 940 l 164 940 l 164 889 l 499 889 l 490 940 z "},"ă":{"ha":660,"x_min":72,"x_max":568,"o":"m 146 588 q 238 624 197 613 q 339 635 278 635 q 459 591 418 635 q 500 474 500 547 l 500 390 l 313 390 q 139 337 206 390 q 72 189 72 283 q 131 40 72 97 q 299 -18 189 -18 q 414 7 360 -18 q 504 72 468 32 l 515 0 l 568 0 l 568 472 q 508 633 568 574 q 335 692 447 692 q 222 675 289 692 q 119 633 156 658 l 146 588 m 143 189 q 187 297 143 256 q 318 339 231 339 l 500 339 l 500 151 q 416 69 465 100 q 304 39 367 39 q 187 82 231 39 q 143 189 143 125 m 454 1015 q 421 926 454 963 q 331 889 388 889 q 241 926 275 889 q 207 1015 207 964 l 150 1015 q 199 888 150 942 q 331 835 247 835 q 464 888 417 835 q 511 1015 511 940 l 454 1015 z "},"ą":{"ha":660,"x_min":72,"x_max":685,"o":"m 685 -246 q 637 -276 667 -264 q 574 -287 607 -287 q 469 -250 511 -287 q 428 -154 428 -212 q 452 -70 428 -115 q 514 6 476 -25 l 504 72 q 414 7 468 32 q 299 -18 360 -18 q 131 40 189 -18 q 72 189 72 97 q 139 337 72 283 q 313 390 206 390 l 500 390 l 500 474 q 459 591 500 547 q 339 635 418 635 q 238 624 278 635 q 146 588 197 613 l 119 633 q 222 675 156 658 q 335 692 289 692 q 508 633 447 692 q 568 472 568 574 l 568 0 l 565 0 q 510 -72 528 -35 q 492 -156 492 -110 q 519 -215 492 -193 q 578 -237 547 -237 q 654 -208 618 -237 l 685 -246 m 318 339 q 187 297 231 339 q 143 189 143 256 q 187 82 143 125 q 304 39 231 39 q 416 69 367 39 q 500 151 465 100 l 500 339 l 318 339 z "},"ç":{"ha":624,"x_min":56,"x_max":574,"o":"m 567 39 q 479 1 532 17 q 382 -17 426 -14 l 361 -71 q 454 -116 421 -82 q 488 -189 488 -150 q 446 -274 488 -242 q 336 -307 404 -307 q 278 -299 310 -307 q 229 -281 246 -292 l 250 -237 q 332 -257 297 -257 q 401 -237 374 -257 q 429 -192 429 -218 q 392 -133 429 -160 q 292 -107 354 -107 l 326 -17 q 126 92 196 -4 q 56 340 56 189 q 93 522 56 442 q 201 647 131 601 q 369 692 272 692 q 474 675 413 692 q 574 633 535 658 l 546 588 q 460 623 497 611 q 367 635 422 635 q 240 595 294 635 q 156 488 185 556 q 126 342 126 421 q 153 188 126 257 q 233 79 181 119 q 360 39 286 39 q 433 45 403 39 q 490 63 464 51 q 539 86 515 74 l 567 39 z "},"ć":{"ha":624,"x_min":56,"x_max":574,"o":"m 539 86 q 502 68 532 83 q 438 46 472 53 q 360 39 403 39 q 233 79 286 39 q 153 188 181 119 q 126 342 126 257 q 156 488 126 421 q 240 595 185 556 q 367 635 294 635 q 460 623 422 635 q 546 588 497 611 l 574 633 q 474 675 535 658 q 369 692 413 692 q 201 647 272 692 q 93 522 131 601 q 56 340 56 442 q 135 81 56 179 q 360 -18 214 -18 q 466 -2 406 -18 q 567 39 526 14 l 539 86 m 358 1031 l 281 833 l 325 818 l 443 1031 l 358 1031 z "},"č":{"ha":624,"x_min":56,"x_max":574,"o":"m 539 86 q 502 68 532 83 q 438 46 472 53 q 360 39 403 39 q 233 79 286 39 q 153 188 181 119 q 126 342 126 257 q 156 488 126 421 q 240 595 185 556 q 367 635 294 635 q 460 623 422 635 q 546 588 497 611 l 574 633 q 474 675 535 658 q 369 692 413 692 q 201 647 272 692 q 93 522 131 601 q 56 340 56 442 q 135 81 56 179 q 360 -18 214 -18 q 466 -2 406 -18 q 567 39 526 14 l 539 86 m 161 1017 l 308 818 l 364 818 l 510 1011 l 453 1031 l 338 867 l 218 1031 l 161 1017 z "},"ď":{"ha":883,"x_min":56,"x_max":842,"o":"m 600 979 l 600 0 l 563 0 l 538 60 q 346 -18 453 -18 q 128 79 201 -18 q 56 340 56 176 q 133 594 56 497 q 356 692 211 692 q 447 674 400 692 q 532 628 493 656 l 532 967 l 600 979 m 788 975 q 826 956 811 975 q 842 915 842 938 q 810 799 842 851 q 722 719 779 747 l 700 754 q 785 868 783 799 q 749 886 763 868 q 735 921 735 904 q 749 959 735 943 q 788 975 763 975 m 346 39 q 449 62 407 39 q 532 129 490 85 l 532 558 q 353 635 447 635 q 230 595 281 635 q 153 489 179 556 q 126 342 126 422 q 182 124 126 210 q 346 39 238 39 z "},"è":{"ha":667,"x_min":56,"x_max":611,"o":"m 611 336 q 578 519 611 438 q 486 646 546 600 q 350 692 426 692 q 131 595 207 692 q 56 340 56 499 q 135 79 56 176 q 375 -18 215 -18 q 487 -3 422 -18 q 590 35 551 11 l 563 86 q 475 51 519 64 q 364 39 431 39 q 187 122 246 39 q 126 336 128 206 l 611 336 m 129 388 q 192 565 139 494 q 340 635 246 635 q 481 566 433 635 q 539 388 528 497 l 129 388 m 318 1031 l 233 1031 l 351 818 l 396 833 l 318 1031 z "},"é":{"ha":667,"x_min":56,"x_max":611,"o":"m 611 336 q 578 519 611 438 q 486 646 546 600 q 350 692 426 692 q 131 595 207 692 q 56 340 56 499 q 135 79 56 176 q 375 -18 215 -18 q 487 -3 422 -18 q 590 35 551 11 l 563 86 q 475 51 519 64 q 364 39 431 39 q 187 122 246 39 q 126 336 128 206 l 611 336 m 129 388 q 192 565 139 494 q 340 635 246 635 q 481 566 433 635 q 539 388 528 497 l 129 388 m 365 1031 l 288 833 l 332 818 l 450 1031 l 365 1031 z "},"ê":{"ha":667,"x_min":56,"x_max":611,"o":"m 611 336 q 578 519 611 438 q 486 646 546 600 q 350 692 426 692 q 131 595 207 692 q 56 340 56 499 q 135 79 56 176 q 375 -18 215 -18 q 487 -3 422 -18 q 590 35 551 11 l 563 86 q 475 51 519 64 q 364 39 431 39 q 187 122 246 39 q 126 336 128 206 l 611 336 m 129 388 q 192 565 139 494 q 340 635 246 635 q 481 566 433 635 q 539 388 528 497 l 129 388 m 535 838 l 389 1031 l 333 1031 l 186 832 l 243 818 l 363 982 l 478 818 l 535 838 z "},"ë":{"ha":667,"x_min":56,"x_max":611,"o":"m 611 336 q 578 519 611 438 q 486 646 546 600 q 350 692 426 692 q 131 595 207 692 q 56 340 56 499 q 135 79 56 176 q 375 -18 215 -18 q 487 -3 422 -18 q 590 35 551 11 l 563 86 q 475 51 519 64 q 364 39 431 39 q 187 122 246 39 q 126 336 128 206 l 611 336 m 129 388 q 192 565 139 494 q 340 635 246 635 q 481 566 433 635 q 539 388 528 497 l 129 388 m 242 858 q 278 873 263 858 q 293 910 293 888 q 278 945 293 931 q 242 960 263 960 q 204 946 218 960 q 190 910 190 932 q 204 873 190 888 q 242 858 218 858 m 463 858 q 499 873 483 858 q 514 910 514 888 q 499 945 514 931 q 463 960 483 960 q 425 946 439 960 q 411 910 411 932 q 425 873 411 888 q 463 858 439 858 z "},"ē":{"ha":667,"x_min":56,"x_max":611,"o":"m 611 336 q 578 519 611 438 q 486 646 546 600 q 350 692 426 692 q 131 595 207 692 q 56 340 56 499 q 135 79 56 176 q 375 -18 215 -18 q 487 -3 422 -18 q 590 35 551 11 l 563 86 q 475 51 519 64 q 364 39 431 39 q 187 122 246 39 q 126 336 128 206 l 611 336 m 129 388 q 192 565 139 494 q 340 635 246 635 q 481 566 433 635 q 539 388 528 497 l 129 388 m 504 940 l 178 940 l 178 889 l 513 889 l 504 940 z "},"ė":{"ha":667,"x_min":56,"x_max":611,"o":"m 611 336 q 578 519 611 438 q 486 646 546 600 q 350 692 426 692 q 131 595 207 692 q 56 340 56 499 q 135 79 56 176 q 375 -18 215 -18 q 487 -3 422 -18 q 590 35 551 11 l 563 86 q 475 51 519 64 q 364 39 431 39 q 187 122 246 39 q 126 336 128 206 l 611 336 m 129 388 q 192 565 139 494 q 340 635 246 635 q 481 566 433 635 q 539 388 528 497 l 129 388 m 344 858 q 383 874 367 858 q 399 911 399 889 q 383 949 399 933 q 344 964 367 964 q 306 949 321 964 q 292 911 292 933 q 306 874 292 889 q 344 858 321 858 z "},"ę":{"ha":667,"x_min":56,"x_max":611,"o":"m 493 -237 q 569 -208 533 -237 l 600 -246 q 552 -276 582 -264 q 489 -287 522 -287 q 385 -250 426 -287 q 343 -154 343 -212 q 360 -84 343 -121 q 406 -17 376 -47 q 375 -18 394 -18 q 135 79 215 -18 q 56 340 56 176 q 131 595 56 499 q 350 692 207 692 q 486 646 426 692 q 578 519 546 600 q 611 336 611 438 l 126 336 q 187 122 128 206 q 364 39 246 39 q 475 51 431 39 q 563 86 519 64 l 590 35 q 474 -7 551 11 q 407 -156 407 -69 q 435 -215 407 -193 q 493 -237 463 -237 m 340 635 q 192 565 246 635 q 129 388 139 494 l 539 388 q 481 566 528 497 q 340 635 433 635 z "},"ě":{"ha":667,"x_min":56,"x_max":611,"o":"m 611 336 q 578 519 611 438 q 486 646 546 600 q 350 692 426 692 q 131 595 207 692 q 56 340 56 499 q 135 79 56 176 q 375 -18 215 -18 q 487 -3 422 -18 q 590 35 551 11 l 563 86 q 475 51 519 64 q 364 39 431 39 q 187 122 246 39 q 126 336 128 206 l 611 336 m 129 388 q 192 565 139 494 q 340 635 246 635 q 481 566 433 635 q 539 388 528 497 l 129 388 m 168 1017 l 315 818 l 371 818 l 517 1011 l 460 1031 l 344 867 l 225 1031 l 168 1017 z "},"ğ":{"ha":706,"x_min":56,"x_max":600,"o":"m 600 -86 q 531 -255 600 -190 q 333 -319 461 -319 q 213 -303 286 -319 q 104 -262 140 -286 l 131 -214 q 229 -251 186 -239 q 331 -262 272 -262 q 476 -221 419 -262 q 532 -100 532 -179 l 532 54 q 346 -18 451 -18 q 128 79 201 -18 q 56 340 56 176 q 133 594 56 497 q 356 692 211 692 q 456 669 404 692 q 546 617 507 647 l 563 674 l 600 674 l 600 -86 m 346 39 q 449 62 407 39 q 532 129 490 85 l 532 558 q 353 635 447 635 q 230 595 281 635 q 153 489 179 556 q 126 342 126 422 q 182 124 126 210 q 346 39 238 39 m 471 1015 q 438 926 471 963 q 347 889 404 889 q 258 926 292 889 q 224 1015 224 964 l 167 1015 q 215 888 167 942 q 347 835 264 835 q 481 888 433 835 q 528 1015 528 940 l 471 1015 z "},"ì":{"ha":263,"x_min":19,"x_max":182,"o":"m 97 674 l 97 0 l 165 0 l 165 674 l 97 674 m 104 1031 l 19 1031 l 138 818 l 182 833 l 104 1031 z "},"í":{"ha":263,"x_min":74,"x_max":236,"o":"m 97 674 l 97 0 l 165 0 l 165 674 l 97 674 m 151 1031 l 74 833 l 118 818 l 236 1031 l 151 1031 z "},"î":{"ha":263,"x_min":-28,"x_max":321,"o":"m 97 674 l 97 0 l 165 0 l 165 674 l 97 674 m 321 838 l 175 1031 l 119 1031 l -28 832 l 29 818 l 149 982 l 264 818 l 321 838 z "},"ï":{"ha":263,"x_min":-24,"x_max":300,"o":"m 97 674 l 97 0 l 165 0 l 165 674 l 97 674 m 28 858 q 64 873 49 858 q 79 910 79 888 q 64 945 79 931 q 28 960 49 960 q -10 946 4 960 q -24 910 -24 932 q -10 873 -24 888 q 28 858 4 858 m 249 858 q 285 873 269 858 q 300 910 300 888 q 285 945 300 931 q 249 960 269 960 q 211 946 225 960 q 197 910 197 932 q 211 873 197 888 q 249 858 225 858 z "},"ī":{"ha":263,"x_min":-36,"x_max":299,"o":"m 97 674 l 97 0 l 165 0 l 165 674 l 97 674 m 290 940 l -36 940 l -36 889 l 299 889 l 290 940 z "},"į":{"ha":263,"x_min":14,"x_max":271,"o":"m 131 858 q 92 874 107 858 q 78 911 78 889 q 92 949 78 933 q 131 964 107 964 q 169 949 153 964 q 185 911 185 933 q 169 874 185 889 q 131 858 153 858 m 271 -246 q 223 -276 253 -264 q 160 -287 193 -287 q 56 -250 97 -287 q 14 -154 14 -212 q 38 -72 14 -115 q 97 3 61 -28 l 97 674 l 165 674 l 165 0 l 151 0 q 96 -72 114 -35 q 78 -156 78 -110 q 106 -215 78 -193 q 164 -237 133 -237 q 240 -208 204 -237 l 271 -246 z "},"ľ":{"ha":463,"x_min":111,"x_max":421,"o":"m 111 967 l 111 0 l 179 0 l 179 981 l 111 967 m 367 975 q 328 959 342 975 q 314 921 314 943 q 328 886 314 904 q 364 868 342 868 q 279 754 363 799 l 301 719 q 390 799 358 747 q 421 915 421 851 q 406 956 421 938 q 367 975 390 975 z "},"ñ":{"ha":694,"x_min":97,"x_max":603,"o":"m 165 499 q 408 635 299 635 q 507 590 479 635 q 535 468 535 546 l 535 0 l 603 0 l 603 468 q 554 631 603 571 q 403 692 506 692 q 275 656 342 692 q 164 568 208 619 l 150 674 l 97 674 l 97 0 l 165 0 l 165 499 m 503 971 q 484 917 500 938 q 440 897 468 897 q 374 938 406 897 q 283 976 343 976 q 201 944 233 976 q 168 850 168 913 l 222 850 q 285 924 229 924 q 357 885 319 924 q 440 844 393 844 q 523 876 490 844 q 556 971 556 908 l 503 971 z "},"ń":{"ha":694,"x_min":97,"x_max":603,"o":"m 165 499 q 408 635 299 635 q 507 590 479 635 q 535 468 535 546 l 535 0 l 603 0 l 603 468 q 554 631 603 571 q 403 692 506 692 q 275 656 342 692 q 164 568 208 619 l 150 674 l 97 674 l 97 0 l 165 0 l 165 499 m 379 1031 l 301 833 l 346 818 l 464 1031 l 379 1031 z "},"ň":{"ha":694,"x_min":97,"x_max":603,"o":"m 165 499 q 408 635 299 635 q 507 590 479 635 q 535 468 535 546 l 535 0 l 603 0 l 603 468 q 554 631 603 571 q 403 692 506 692 q 275 656 342 692 q 164 568 208 619 l 150 674 l 97 674 l 97 0 l 165 0 l 165 499 m 182 1017 l 329 818 l 385 818 l 531 1011 l 474 1031 l 358 867 l 239 1031 l 182 1017 z "},"ò":{"ha":726,"x_min":56,"x_max":671,"o":"m 671 333 q 634 153 671 233 q 526 28 597 74 q 360 -18 456 -18 q 135 81 214 -17 q 56 340 56 179 q 92 520 56 440 q 200 646 129 600 q 368 692 271 692 q 592 592 514 690 q 671 333 671 494 m 360 39 q 487 78 432 39 q 571 185 542 118 q 600 332 600 253 q 573 485 600 417 q 493 594 546 554 q 367 635 440 635 q 240 595 294 635 q 156 488 185 556 q 126 342 126 421 q 153 188 126 257 q 233 79 181 119 q 360 39 286 39 m 339 1031 l 254 1031 l 372 818 l 417 833 l 339 1031 z "},"ó":{"ha":726,"x_min":56,"x_max":671,"o":"m 671 333 q 634 153 671 233 q 526 28 597 74 q 360 -18 456 -18 q 135 81 214 -17 q 56 340 56 179 q 92 520 56 440 q 200 646 129 600 q 368 692 271 692 q 592 592 514 690 q 671 333 671 494 m 360 39 q 487 78 432 39 q 571 185 542 118 q 600 332 600 253 q 573 485 600 417 q 493 594 546 554 q 367 635 440 635 q 240 595 294 635 q 156 488 185 556 q 126 342 126 421 q 153 188 126 257 q 233 79 181 119 q 360 39 286 39 m 386 1031 l 308 833 l 353 818 l 471 1031 l 386 1031 z "},"ô":{"ha":726,"x_min":56,"x_max":671,"o":"m 671 333 q 634 153 671 233 q 526 28 597 74 q 360 -18 456 -18 q 135 81 214 -17 q 56 340 56 179 q 92 520 56 440 q 200 646 129 600 q 368 692 271 692 q 592 592 514 690 q 671 333 671 494 m 360 39 q 487 78 432 39 q 571 185 542 118 q 600 332 600 253 q 573 485 600 417 q 493 594 546 554 q 367 635 440 635 q 240 595 294 635 q 156 488 185 556 q 126 342 126 421 q 153 188 126 257 q 233 79 181 119 q 360 39 286 39 m 556 838 l 410 1031 l 354 1031 l 207 832 l 264 818 l 383 982 l 499 818 l 556 838 z "},"õ":{"ha":726,"x_min":56,"x_max":671,"o":"m 671 333 q 634 153 671 233 q 526 28 597 74 q 360 -18 456 -18 q 135 81 214 -17 q 56 340 56 179 q 92 520 56 440 q 200 646 129 600 q 368 692 271 692 q 592 592 514 690 q 671 333 671 494 m 360 39 q 487 78 432 39 q 571 185 542 118 q 600 332 600 253 q 573 485 600 417 q 493 594 546 554 q 367 635 440 635 q 240 595 294 635 q 156 488 185 556 q 126 342 126 421 q 153 188 126 257 q 233 79 181 119 q 360 39 286 39 m 510 971 q 491 917 507 938 q 447 897 475 897 q 381 938 413 897 q 290 976 350 976 q 208 944 240 976 q 175 850 175 913 l 229 850 q 292 924 236 924 q 364 885 326 924 q 447 844 400 844 q 530 876 497 844 q 563 971 563 908 l 510 971 z "},"ö":{"ha":726,"x_min":56,"x_max":671,"o":"m 671 333 q 634 153 671 233 q 526 28 597 74 q 360 -18 456 -18 q 135 81 214 -17 q 56 340 56 179 q 92 520 56 440 q 200 646 129 600 q 368 692 271 692 q 592 592 514 690 q 671 333 671 494 m 360 39 q 487 78 432 39 q 571 185 542 118 q 600 332 600 253 q 573 485 600 417 q 493 594 546 554 q 367 635 440 635 q 240 595 294 635 q 156 488 185 556 q 126 342 126 421 q 153 188 126 257 q 233 79 181 119 q 360 39 286 39 m 263 858 q 299 873 283 858 q 314 910 314 888 q 299 945 314 931 q 263 960 283 960 q 225 946 239 960 q 211 910 211 932 q 225 873 211 888 q 263 858 239 858 m 483 858 q 519 873 504 858 q 535 910 535 888 q 519 945 535 931 q 483 960 504 960 q 446 946 460 960 q 432 910 432 932 q 446 873 432 888 q 483 858 460 858 z "},"ō":{"ha":726,"x_min":56,"x_max":671,"o":"m 671 333 q 634 153 671 233 q 526 28 597 74 q 360 -18 456 -18 q 135 81 214 -17 q 56 340 56 179 q 92 520 56 440 q 200 646 129 600 q 368 692 271 692 q 592 592 514 690 q 671 333 671 494 m 360 39 q 487 78 432 39 q 571 185 542 118 q 600 332 600 253 q 573 485 600 417 q 493 594 546 554 q 367 635 440 635 q 240 595 294 635 q 156 488 185 556 q 126 342 126 421 q 153 188 126 257 q 233 79 181 119 q 360 39 286 39 m 525 940 l 199 940 l 199 889 l 533 889 l 525 940 z "},"ő":{"ha":726,"x_min":56,"x_max":671,"o":"m 671 333 q 634 153 671 233 q 526 28 597 74 q 360 -18 456 -18 q 135 81 214 -17 q 56 340 56 179 q 92 520 56 440 q 200 646 129 600 q 368 692 271 692 q 592 592 514 690 q 671 333 671 494 m 360 39 q 487 78 432 39 q 571 185 542 118 q 600 332 600 253 q 573 485 600 417 q 493 594 546 554 q 367 635 440 635 q 240 595 294 635 q 156 488 185 556 q 126 342 126 421 q 153 188 126 257 q 233 79 181 119 q 360 39 286 39 m 321 1031 l 243 833 l 288 818 l 406 1031 l 321 1031 m 499 1031 l 421 833 l 465 818 l 583 1031 l 499 1031 z "},"ŕ":{"ha":419,"x_min":97,"x_max":406,"o":"m 165 496 q 277 582 208 543 q 406 621 346 621 l 382 674 q 272 640 335 674 q 161 567 208 606 l 136 674 l 97 674 l 97 0 l 165 0 l 165 496 m 233 1031 l 156 833 l 200 818 l 318 1031 l 233 1031 z "},"ř":{"ha":419,"x_min":36,"x_max":406,"o":"m 165 496 q 277 582 208 543 q 406 621 346 621 l 382 674 q 272 640 335 674 q 161 567 208 606 l 136 674 l 97 674 l 97 0 l 165 0 l 165 496 m 36 1017 l 183 818 l 239 818 l 385 1011 l 328 1031 l 213 867 l 93 1031 l 36 1017 z "},"ś":{"ha":564,"x_min":58,"x_max":508,"o":"m 58 35 q 155 -3 94 11 q 263 -18 215 -18 q 508 171 508 -18 q 453 284 508 236 q 304 369 399 332 q 179 435 224 401 q 135 511 135 468 q 178 598 135 561 q 292 635 222 635 q 381 623 346 635 q 464 588 415 611 l 492 636 q 402 676 458 660 q 301 692 346 692 q 131 640 192 692 q 69 506 69 588 q 265 318 69 394 q 443 165 443 249 q 396 73 443 107 q 265 39 349 39 q 176 53 218 39 q 83 92 133 67 l 58 35 m 318 1031 l 240 833 l 285 818 l 403 1031 l 318 1031 z "},"š":{"ha":564,"x_min":58,"x_max":508,"o":"m 58 35 q 155 -3 94 11 q 263 -18 215 -18 q 508 171 508 -18 q 453 284 508 236 q 304 369 399 332 q 179 435 224 401 q 135 511 135 468 q 178 598 135 561 q 292 635 222 635 q 381 623 346 635 q 464 588 415 611 l 492 636 q 402 676 458 660 q 301 692 346 692 q 131 640 192 692 q 69 506 69 588 q 265 318 69 394 q 443 165 443 249 q 396 73 443 107 q 265 39 349 39 q 176 53 218 39 q 83 92 133 67 l 58 35 m 121 1017 l 268 818 l 324 818 l 469 1011 l 413 1031 l 297 867 l 178 1031 l 121 1017 z "},"ť":{"ha":572,"x_min":28,"x_max":531,"o":"m 476 975 q 438 959 451 975 q 424 921 424 943 q 438 886 424 904 q 474 868 451 868 q 389 754 472 799 l 411 719 q 499 799 468 747 q 531 915 531 851 q 515 956 531 938 q 476 975 500 975 m 196 865 l 128 835 l 128 653 l 28 653 l 28 601 l 128 601 l 128 161 q 167 28 128 75 q 272 -18 206 -18 q 326 -11 299 -18 q 364 -1 360 -1 l 347 51 q 290 39 318 39 q 219 77 243 39 q 196 171 196 115 l 196 601 l 347 601 l 318 653 l 196 653 l 196 865 z "},"ù":{"ha":694,"x_min":92,"x_max":597,"o":"m 529 175 q 286 39 396 39 q 188 83 215 39 q 160 206 160 128 l 160 674 l 92 674 l 92 206 q 140 42 92 103 q 292 -18 189 -18 q 419 18 353 -18 q 531 106 486 54 l 544 0 l 597 0 l 597 674 l 529 674 l 529 175 m 314 1031 l 229 1031 l 347 818 l 392 833 l 314 1031 z "},"ú":{"ha":694,"x_min":92,"x_max":597,"o":"m 529 175 q 286 39 396 39 q 188 83 215 39 q 160 206 160 128 l 160 674 l 92 674 l 92 206 q 140 42 92 103 q 292 -18 189 -18 q 419 18 353 -18 q 531 106 486 54 l 544 0 l 597 0 l 597 674 l 529 674 l 529 175 m 361 1031 l 283 833 l 328 818 l 446 1031 l 361 1031 z "},"û":{"ha":694,"x_min":92,"x_max":597,"o":"m 529 175 q 286 39 396 39 q 188 83 215 39 q 160 206 160 128 l 160 674 l 92 674 l 92 206 q 140 42 92 103 q 292 -18 189 -18 q 419 18 353 -18 q 531 106 486 54 l 544 0 l 597 0 l 597 674 l 529 674 l 529 175 m 531 838 l 385 1031 l 329 1031 l 182 832 l 239 818 l 358 982 l 474 818 l 531 838 z "},"ü":{"ha":694,"x_min":92,"x_max":597,"o":"m 529 175 q 286 39 396 39 q 188 83 215 39 q 160 206 160 128 l 160 674 l 92 674 l 92 206 q 140 42 92 103 q 292 -18 189 -18 q 419 18 353 -18 q 531 106 486 54 l 544 0 l 597 0 l 597 674 l 529 674 l 529 175 m 238 858 q 274 873 258 858 q 289 910 289 888 q 274 945 289 931 q 238 960 258 960 q 200 946 214 960 q 186 910 186 932 q 200 873 186 888 q 238 858 214 858 m 458 858 q 494 873 479 858 q 510 910 510 888 q 494 945 510 931 q 458 960 479 960 q 421 946 435 960 q 407 910 407 932 q 421 873 407 888 q 458 858 435 858 z "},"ū":{"ha":694,"x_min":92,"x_max":597,"o":"m 529 175 q 286 39 396 39 q 188 83 215 39 q 160 206 160 128 l 160 674 l 92 674 l 92 206 q 140 42 92 103 q 292 -18 189 -18 q 419 18 353 -18 q 531 106 486 54 l 544 0 l 597 0 l 597 674 l 529 674 l 529 175 m 500 940 l 174 940 l 174 889 l 508 889 l 500 940 z "},"ů":{"ha":694,"x_min":92,"x_max":597,"o":"m 529 175 q 286 39 396 39 q 188 83 215 39 q 160 206 160 128 l 160 674 l 92 674 l 92 206 q 140 42 92 103 q 292 -18 189 -18 q 419 18 353 -18 q 531 106 486 54 l 544 0 l 597 0 l 597 674 l 529 674 l 529 175 m 340 1054 q 253 1021 290 1054 q 217 938 217 988 q 253 857 217 889 q 340 825 289 825 q 427 857 392 825 q 463 938 463 889 q 426 1021 463 988 q 340 1054 390 1054 m 340 867 q 290 887 310 867 q 271 938 271 907 q 290 990 271 969 q 340 1011 310 1011 q 390 990 371 1011 q 408 938 408 969 q 390 887 408 907 q 340 867 371 867 z "},"ű":{"ha":694,"x_min":92,"x_max":597,"o":"m 529 175 q 286 39 396 39 q 188 83 215 39 q 160 206 160 128 l 160 674 l 92 674 l 92 206 q 140 42 92 103 q 292 -18 189 -18 q 419 18 353 -18 q 531 106 486 54 l 544 0 l 597 0 l 597 674 l 529 674 l 529 175 m 296 1031 l 218 833 l 263 818 l 381 1031 l 296 1031 m 474 1031 l 396 833 l 440 818 l 558 1031 l 474 1031 z "},"ų":{"ha":694,"x_min":92,"x_max":717,"o":"m 717 -246 q 669 -276 699 -264 q 606 -287 639 -287 q 501 -250 543 -287 q 460 -154 460 -212 q 483 -70 460 -114 q 544 4 507 -26 l 531 106 q 419 18 486 54 q 292 -18 353 -18 q 140 42 189 -18 q 92 206 92 103 l 92 674 l 160 674 l 160 206 q 188 83 160 128 q 286 39 215 39 q 529 175 396 39 l 529 674 l 597 674 l 597 0 q 542 -72 560 -35 q 524 -156 524 -110 q 551 -215 524 -193 q 610 -237 579 -237 q 686 -208 650 -237 l 717 -246 z "},"ý":{"ha":597,"x_min":14,"x_max":583,"o":"m 225 -136 q 176 -207 208 -181 q 88 -251 143 -233 l 94 -304 q 210 -251 161 -290 q 279 -156 258 -212 l 583 674 l 514 674 l 300 78 l 78 682 l 14 657 l 268 0 l 225 -136 m 311 1031 l 233 833 l 278 818 l 396 1031 l 311 1031 z "},"ÿ":{"ha":597,"x_min":14,"x_max":583,"o":"m 225 -136 q 176 -207 208 -181 q 88 -251 143 -233 l 94 -304 q 210 -251 161 -290 q 279 -156 258 -212 l 583 674 l 514 674 l 300 78 l 78 682 l 14 657 l 268 0 l 225 -136 m 188 858 q 224 873 208 858 q 239 910 239 888 q 224 945 239 931 q 188 960 208 960 q 150 946 164 960 q 136 910 136 932 q 150 873 136 888 q 188 858 164 858 m 408 858 q 444 873 429 858 q 460 910 460 888 q 444 945 460 931 q 408 960 429 960 q 371 946 385 960 q 357 910 357 932 q 371 873 357 888 q 408 858 385 858 z "},"ź":{"ha":600,"x_min":39,"x_max":561,"o":"m 101 622 l 486 622 l 39 43 l 50 0 l 553 0 l 539 51 l 110 51 l 561 629 l 557 674 l 79 674 l 101 622 m 332 1031 l 254 833 l 299 818 l 417 1031 l 332 1031 z "},"ż":{"ha":600,"x_min":39,"x_max":561,"o":"m 101 622 l 486 622 l 39 43 l 50 0 l 553 0 l 539 51 l 110 51 l 561 629 l 557 674 l 79 674 l 101 622 m 311 858 q 349 874 333 858 q 365 911 365 889 q 349 949 365 933 q 311 964 333 964 q 273 949 288 964 q 258 911 258 933 q 273 874 258 889 q 311 858 288 858 z "},"ž":{"ha":600,"x_min":39,"x_max":561,"o":"m 101 622 l 486 622 l 39 43 l 50 0 l 553 0 l 539 51 l 110 51 l 561 629 l 557 674 l 79 674 l 101 622 m 135 1017 l 282 818 l 338 818 l 483 1011 l 426 1031 l 311 867 l 192 1031 l 135 1017 z "},"ş":{"ha":564,"x_min":58,"x_max":508,"o":"m 508 171 q 285 -18 508 -8 l 264 -71 q 357 -116 324 -82 q 390 -189 390 -150 q 349 -274 390 -242 q 239 -307 307 -307 q 181 -299 213 -307 q 132 -281 149 -292 l 153 -237 q 235 -257 200 -257 q 304 -237 276 -257 q 332 -192 332 -218 q 294 -133 332 -160 q 194 -107 257 -107 l 229 -17 q 135 1 183 -12 q 58 35 88 15 l 83 92 q 176 53 133 67 q 265 39 218 39 q 396 73 349 39 q 443 165 443 107 q 265 318 443 249 q 69 506 69 394 q 131 640 69 588 q 301 692 192 692 q 402 676 346 692 q 492 636 458 660 l 464 588 q 381 623 415 611 q 292 635 346 635 q 178 598 222 635 q 135 511 135 561 q 179 435 135 468 q 304 369 224 401 q 453 284 399 332 q 508 171 508 236 z "},"ţ":{"ha":406,"x_min":28,"x_max":388,"o":"m 261 -71 q 354 -116 321 -82 q 388 -189 388 -150 q 346 -274 388 -242 q 236 -307 304 -307 q 178 -299 210 -307 q 129 -281 146 -292 l 150 -237 q 232 -257 197 -257 q 301 -237 274 -257 q 329 -192 329 -218 q 292 -133 329 -160 q 192 -107 254 -107 l 228 -12 q 154 47 181 3 q 128 161 128 90 l 128 601 l 28 601 l 28 653 l 128 653 l 128 835 l 196 865 l 196 653 l 318 653 l 347 601 l 196 601 l 196 171 q 219 77 196 115 q 290 39 243 39 q 347 51 318 39 l 364 -1 q 326 -11 360 -1 q 282 -18 313 -15 l 261 -71 z "},"ș":{"ha":564,"x_min":58,"x_max":508,"o":"m 58 35 q 155 -3 94 11 q 263 -18 215 -18 q 508 171 508 -18 q 453 284 508 236 q 304 369 399 332 q 179 435 224 401 q 135 511 135 468 q 178 598 135 561 q 292 635 222 635 q 381 623 346 635 q 464 588 415 611 l 492 636 q 402 676 458 660 q 301 692 346 692 q 131 640 192 692 q 69 506 69 588 q 265 318 69 394 q 443 165 443 249 q 396 73 443 107 q 265 39 349 39 q 176 53 218 39 q 83 92 133 67 l 58 35 m 264 -29 q 225 -45 239 -29 q 211 -83 211 -61 q 225 -118 211 -100 q 261 -136 239 -136 q 176 -250 260 -206 l 199 -285 q 287 -205 256 -257 q 318 -89 318 -153 q 303 -48 318 -67 q 264 -29 288 -29 z "},"­":{"ha":167,"x_min":0,"x_max":0,"o":""},"µ":{"ha":708,"x_min":106,"x_max":611,"o":"m 611 0 l 558 0 l 544 106 q 433 18 500 54 q 306 -18 367 -18 q 174 22 225 -18 l 174 -289 l 106 -304 l 106 674 l 174 674 l 174 206 q 201 83 174 128 q 300 39 229 39 q 543 175 410 39 l 543 674 l 611 674 l 611 0 z "},"ˉ":{"ha":363,"x_min":14,"x_max":349,"o":"m 340 957 l 14 957 l 14 903 l 349 903 l 340 957 z "},"ℓ":{"ha":469,"x_min":14,"x_max":428,"o":"m 31 257 q 121 321 63 278 l 121 176 q 169 35 121 88 q 297 -17 218 -17 q 340 -9 315 -17 q 378 8 365 -1 l 361 60 q 341 49 358 58 q 299 40 324 40 q 218 78 247 40 q 189 169 189 117 l 189 381 q 360 588 293 479 q 428 797 428 697 q 385 927 428 879 q 271 975 342 975 q 161 925 201 975 q 121 786 121 875 l 121 404 q 14 322 63 356 l 31 257 m 189 786 q 212 885 189 851 q 272 918 235 918 q 333 885 308 918 q 358 794 358 853 q 313 632 358 715 q 189 468 267 549 l 189 786 z "},"Ω":{"ha":975,"x_min":69,"x_max":906,"o":"m 833 469 q 810 310 833 394 q 744 158 786 226 q 651 61 703 90 l 644 0 l 897 0 l 903 54 l 736 54 q 859 229 813 111 q 906 468 906 347 q 856 722 906 608 q 713 901 807 835 q 490 967 619 967 q 267 901 363 967 q 121 721 172 835 q 69 468 69 607 q 116 230 69 349 q 238 54 163 111 l 72 54 l 78 0 l 335 0 l 328 61 q 235 158 276 90 q 169 310 193 226 q 146 469 146 394 q 190 690 146 590 q 314 847 235 789 q 490 906 393 906 q 666 847 588 906 q 789 690 744 789 q 833 469 833 590 z "},"∆":{"ha":794,"x_min":14,"x_max":781,"o":"m 781 0 l 781 15 l 421 944 l 357 944 l 14 0 l 781 0 m 390 853 l 690 54 l 101 54 l 390 853 z "},"∕":{"ha":521,"x_min":14,"x_max":507,"o":"m 78 -6 l 507 981 l 442 986 l 14 0 l 78 -6 z "},"∙":{"ha":254,"x_min":42,"x_max":213,"o":"m 128 368 q 188 393 163 368 q 213 453 213 418 q 188 514 213 489 q 128 539 163 539 q 67 514 92 539 q 42 453 42 489 q 67 393 42 418 q 128 368 92 368 z "},"₺":{"ha":682,"x_min":0,"x_max":654,"o":"m 243 0 q 440 63 344 0 q 594 233 535 126 q 654 460 654 339 l 590 460 q 538 266 590 360 q 405 113 486 172 q 243 54 324 54 l 243 554 l 478 638 l 468 690 l 243 611 l 243 704 l 478 788 l 468 840 l 243 761 l 243 981 l 175 967 l 175 736 l 0 675 l 8 621 l 175 679 l 175 586 l 0 525 l 8 471 l 175 529 l 175 0 l 243 0 z "},"₽":{"ha":761,"x_min":51,"x_max":706,"o":"m 207 283 l 608 283 l 615 229 l 207 229 l 207 0 l 139 0 l 139 229 l 58 229 l 51 283 l 139 283 l 139 367 l 58 367 l 51 421 l 139 421 l 139 944 l 365 944 q 614 876 522 944 q 706 660 706 807 q 606 440 706 514 q 350 367 507 367 l 207 367 l 207 283 m 367 421 q 560 483 483 421 q 636 658 636 544 q 569 833 636 776 q 382 889 501 889 l 207 889 l 207 421 l 367 421 z "},"¢":{"ha":624,"x_min":56,"x_max":574,"o":"m 567 39 q 485 3 533 18 q 394 -15 438 -11 l 394 -154 l 333 -154 l 333 -17 q 128 90 200 -7 q 56 340 56 186 q 129 581 56 485 q 333 690 203 676 l 333 826 l 394 840 l 394 690 q 488 670 438 686 q 574 633 539 654 l 546 588 q 460 623 497 611 q 367 635 422 635 q 240 595 294 635 q 156 488 185 556 q 126 342 126 421 q 153 188 126 257 q 233 79 181 119 q 360 39 286 39 q 433 45 403 39 q 490 63 464 51 q 539 86 515 74 l 567 39 z "},"£":{"ha":592,"x_min":83,"x_max":578,"o":"m 569 54 l 206 54 q 243 112 233 78 q 253 199 253 146 l 253 464 l 478 464 l 447 515 l 253 515 l 253 779 q 349 893 253 893 q 379 889 361 893 q 406 881 397 885 l 422 932 q 331 950 375 950 q 222 899 258 950 q 185 757 185 847 l 185 515 l 83 515 l 86 464 l 185 464 l 185 169 q 94 54 185 56 l 97 0 l 578 0 l 569 54 z "},"¤":{"ha":918,"x_min":42,"x_max":876,"o":"m 228 67 q 451 -18 317 -18 q 581 6 521 -18 q 685 71 642 29 l 836 -75 l 876 -31 l 726 117 q 779 217 761 161 q 797 332 797 272 q 780 452 797 394 q 731 557 763 510 l 876 701 l 836 746 l 690 604 q 465 692 600 692 q 335 669 396 692 q 229 603 275 646 l 82 746 l 42 701 l 189 557 q 121 342 121 465 q 188 114 121 208 l 42 -31 l 82 -75 l 228 67 m 726 332 q 691 185 726 251 q 593 78 656 118 q 451 39 531 39 q 318 78 378 39 q 225 187 258 118 q 192 342 192 256 q 227 487 192 419 q 325 594 263 554 q 465 635 388 635 q 605 594 546 635 q 695 483 664 553 q 726 332 726 414 z "},"¥":{"ha":736,"x_min":14,"x_max":722,"o":"m 394 179 l 643 179 l 650 125 l 394 125 l 394 0 l 326 0 l 326 125 l 93 125 l 86 179 l 326 179 l 326 360 l 93 360 l 86 414 l 304 414 l 14 928 l 82 957 l 360 446 l 643 944 l 722 944 l 414 414 l 643 414 l 650 360 l 394 360 l 394 179 z "},"€":{"ha":824,"x_min":0,"x_max":782,"o":"m 540 40 q 656 51 608 40 q 749 82 704 63 l 782 32 q 674 -4 743 11 q 547 -19 606 -19 q 280 72 383 -19 q 142 314 176 164 l 7 314 l 0 368 l 132 368 q 125 467 125 421 q 132 565 125 513 l 7 565 l 0 619 l 143 619 q 288 869 179 775 q 556 964 396 964 q 677 950 607 964 q 782 913 747 936 l 754 863 q 661 894 701 885 q 553 904 621 904 q 344 827 433 903 q 219 619 254 751 l 557 619 l 564 565 l 208 565 q 201 468 201 514 q 210 368 201 417 l 557 368 l 564 314 l 222 314 q 339 116 256 192 q 540 40 422 40 z "},"$":{"ha":742,"x_min":69,"x_max":644,"o":"m 268 -14 q 151 9 208 -7 q 76 40 94 25 l 97 94 q 203 56 142 72 q 328 40 264 40 q 460 65 404 40 q 545 132 517 90 q 574 222 574 174 q 513 350 574 296 q 322 458 453 404 q 132 578 194 511 q 69 743 69 646 q 122 881 69 822 q 268 958 175 939 l 268 1093 l 324 1107 l 324 964 q 356 967 338 967 q 417 963 388 967 l 417 1097 l 474 1111 l 474 953 q 589 913 535 939 l 558 863 q 465 897 508 885 q 358 910 422 910 q 201 860 261 910 q 142 736 142 810 q 203 603 142 660 q 393 493 264 547 q 584 374 524 439 q 644 218 644 310 q 601 85 644 142 q 474 1 557 28 l 474 -154 l 417 -154 l 417 -11 q 329 -18 372 -18 l 324 -18 l 324 -154 l 268 -154 l 268 -14 z "},",":{"ha":211,"x_min":28,"x_max":169,"o":"m 115 106 q 76 90 90 106 q 63 51 63 74 q 76 17 63 35 q 113 -1 90 -1 q 28 -115 111 -71 l 50 -150 q 138 -70 107 -122 q 169 46 169 -18 q 154 87 169 68 q 115 106 139 106 z "},".":{"ha":190,"x_min":42,"x_max":149,"o":"m 94 0 q 133 15 117 0 q 149 53 149 31 q 133 90 149 75 q 94 106 117 106 q 56 90 71 106 q 42 53 42 75 q 56 15 42 31 q 94 0 71 0 z "},"!":{"ha":192,"x_min":42,"x_max":150,"o":"m 150 975 l 75 975 l 75 257 l 138 228 l 150 975 m 94 106 q 56 90 71 106 q 42 53 42 75 q 56 15 42 31 q 94 0 71 0 q 133 15 117 0 q 149 53 149 31 q 133 90 149 75 q 94 106 117 106 z "},"¡":{"ha":192,"x_min":42,"x_max":150,"o":"m 97 869 q 135 885 121 869 q 150 922 150 900 q 135 960 150 944 q 97 975 121 975 q 59 960 75 975 q 43 922 43 944 q 59 885 43 900 q 97 869 75 869 m 42 0 l 117 0 l 117 718 l 54 747 l 42 0 z "},":":{"ha":190,"x_min":42,"x_max":149,"o":"m 94 507 q 133 522 117 507 q 149 560 149 538 q 133 597 149 582 q 94 613 117 613 q 56 597 71 613 q 42 560 42 582 q 56 522 42 538 q 94 507 71 507 m 94 64 q 133 79 117 64 q 149 117 149 94 q 133 154 149 139 q 94 169 117 169 q 56 154 71 169 q 42 117 42 139 q 56 79 42 94 q 94 64 71 64 z "},";":{"ha":211,"x_min":28,"x_max":169,"o":"m 115 507 q 153 522 138 507 q 169 560 169 538 q 153 597 169 582 q 115 613 138 613 q 77 597 92 613 q 63 560 63 582 q 77 522 63 538 q 115 507 92 507 m 115 169 q 76 153 90 169 q 63 115 63 138 q 76 81 63 99 q 113 63 90 63 q 28 -51 111 -7 l 50 -86 q 138 -6 107 -58 q 169 110 169 46 q 154 151 169 132 q 115 169 139 169 z "},"?":{"ha":544,"x_min":14,"x_max":503,"o":"m 258 975 q 118 951 182 975 q 14 890 54 926 l 25 833 q 137 898 88 878 q 256 918 186 918 q 383 873 336 918 q 429 746 429 828 q 366 603 429 667 q 193 504 303 539 l 203 219 l 249 190 l 263 461 q 440 589 376 511 q 503 747 503 667 q 440 913 503 851 q 258 975 378 975 m 214 106 q 176 90 190 106 q 161 53 161 75 q 176 15 161 31 q 214 0 190 0 q 252 15 236 0 q 268 53 268 31 q 252 90 268 75 q 214 106 236 106 z "},"¿":{"ha":544,"x_min":42,"x_max":531,"o":"m 331 758 q 369 774 354 758 q 383 811 383 789 q 369 849 383 833 q 331 864 354 864 q 292 849 308 864 q 276 811 276 833 q 292 774 276 789 q 331 758 308 758 m 286 -111 q 426 -87 363 -111 q 531 -26 490 -62 l 519 31 q 408 -34 457 -14 q 289 -54 358 -54 q 162 -9 208 -54 q 115 118 115 36 q 178 261 115 197 q 351 360 242 325 l 342 644 l 296 674 l 282 403 q 105 275 168 353 q 42 117 42 197 q 104 -49 42 13 q 286 -111 167 -111 z "},"*":{"ha":435,"x_min":14,"x_max":421,"o":"m 190 908 l 31 951 l 14 907 l 174 867 l 64 701 l 114 679 l 217 836 l 326 679 l 369 701 l 260 867 l 421 907 l 403 951 l 239 908 l 239 1075 l 190 1075 l 190 908 z "},"\"":{"ha":382,"x_min":28,"x_max":340,"o":"m 115 975 q 76 959 90 975 q 63 921 63 943 q 76 886 63 904 q 113 868 90 868 q 28 754 111 799 l 50 719 q 138 799 107 747 q 169 915 169 851 q 154 956 169 938 q 115 975 139 975 m 286 975 q 247 959 261 975 q 233 921 233 943 q 247 886 233 904 q 283 868 261 868 q 199 754 282 799 l 221 719 q 309 799 278 747 q 340 915 340 851 q 325 956 340 938 q 286 975 310 975 z "},"'":{"ha":211,"x_min":28,"x_max":169,"o":"m 115 975 q 76 959 90 975 q 63 921 63 943 q 76 886 63 904 q 113 868 90 868 q 28 754 111 799 l 50 719 q 138 799 107 747 q 169 915 169 851 q 154 956 169 938 q 115 975 139 975 z "},"‘":{"ha":211,"x_min":42,"x_max":183,"o":"m 96 719 q 135 735 121 719 q 149 774 149 751 q 135 808 149 790 q 99 826 121 826 q 183 940 100 896 l 161 975 q 73 895 104 947 q 42 779 42 843 q 57 738 42 757 q 96 719 72 719 z "},"’":{"ha":211,"x_min":28,"x_max":169,"o":"m 115 975 q 76 959 90 975 q 63 921 63 943 q 76 886 63 904 q 113 868 90 868 q 28 754 111 799 l 50 719 q 138 799 107 747 q 169 915 169 851 q 154 956 169 938 q 115 975 139 975 z "},"‚":{"ha":211,"x_min":28,"x_max":169,"o":"m 115 106 q 76 90 90 106 q 63 51 63 74 q 76 17 63 35 q 113 -1 90 -1 q 28 -115 111 -71 l 50 -150 q 138 -70 107 -122 q 169 46 169 -18 q 154 87 169 68 q 115 106 139 106 z "},"“":{"ha":382,"x_min":42,"x_max":354,"o":"m 96 719 q 135 735 121 719 q 149 774 149 751 q 135 808 149 790 q 99 826 121 826 q 183 940 100 896 l 161 975 q 73 895 104 947 q 42 779 42 843 q 57 738 42 757 q 96 719 72 719 m 267 719 q 306 735 292 719 q 319 774 319 751 q 306 808 319 790 q 269 826 292 826 q 354 940 271 896 l 332 975 q 244 895 275 947 q 213 779 213 843 q 228 738 213 757 q 267 719 243 719 z "},"”":{"ha":382,"x_min":28,"x_max":340,"o":"m 115 975 q 76 959 90 975 q 63 921 63 943 q 76 886 63 904 q 113 868 90 868 q 28 754 111 799 l 50 719 q 138 799 107 747 q 169 915 169 851 q 154 956 169 938 q 115 975 139 975 m 286 975 q 247 959 261 975 q 233 921 233 943 q 247 886 233 904 q 283 868 261 868 q 199 754 282 799 l 221 719 q 309 799 278 747 q 340 915 340 851 q 325 956 340 938 q 286 975 310 975 z "},"„":{"ha":382,"x_min":28,"x_max":340,"o":"m 115 106 q 76 90 90 106 q 63 51 63 74 q 76 17 63 35 q 113 -1 90 -1 q 28 -115 111 -71 l 50 -150 q 138 -70 107 -122 q 169 46 169 -18 q 154 87 169 68 q 115 106 139 106 m 286 106 q 247 90 261 106 q 233 51 233 74 q 247 17 233 35 q 283 -1 261 -1 q 199 -115 282 -71 l 221 -150 q 309 -70 278 -122 q 340 46 340 -18 q 325 87 340 68 q 286 106 310 106 z "},"·":{"ha":190,"x_min":42,"x_max":149,"o":"m 94 311 q 133 326 117 311 q 149 364 149 342 q 133 401 149 386 q 94 417 117 417 q 56 401 71 417 q 42 364 42 386 q 56 326 42 342 q 94 311 71 311 z "},"(":{"ha":332,"x_min":69,"x_max":290,"o":"m 290 -26 q 217 100 251 14 q 161 282 182 186 q 140 446 140 378 q 161 607 140 513 q 217 786 182 701 q 290 913 251 871 l 235 938 q 111 699 153 833 q 69 444 69 564 q 111 189 69 324 q 235 -51 153 54 l 290 -26 z "},")":{"ha":332,"x_min":42,"x_max":263,"o":"m 42 913 q 114 785 79 871 q 170 605 149 700 q 192 443 192 510 q 170 281 192 376 q 114 99 149 185 q 42 -26 79 14 l 97 -51 q 220 190 178 56 q 263 444 263 325 q 220 697 263 561 q 97 938 178 832 l 42 913 z "},"[":{"ha":368,"x_min":139,"x_max":354,"o":"m 343 -68 l 207 -68 l 207 913 l 343 913 l 354 967 l 139 967 l 139 -122 l 354 -122 l 343 -68 z "},"]":{"ha":368,"x_min":14,"x_max":229,"o":"m 25 913 l 161 913 l 161 -68 l 25 -68 l 14 -122 l 229 -122 l 229 967 l 14 967 l 25 913 z "},"{":{"ha":368,"x_min":42,"x_max":354,"o":"m 179 426 q 242 485 217 444 q 268 582 268 525 q 242 679 268 621 q 215 778 215 738 q 242 835 215 810 q 315 861 268 861 l 342 861 l 354 915 l 318 915 q 190 876 233 915 q 146 769 146 838 q 171 669 146 726 q 196 569 196 614 q 163 486 196 519 q 88 453 131 453 l 42 453 l 42 400 l 88 400 q 163 367 131 400 q 196 283 196 333 q 171 183 196 240 q 146 83 146 128 q 190 -24 146 15 q 318 -62 233 -62 l 354 -62 l 342 -8 l 315 -8 q 242 17 268 -8 q 215 75 215 43 q 242 174 215 115 q 268 271 268 232 q 242 368 268 328 q 179 426 217 408 z "},"}":{"ha":368,"x_min":14,"x_max":326,"o":"m 189 426 q 126 368 151 408 q 100 271 100 328 q 126 174 100 232 q 153 75 153 115 q 126 17 153 43 q 53 -8 100 -8 l 26 -8 l 14 -62 l 50 -62 q 178 -24 135 -62 q 222 83 222 15 q 197 183 222 128 q 172 283 172 240 q 205 367 172 333 q 281 400 238 400 l 326 400 l 326 453 l 281 453 q 205 486 238 453 q 172 569 172 519 q 197 669 172 614 q 222 769 222 726 q 178 876 222 838 q 50 915 135 915 l 14 915 l 26 861 l 53 861 q 126 835 100 861 q 153 778 153 810 q 126 679 153 738 q 100 582 100 621 q 126 485 100 525 q 189 426 151 444 z "},"/":{"ha":521,"x_min":14,"x_max":507,"o":"m 78 -6 l 507 981 l 442 986 l 14 0 l 78 -6 z "},"\\":{"ha":521,"x_min":14,"x_max":507,"o":"m 14 981 l 442 -6 l 507 0 l 79 986 l 14 981 z "},"|":{"ha":346,"x_min":139,"x_max":207,"o":"m 207 -6 l 207 981 l 139 986 l 139 0 l 207 -6 z "},"¦":{"ha":346,"x_min":139,"x_max":207,"o":"m 207 564 l 207 981 l 139 986 l 139 569 l 207 564 m 207 -6 l 207 400 l 139 406 l 139 0 l 207 -6 z "},"«":{"ha":504,"x_min":42,"x_max":476,"o":"m 265 160 l 96 340 l 265 521 l 236 564 l 42 363 l 42 318 l 236 117 l 265 160 m 476 160 l 306 340 l 476 521 l 447 564 l 253 363 l 253 318 l 447 117 l 476 160 z "},"»":{"ha":504,"x_min":28,"x_max":463,"o":"m 28 521 l 199 340 l 28 160 l 57 117 l 251 318 l 251 363 l 57 564 l 28 521 m 239 521 l 408 340 l 239 160 l 268 117 l 463 318 l 463 363 l 268 564 l 239 521 z "},"π":{"ha":751,"x_min":14,"x_max":738,"o":"m 531 619 l 531 0 l 599 0 l 599 619 l 738 619 l 738 674 l 14 674 l 14 619 l 151 619 l 151 0 l 219 0 l 219 619 l 531 619 z "},"†":{"ha":508,"x_min":42,"x_max":467,"o":"m 42 860 l 68 808 l 214 808 l 214 0 l 282 -6 l 282 808 l 467 808 l 440 860 l 282 860 l 282 1083 l 214 1088 l 214 860 l 42 860 z "},"‡":{"ha":522,"x_min":42,"x_max":481,"o":"m 481 267 l 454 318 l 293 318 l 293 750 l 481 750 l 454 801 l 293 801 l 293 1083 l 225 1088 l 225 801 l 42 801 l 68 750 l 225 750 l 225 318 l 42 318 l 68 267 l 225 267 l 225 -8 l 293 1 l 293 267 l 481 267 z "},"•":{"ha":254,"x_min":42,"x_max":213,"o":"m 128 368 q 188 393 163 368 q 213 453 213 418 q 188 514 213 489 q 128 539 163 539 q 67 514 92 539 q 42 453 42 489 q 67 393 42 418 q 128 368 92 368 z "},"…":{"ha":496,"x_min":42,"x_max":454,"o":"m 94 0 q 129 14 115 0 q 143 50 143 28 q 129 86 143 72 q 94 100 115 100 q 57 86 72 100 q 42 50 42 72 q 57 14 42 28 q 94 0 72 0 m 250 0 q 285 14 271 0 q 299 50 299 28 q 285 86 299 72 q 250 100 271 100 q 213 86 228 100 q 197 50 197 72 q 213 14 197 28 q 250 0 228 0 m 406 0 q 440 14 426 0 q 454 50 454 28 q 440 86 454 72 q 406 100 426 100 q 368 86 383 100 q 353 50 353 72 q 368 14 353 28 q 406 0 383 0 z "},"‹":{"ha":293,"x_min":42,"x_max":265,"o":"m 265 163 l 100 340 l 265 518 l 236 567 l 42 360 l 42 321 l 236 115 l 265 163 z "},"›":{"ha":293,"x_min":28,"x_max":251,"o":"m 28 519 l 193 342 l 28 164 l 57 115 l 251 322 l 251 361 l 57 567 l 28 519 z "},"-":{"ha":432,"x_min":42,"x_max":390,"o":"m 53 351 l 390 351 l 379 406 l 42 406 l 53 351 z "},"_":{"ha":596,"x_min":42,"x_max":554,"o":"m 53 0 l 554 0 l 543 54 l 42 54 l 53 0 z "},"–":{"ha":600,"x_min":42,"x_max":558,"o":"m 53 353 l 558 353 l 547 407 l 42 407 l 53 353 z "},"—":{"ha":728,"x_min":42,"x_max":686,"o":"m 53 353 l 686 353 l 675 407 l 42 407 l 53 353 z "},"#":{"ha":690,"x_min":42,"x_max":649,"o":"m 300 515 l 346 697 l 281 697 l 235 515 l 42 515 l 53 461 l 221 461 l 168 249 l 42 249 l 53 194 l 154 194 l 107 6 l 171 0 l 219 194 l 401 194 l 354 6 l 418 0 l 467 194 l 649 194 l 639 249 l 481 249 l 533 461 l 649 461 l 639 515 l 547 515 l 593 697 l 528 697 l 482 515 l 300 515 m 233 249 l 286 461 l 468 461 l 415 249 l 233 249 z "},"%":{"ha":1124,"x_min":56,"x_max":1068,"o":"m 367 -6 l 796 981 l 731 986 l 303 0 l 367 -6 m 267 975 q 159 946 207 975 q 83 863 111 917 q 56 739 56 810 q 115 567 56 629 q 268 504 174 504 q 373 533 325 504 q 449 616 421 563 q 478 739 478 669 q 420 913 478 850 q 267 975 363 975 m 267 924 q 372 874 332 924 q 413 739 413 825 q 370 604 413 653 q 268 556 328 556 q 164 606 207 556 q 121 739 121 656 q 142 839 121 797 q 196 902 163 881 q 267 924 229 924 m 857 469 q 749 440 797 469 q 674 358 701 411 q 646 233 646 304 q 705 61 646 124 q 858 -1 764 -1 q 963 28 915 -1 q 1040 110 1011 57 q 1068 233 1068 164 q 1010 407 1068 344 q 857 469 953 469 m 857 417 q 963 368 922 417 q 1003 233 1003 319 q 960 99 1003 147 q 858 50 918 50 q 754 100 797 50 q 711 233 711 150 q 755 368 711 319 q 857 417 799 417 z "},"+":{"ha":732,"x_min":42,"x_max":690,"o":"m 399 738 l 331 742 l 331 406 l 42 406 l 53 354 l 331 354 l 331 11 l 399 6 l 399 354 l 690 354 l 676 406 l 399 406 l 399 738 z "},"÷":{"ha":690,"x_min":42,"x_max":649,"o":"m 344 524 q 383 539 367 524 q 399 576 399 554 q 383 614 399 599 q 344 629 367 629 q 306 614 321 629 q 292 576 292 599 q 306 539 292 554 q 344 524 321 524 m 53 354 l 649 354 l 635 406 l 42 406 l 53 354 m 349 103 q 387 118 371 103 q 403 156 403 133 q 387 193 403 178 q 349 208 371 208 q 310 193 325 208 q 296 156 296 178 q 310 118 296 133 q 349 103 325 103 z "},"×":{"ha":653,"x_min":42,"x_max":611,"o":"m 519 43 l 321 288 l 113 43 l 42 43 l 296 347 l 65 644 l 133 644 l 328 400 l 540 644 l 611 644 l 357 340 l 588 43 l 519 43 z "},"±":{"ha":683,"x_min":42,"x_max":642,"o":"m 369 738 l 301 742 l 301 479 l 42 479 l 53 428 l 301 428 l 301 157 l 369 150 l 369 428 l 632 428 l 621 479 l 369 479 l 369 738 m 53 0 l 642 0 l 631 51 l 42 51 l 53 0 z "},"<":{"ha":447,"x_min":42,"x_max":419,"o":"m 419 606 l 388 653 l 42 360 l 42 321 l 388 26 l 419 75 l 106 340 l 419 606 z "},"=":{"ha":690,"x_min":42,"x_max":649,"o":"m 53 461 l 649 461 l 639 515 l 42 515 l 53 461 m 53 194 l 649 194 l 639 249 l 42 249 l 53 194 z "},">":{"ha":447,"x_min":28,"x_max":406,"o":"m 28 604 l 342 339 l 28 74 l 60 26 l 406 319 l 406 358 l 60 653 l 28 604 z "},"°":{"ha":338,"x_min":14,"x_max":310,"o":"m 161 975 q 56 933 99 975 q 14 832 14 892 q 56 731 14 769 q 161 692 97 692 q 267 731 225 692 q 310 832 310 769 q 267 933 310 892 q 161 975 224 975 m 167 735 q 97 765 124 735 q 69 833 69 796 q 95 901 69 871 q 161 931 121 931 q 228 900 201 931 q 256 833 256 869 q 233 765 256 794 q 167 735 210 735 z "},"¹":{"ha":333,"x_min":14,"x_max":222,"o":"m 189 1063 l 14 972 l 46 938 l 163 994 l 163 467 l 222 467 l 222 1063 l 189 1063 z "},"²":{"ha":475,"x_min":35,"x_max":447,"o":"m 239 1071 q 135 1055 192 1071 q 40 1018 79 1039 l 64 975 q 236 1022 175 1022 q 333 983 300 1022 q 365 899 365 944 q 343 822 365 865 q 251 715 319 778 l 35 518 l 35 467 l 447 467 l 439 513 l 106 513 l 288 674 q 395 795 363 742 q 428 907 428 849 q 407 985 428 947 q 343 1047 386 1024 q 239 1071 300 1071 z "},"³":{"ha":492,"x_min":0,"x_max":429,"o":"m 215 1071 q 108 1055 156 1071 q 13 1010 60 1039 l 43 968 q 214 1021 125 1021 q 314 986 275 1021 q 353 903 353 951 q 310 803 353 840 q 185 767 268 767 l 133 767 l 143 721 l 178 721 q 324 685 282 721 q 367 576 367 649 q 318 478 367 515 q 204 440 269 440 q 111 451 149 440 q 33 486 74 463 l 0 442 q 93 402 42 418 q 199 386 144 386 q 367 440 306 386 q 429 578 429 494 q 397 689 429 644 q 306 747 364 733 q 385 806 354 764 q 417 904 417 849 q 365 1024 417 976 q 215 1071 314 1071 z "},"¼":{"ha":986,"x_min":14,"x_max":958,"o":"m 189 1063 l 14 972 l 46 938 l 163 994 l 163 467 l 222 467 l 222 1063 l 189 1063 m 104 -186 l 800 972 l 738 972 l 35 -186 l 104 -186 m 840 446 l 801 446 l 450 -43 l 456 -90 l 779 -90 l 779 -226 l 840 -226 l 840 -90 l 953 -90 l 958 -43 l 840 -43 l 840 446 m 515 -43 l 779 331 l 779 -43 l 515 -43 z "},"½":{"ha":1053,"x_min":14,"x_max":1025,"o":"m 189 1063 l 14 972 l 46 938 l 163 994 l 163 467 l 222 467 l 222 1063 l 189 1063 m 118 -186 l 814 972 l 751 972 l 49 -186 l 118 -186 m 817 451 q 713 435 769 451 q 618 399 657 419 l 642 356 q 814 403 753 403 q 910 364 878 403 q 943 279 943 325 q 921 203 943 246 q 829 96 897 158 l 613 -101 l 613 -153 l 1025 -153 l 1017 -107 l 683 -107 l 865 54 q 973 176 940 122 q 1006 288 1006 229 q 985 366 1006 328 q 921 428 964 404 q 817 451 878 451 z "},"¾":{"ha":1074,"x_min":0,"x_max":1046,"o":"m 215 1071 q 108 1055 156 1071 q 13 1010 60 1039 l 43 968 q 214 1021 125 1021 q 314 986 275 1021 q 353 903 353 951 q 310 803 353 840 q 185 767 268 767 l 133 767 l 143 721 l 178 721 q 324 685 282 721 q 367 576 367 649 q 318 478 367 515 q 204 440 269 440 q 111 451 149 440 q 33 486 74 463 l 0 442 q 93 402 42 418 q 199 386 144 386 q 367 440 306 386 q 429 578 429 494 q 397 689 429 644 q 306 747 364 733 q 385 806 354 764 q 417 904 417 849 q 365 1024 417 976 q 215 1071 314 1071 m 229 -186 l 925 972 l 863 972 l 160 -186 l 229 -186 m 928 446 l 889 446 l 538 -43 l 543 -90 l 867 -90 l 867 -226 l 928 -226 l 928 -90 l 1040 -90 l 1046 -43 l 928 -43 l 928 446 m 603 -43 l 867 331 l 867 -43 l 603 -43 z "},"℮":{"ha":667,"x_min":56,"x_max":611,"o":"m 611 336 q 578 519 611 438 q 486 646 546 600 q 350 692 426 692 q 131 595 207 692 q 56 340 56 499 q 135 79 56 176 q 375 -18 215 -18 q 487 -3 422 -18 q 590 35 551 11 l 563 86 q 475 51 519 64 q 364 39 431 39 q 187 122 246 39 q 126 336 128 206 l 611 336 m 129 388 q 192 565 139 494 q 340 635 246 635 q 481 566 433 635 q 539 388 528 497 l 129 388 z "},"∂":{"ha":726,"x_min":56,"x_max":671,"o":"m 158 1042 q 544 757 417 939 q 671 333 671 575 q 634 153 671 233 q 526 28 597 74 q 360 -18 456 -18 q 135 81 214 -17 q 56 340 56 179 q 92 520 56 440 q 200 646 129 600 q 368 692 271 692 q 538 638 468 690 q 140 997 431 869 l 158 1042 m 360 39 q 487 78 432 39 q 571 185 542 118 q 600 332 600 253 q 572 543 600 446 q 367 635 476 635 q 240 595 294 635 q 156 488 185 556 q 126 342 126 421 q 153 188 126 257 q 233 79 181 119 q 360 39 286 39 z "},"∏":{"ha":831,"x_min":139,"x_max":692,"o":"m 207 890 l 624 890 l 624 0 l 692 0 l 692 944 l 139 944 l 139 0 l 207 0 l 207 890 z "},"∑":{"ha":607,"x_min":42,"x_max":579,"o":"m 42 882 l 326 479 l 42 69 l 42 0 l 579 0 l 572 69 l 129 69 l 396 458 l 396 500 l 129 882 l 550 882 l 542 944 l 42 944 l 42 882 z "},"−":{"ha":647,"x_min":42,"x_max":606,"o":"m 53 353 l 606 353 l 594 407 l 42 407 l 53 353 z "},"√":{"ha":725,"x_min":14,"x_max":711,"o":"m 81 446 l 14 440 l 250 0 l 303 -6 l 711 981 l 644 986 l 276 78 l 81 446 z "},"∞":{"ha":1136,"x_min":56,"x_max":1081,"o":"m 326 636 q 184 597 246 636 q 89 490 122 557 q 56 342 56 424 q 128 140 56 217 q 324 64 200 64 q 453 116 392 64 q 551 240 515 168 q 664 116 590 168 q 810 64 738 64 q 952 103 890 64 q 1047 209 1014 142 q 1081 358 1081 276 q 1008 560 1081 483 q 813 636 936 636 q 683 584 744 636 q 586 460 621 532 q 473 584 547 532 q 326 636 399 636 m 535 354 q 451 194 504 265 q 329 124 397 124 q 180 183 236 124 q 124 340 124 242 q 180 512 124 447 q 329 576 236 576 q 456 527 399 576 q 551 404 513 478 l 535 354 m 601 346 q 685 503 629 429 q 808 576 742 576 q 956 518 900 576 q 1013 360 1013 460 q 956 188 1013 253 q 808 124 900 124 q 681 173 739 124 q 585 296 624 222 l 601 346 z "},"∫":{"ha":407,"x_min":0,"x_max":407,"o":"m 238 917 q 333 1031 238 1031 q 364 1026 346 1031 q 390 1018 382 1022 l 407 1069 q 315 1088 360 1088 q 206 1036 243 1088 q 169 894 169 985 l 169 -78 q 74 -192 169 -192 q 43 -187 61 -192 q 17 -179 25 -183 l 0 -231 q 92 -249 47 -249 q 201 -197 164 -249 q 238 -56 238 -146 l 238 917 z "},"≈":{"ha":697,"x_min":42,"x_max":656,"o":"m 603 529 q 567 488 594 501 q 503 475 539 475 q 351 507 451 475 q 193 538 256 538 q 95 513 140 538 q 42 440 50 488 l 94 428 q 131 469 103 456 q 194 482 158 482 q 356 451 256 482 q 504 419 460 419 q 602 444 557 419 q 656 517 647 469 l 603 529 m 603 276 q 567 235 594 249 q 503 222 539 222 q 351 254 451 222 q 193 285 256 285 q 95 260 140 285 q 42 188 50 235 l 94 175 q 131 216 103 203 q 194 229 158 229 q 356 199 256 229 q 504 167 460 167 q 602 192 557 167 q 656 264 647 217 l 603 276 z "},"≠":{"ha":690,"x_min":42,"x_max":649,"o":"m 42 515 l 53 461 l 360 461 l 267 249 l 42 249 l 53 194 l 243 194 l 151 -14 l 213 -19 l 307 194 l 649 194 l 639 249 l 331 249 l 424 461 l 649 461 l 639 515 l 447 515 l 539 721 l 476 726 l 383 515 l 42 515 z "},"≤":{"ha":447,"x_min":42,"x_max":419,"o":"m 419 607 l 388 653 l 42 424 l 42 385 l 388 157 l 419 199 l 113 404 l 419 607 m 54 0 l 415 0 l 407 54 l 43 54 l 54 0 z "},"≥":{"ha":447,"x_min":28,"x_max":406,"o":"m 28 611 l 335 406 l 28 203 l 60 157 l 406 386 l 406 425 l 60 653 l 28 611 m 39 0 l 400 0 l 392 54 l 28 54 l 39 0 z "},"‰":{"ha":1624,"x_min":56,"x_max":1568,"o":"m 367 -6 l 796 981 l 731 986 l 303 0 l 367 -6 m 267 975 q 159 946 207 975 q 83 863 111 917 q 56 739 56 810 q 115 567 56 629 q 268 504 174 504 q 373 533 325 504 q 449 616 421 563 q 478 739 478 669 q 420 913 478 850 q 267 975 363 975 m 267 924 q 372 874 332 924 q 413 739 413 825 q 370 604 413 653 q 268 556 328 556 q 164 606 207 556 q 121 739 121 656 q 142 839 121 797 q 196 902 163 881 q 267 924 229 924 m 857 469 q 749 440 797 469 q 674 358 701 411 q 646 233 646 304 q 705 61 646 124 q 858 -1 764 -1 q 963 28 915 -1 q 1040 110 1011 57 q 1068 233 1068 164 q 1010 407 1068 344 q 857 469 953 469 m 1357 469 q 1249 440 1297 469 q 1174 358 1201 411 q 1146 233 1146 304 q 1205 61 1146 124 q 1358 -1 1264 -1 q 1463 28 1415 -1 q 1540 110 1511 57 q 1568 233 1568 164 q 1510 407 1568 344 q 1357 469 1453 469 m 857 417 q 963 368 922 417 q 1003 233 1003 319 q 960 99 1003 147 q 858 50 918 50 q 754 100 797 50 q 711 233 711 150 q 755 368 711 319 q 857 417 799 417 m 1357 417 q 1463 368 1422 417 q 1503 233 1503 319 q 1460 99 1503 147 q 1358 50 1418 50 q 1254 100 1297 50 q 1211 233 1211 150 q 1255 368 1211 319 q 1357 417 1299 417 z "},"⁄":{"ha":521,"x_min":14,"x_max":507,"o":"m 78 -6 l 507 981 l 442 986 l 14 0 l 78 -6 z "},"◊":{"ha":722,"x_min":42,"x_max":681,"o":"m 681 425 l 375 832 l 347 832 l 42 425 l 42 407 l 347 0 l 375 0 l 681 407 l 681 425 m 360 76 l 113 415 l 360 757 l 613 415 l 360 76 z "},"©":{"ha":1093,"x_min":56,"x_max":1038,"o":"m 1038 467 q 976 715 1038 604 q 802 890 914 826 q 546 953 690 953 q 288 890 400 953 q 116 715 176 826 q 56 467 56 604 q 115 219 56 329 q 285 47 174 110 q 546 -17 396 -17 q 802 47 690 -17 q 976 220 914 110 q 1038 467 1038 331 m 121 468 q 174 688 121 590 q 323 843 226 786 q 546 900 419 900 q 769 843 672 900 q 919 688 867 786 q 972 468 972 589 q 919 248 972 347 q 769 92 867 149 q 546 35 672 35 q 323 92 419 35 q 174 247 226 149 q 121 468 121 346 m 564 167 q 659 183 607 167 q 740 225 711 200 l 713 268 q 561 221 638 221 q 406 290 467 221 q 346 474 346 358 q 406 658 346 589 q 561 726 467 726 q 713 679 638 726 l 740 722 q 659 764 711 747 q 564 781 607 781 q 419 745 485 781 q 316 640 354 710 q 278 474 278 571 q 316 307 278 376 q 419 202 354 238 q 564 167 485 167 z "},"®":{"ha":993,"x_min":56,"x_max":938,"o":"m 938 676 q 881 896 938 797 q 725 1051 825 994 q 497 1108 625 1108 q 267 1052 367 1108 q 111 897 167 996 q 56 676 56 799 q 112 458 56 556 q 269 303 168 360 q 497 247 369 247 q 725 303 625 247 q 881 458 825 360 q 938 676 938 556 m 122 678 q 169 871 122 785 q 300 1006 215 957 q 497 1056 385 1056 q 693 1006 608 1056 q 824 871 778 957 q 869 678 869 785 q 823 486 869 572 q 692 349 776 400 q 497 299 608 299 q 300 349 385 299 q 169 486 215 400 q 122 678 122 572 m 565 651 q 638 707 608 669 q 667 794 667 744 q 616 908 667 872 q 478 944 565 944 l 357 944 l 357 422 l 413 422 l 413 642 l 471 642 q 492 643 485 642 l 511 643 l 636 422 l 701 422 l 565 651 m 468 899 q 572 877 536 899 q 607 793 607 856 q 461 686 607 686 l 413 686 l 413 899 l 468 899 z "},"™":{"ha":988,"x_min":14,"x_max":918,"o":"m 14 900 l 179 900 l 179 425 l 240 425 l 240 900 l 404 900 l 400 944 l 14 944 l 14 900 m 865 425 l 918 425 l 918 944 l 890 944 l 713 671 l 528 944 l 501 944 l 501 425 l 558 425 l 558 810 l 704 596 l 721 599 l 865 811 l 865 425 z "},"&":{"ha":899,"x_min":69,"x_max":843,"o":"m 704 167 q 762 304 742 229 q 782 456 782 379 l 732 471 q 713 337 732 407 q 660 208 694 267 l 385 465 q 270 599 307 539 q 233 731 233 660 q 257 819 233 778 q 322 885 281 860 q 415 910 364 910 q 502 899 471 910 q 585 864 533 889 l 613 913 q 521 951 575 935 q 403 967 467 967 q 283 934 338 967 q 199 846 229 901 q 168 725 168 790 q 219 561 168 639 q 110 441 150 515 q 69 278 69 367 q 113 121 69 188 q 231 18 156 54 q 397 -18 306 -18 q 553 19 482 -18 q 674 122 625 57 l 808 0 l 843 38 l 704 167 m 629 163 q 528 72 586 106 q 401 39 469 39 q 272 69 333 39 q 173 154 211 99 q 135 281 135 210 q 165 413 135 353 q 253 515 194 474 q 336 431 281 481 l 629 163 z "},"@":{"ha":1056,"x_min":56,"x_max":1000,"o":"m 611 561 q 463 526 531 561 q 356 431 396 492 q 315 293 315 369 q 376 148 315 204 q 533 92 436 92 q 601 105 565 92 q 664 138 638 118 q 775 85 703 85 q 940 172 881 85 q 1000 422 1000 258 q 947 629 1000 538 q 798 773 893 721 q 579 825 703 825 q 297 754 415 825 q 117 563 179 683 q 56 296 56 442 q 114 69 56 167 q 270 -81 172 -28 q 483 -133 368 -133 q 743 -81 642 -133 l 725 -28 q 622 -64 683 -51 q 499 -76 560 -76 q 310 -31 394 -76 q 176 100 225 15 q 126 297 126 185 q 184 543 126 436 q 344 709 242 650 q 575 768 446 768 q 766 724 685 768 q 890 599 847 679 q 933 413 933 518 q 890 211 933 281 q 778 142 846 142 q 697 228 697 142 q 699 254 697 244 l 732 533 l 710 561 l 611 561 m 533 143 q 426 183 467 143 q 386 293 386 224 q 416 408 386 358 q 496 483 446 457 q 604 510 546 510 l 667 510 l 635 264 q 632 228 632 242 q 642 174 632 199 q 593 152 624 161 q 533 143 563 143 z "},"^":{"ha":579,"x_min":14,"x_max":551,"o":"m 551 199 l 313 542 l 253 542 l 14 199 l 81 199 l 283 483 l 485 199 l 551 199 z "},"~":{"ha":519,"x_min":42,"x_max":478,"o":"m 97 299 q 117 340 97 324 q 163 357 136 357 q 261 324 211 357 q 358 290 311 290 q 445 322 413 290 q 478 401 478 353 l 422 401 q 403 360 422 376 q 357 343 383 343 q 271 376 321 343 q 163 410 221 410 q 75 379 108 410 q 42 299 42 349 l 97 299 z "},"§":{"ha":792,"x_min":69,"x_max":736,"o":"m 736 335 q 710 227 736 275 q 632 149 683 179 q 644 71 644 113 q 562 -101 644 -36 q 329 -165 479 -165 q 184 -147 268 -165 q 76 -107 100 -128 l 97 -53 q 203 -91 142 -75 q 328 -107 264 -107 q 460 -82 404 -107 q 545 -15 517 -57 q 574 75 574 26 q 513 203 574 149 q 322 311 453 257 q 132 431 194 364 q 69 596 69 499 q 97 699 69 653 q 175 775 124 746 q 161 860 161 813 q 196 974 161 924 q 295 1054 231 1025 q 447 1083 360 1083 q 573 1068 513 1083 q 681 1029 633 1053 l 650 979 q 557 1014 600 1001 q 450 1026 514 1026 q 293 976 353 1026 q 233 853 233 926 q 294 720 233 776 q 485 610 356 664 q 676 491 615 556 q 736 335 736 426 m 599 210 q 649 267 632 233 q 665 339 665 300 q 605 467 665 413 q 414 575 544 521 q 206 717 263 639 q 158 660 175 693 q 142 589 142 626 q 203 456 142 513 q 393 346 264 400 q 599 210 543 283 z "},"ª":{"ha":461,"x_min":56,"x_max":406,"o":"m 103 890 q 133 902 111 893 q 178 916 154 911 q 231 921 201 921 q 313 892 285 921 q 342 815 342 864 l 342 783 l 222 783 q 103 747 150 783 q 56 647 56 710 q 99 545 56 586 q 215 504 142 504 q 287 522 251 504 q 346 567 322 539 l 361 517 l 406 517 l 406 806 q 359 926 406 876 q 229 975 313 975 q 155 963 199 975 q 86 935 111 951 l 103 890 m 118 647 q 148 714 118 688 q 235 740 178 740 l 342 740 l 342 621 q 286 570 319 589 q 215 551 253 551 q 145 581 172 551 q 118 647 118 611 z "},"¬":{"ha":701,"x_min":14,"x_max":660,"o":"m 25 510 l 592 510 l 592 163 l 660 156 l 660 494 l 649 564 l 14 564 l 25 510 z "},"¶":{"ha":1122,"x_min":56,"x_max":1067,"o":"m 843 890 l 843 0 l 911 0 l 911 890 l 1067 890 l 1067 944 l 396 944 q 148 872 240 944 q 56 660 56 800 q 103 500 56 567 q 231 400 150 433 q 411 367 311 367 l 464 367 l 464 0 l 532 0 l 532 890 l 843 890 z "},"º":{"ha":478,"x_min":28,"x_max":450,"o":"m 238 975 q 134 946 182 975 q 57 863 86 917 q 28 739 28 808 q 57 613 28 667 q 134 532 86 560 q 239 504 182 504 q 344 533 296 504 q 421 616 392 563 q 450 739 450 669 q 421 865 450 811 q 343 947 392 918 q 238 975 294 975 m 238 926 q 345 876 303 926 q 388 739 388 825 q 367 639 388 681 q 311 576 346 597 q 239 554 276 554 q 134 605 178 554 q 90 739 90 656 q 111 840 90 797 q 166 904 132 882 q 238 926 200 926 z "},"Ģ":{"ha":853,"x_min":69,"x_max":769,"o":"m 699 72 q 529 40 611 40 q 332 95 419 40 q 195 247 244 150 q 146 467 146 344 q 197 693 146 593 q 339 850 249 793 q 542 907 429 907 q 650 897 608 907 q 743 867 692 888 l 769 913 q 663 950 735 936 q 539 964 590 964 q 298 900 406 964 q 130 723 190 836 q 69 467 69 610 q 125 217 69 328 q 285 44 181 107 q 531 -19 390 -19 q 659 -1 590 -19 q 767 43 728 17 l 767 475 l 494 475 l 486 421 l 699 421 l 699 72 m 532 -29 q 493 -45 507 -29 q 479 -83 479 -61 q 493 -118 479 -100 q 529 -136 507 -136 q 444 -250 528 -206 l 467 -285 q 555 -205 524 -257 q 586 -89 586 -153 q 571 -48 586 -67 q 532 -29 556 -29 z "},"Ķ":{"ha":806,"x_min":139,"x_max":792,"o":"m 207 374 l 207 0 l 139 0 l 139 944 l 207 944 l 207 451 l 674 965 l 721 921 l 374 551 l 792 0 l 706 0 l 328 503 l 207 374 m 463 -29 q 424 -45 438 -29 q 410 -83 410 -61 q 424 -118 410 -100 q 460 -136 438 -136 q 375 -250 458 -206 l 397 -285 q 485 -205 454 -257 q 517 -89 517 -153 q 501 -48 517 -67 q 463 -29 486 -29 z "},"Ļ":{"ha":682,"x_min":139,"x_max":668,"o":"m 207 944 l 139 944 l 139 0 l 668 0 l 661 54 l 207 54 l 207 944 m 426 -29 q 388 -45 401 -29 q 374 -83 374 -61 q 388 -118 374 -100 q 424 -136 401 -136 q 339 -250 422 -206 l 361 -285 q 449 -205 418 -257 q 481 -89 481 -153 q 465 -48 481 -67 q 426 -29 450 -29 z "},"Ņ":{"ha":914,"x_min":139,"x_max":775,"o":"m 226 757 l 738 0 l 775 0 l 775 944 l 707 944 l 707 154 l 660 236 l 178 944 l 139 944 l 139 0 l 207 0 l 207 797 l 226 757 m 485 -29 q 446 -45 460 -29 q 432 -83 432 -61 q 446 -118 432 -100 q 482 -136 460 -136 q 397 -250 481 -206 l 419 -285 q 508 -205 476 -257 q 539 -89 539 -153 q 524 -48 539 -67 q 485 -29 508 -29 z "},"Ŗ":{"ha":794,"x_min":139,"x_max":781,"o":"m 207 0 l 207 397 l 350 397 q 476 411 419 397 l 704 0 l 781 0 l 535 429 q 660 522 614 460 q 706 675 706 583 q 615 881 706 817 q 365 944 524 944 l 139 944 l 139 0 l 207 0 m 368 889 q 562 838 488 889 q 636 672 636 786 q 553 507 636 563 q 353 451 469 451 l 207 451 l 207 889 l 368 889 m 458 -29 q 419 -45 433 -29 q 406 -83 406 -61 q 419 -118 406 -100 q 456 -136 433 -136 q 371 -250 454 -206 l 393 -285 q 481 -205 450 -257 q 513 -89 513 -153 q 497 -48 513 -67 q 458 -29 482 -29 z "},"Ț":{"ha":742,"x_min":14,"x_max":728,"o":"m 14 890 l 336 890 l 336 0 l 404 0 l 404 890 l 728 890 l 721 944 l 14 944 l 14 890 m 372 -29 q 333 -45 347 -29 q 319 -83 319 -61 q 333 -118 319 -100 q 369 -136 347 -136 q 285 -250 368 -206 l 307 -285 q 395 -205 364 -257 q 426 -89 426 -153 q 411 -48 426 -67 q 372 -29 396 -29 z "},"ģ":{"ha":706,"x_min":56,"x_max":600,"o":"m 356 799 q 317 817 332 799 q 301 858 301 836 q 333 974 301 922 q 421 1054 364 1026 l 443 1019 q 358 906 360 975 q 394 888 381 906 q 408 853 408 869 q 394 815 408 831 q 356 799 381 799 m 600 -86 q 531 -255 600 -190 q 333 -319 461 -319 q 213 -303 286 -319 q 104 -262 140 -286 l 131 -214 q 229 -251 186 -239 q 331 -262 272 -262 q 476 -221 419 -262 q 532 -100 532 -179 l 532 54 q 346 -18 451 -18 q 128 79 201 -18 q 56 340 56 176 q 133 594 56 497 q 356 692 211 692 q 456 669 404 692 q 546 617 507 647 l 563 674 l 600 674 l 600 -86 m 346 39 q 449 62 407 39 q 532 129 490 85 l 532 558 q 353 635 447 635 q 230 595 281 635 q 153 489 179 556 q 126 342 126 422 q 182 124 126 210 q 346 39 238 39 z "},"ķ":{"ha":624,"x_min":111,"x_max":624,"o":"m 282 389 l 542 0 l 624 0 l 328 435 l 543 649 l 492 692 l 179 367 l 179 981 l 111 967 l 111 0 l 179 0 l 179 286 l 282 389 m 357 -29 q 318 -45 332 -29 q 304 -83 304 -61 q 318 -118 304 -100 q 354 -136 332 -136 q 269 -250 353 -206 l 292 -285 q 380 -205 349 -257 q 411 -89 411 -153 q 396 -48 411 -67 q 357 -29 381 -29 z "},"ļ":{"ha":290,"x_min":61,"x_max":203,"o":"m 111 967 l 111 0 l 179 0 l 179 981 l 111 967 m 149 -29 q 110 -45 124 -29 q 96 -83 96 -61 q 110 -118 96 -100 q 146 -136 124 -136 q 61 -250 144 -206 l 83 -285 q 172 -205 140 -257 q 203 -89 203 -153 q 188 -48 203 -67 q 149 -29 172 -29 z "},"ņ":{"ha":694,"x_min":97,"x_max":603,"o":"m 165 499 q 408 635 299 635 q 507 590 479 635 q 535 468 535 546 l 535 0 l 603 0 l 603 468 q 554 631 603 571 q 403 692 506 692 q 275 656 342 692 q 164 568 208 619 l 150 674 l 97 674 l 97 0 l 165 0 l 165 499 m 353 -29 q 314 -45 328 -29 q 300 -83 300 -61 q 314 -118 300 -100 q 350 -136 328 -136 q 265 -250 349 -206 l 288 -285 q 376 -205 344 -257 q 407 -89 407 -153 q 392 -48 407 -67 q 353 -29 376 -29 z "},"ŗ":{"ha":419,"x_min":46,"x_max":406,"o":"m 165 496 q 277 582 208 543 q 406 621 346 621 l 382 674 q 272 640 335 674 q 161 567 208 606 l 136 674 l 97 674 l 97 0 l 165 0 l 165 496 m 133 -29 q 94 -45 108 -29 q 81 -83 81 -61 q 94 -118 81 -100 q 131 -136 108 -136 q 46 -250 129 -206 l 68 -285 q 156 -205 125 -257 q 188 -89 188 -153 q 172 -48 188 -67 q 133 -29 157 -29 z "},"ț":{"ha":406,"x_min":28,"x_max":364,"o":"m 196 865 l 128 835 l 128 653 l 28 653 l 28 601 l 128 601 l 128 161 q 167 28 128 75 q 272 -18 206 -18 q 326 -11 299 -18 q 364 -1 360 -1 l 347 51 q 290 39 318 39 q 219 77 243 39 q 196 171 196 115 l 196 601 l 347 601 l 318 653 l 196 653 l 196 865 m 261 -29 q 222 -45 236 -29 q 208 -83 208 -61 q 222 -118 208 -100 q 258 -136 236 -136 q 174 -250 257 -206 l 196 -285 q 284 -205 253 -257 q 315 -89 315 -153 q 300 -48 315 -67 q 261 -29 285 -29 z "},"அ":{"ha":1465,"x_min":56,"x_max":1326,"o":"m 1326 -175 l 1265 -175 l 1265 125 l 996 125 q 790 -112 935 -24 q 454 -200 646 -200 q 249 -168 340 -200 q 107 -81 158 -136 q 56 44 56 -25 q 94 138 56 103 q 203 174 132 174 l 944 174 q 967 319 967 247 q 929 506 967 425 q 821 633 892 588 q 654 679 750 679 q 535 659 589 679 q 446 601 482 639 q 501 613 472 613 q 624 569 575 613 q 674 460 674 525 q 626 345 674 390 q 503 300 578 300 q 383 346 431 300 q 335 461 335 392 q 376 603 335 540 q 490 702 417 667 q 654 738 563 738 q 854 684 768 738 q 987 535 940 631 q 1033 319 1033 440 q 1013 174 1033 243 l 1265 174 l 1265 713 l 1326 713 l 1326 -175 m 501 561 q 421 532 453 561 q 389 457 389 503 q 422 383 389 413 q 506 353 456 353 q 583 382 553 353 q 613 457 613 411 q 581 532 613 503 q 501 561 550 561 m 454 -142 q 742 -70 618 -142 q 925 125 867 1 l 208 125 q 122 44 122 125 q 165 -52 122 -10 q 282 -118 207 -94 q 454 -142 357 -142 z "},"ஆ":{"ha":1733,"x_min":56,"x_max":1719,"o":"m 1504 117 q 1662 50 1604 117 q 1719 -119 1719 -17 q 1655 -328 1719 -236 q 1478 -472 1590 -421 q 1225 -524 1365 -524 q 1071 -500 1139 -524 q 965 -434 1003 -476 q 926 -339 926 -392 q 974 -233 926 -275 q 1093 -192 1021 -192 l 1122 -192 l 1122 -240 l 1093 -240 q 1020 -268 1047 -240 q 993 -339 993 -296 q 1057 -431 993 -396 q 1225 -465 1121 -465 q 1446 -422 1349 -465 q 1598 -298 1543 -378 q 1653 -117 1653 -218 q 1612 8 1653 -40 q 1500 57 1571 57 q 1376 4 1425 57 q 1326 -131 1326 -49 l 1326 -175 l 1265 -175 l 1265 125 l 996 125 q 790 -112 935 -24 q 454 -200 646 -200 q 249 -168 340 -200 q 107 -81 158 -136 q 56 44 56 -25 q 94 138 56 103 q 203 174 132 174 l 944 174 q 967 319 967 247 q 929 506 967 425 q 821 633 892 588 q 654 679 750 679 q 535 659 589 679 q 446 601 482 639 q 501 613 472 613 q 624 569 575 613 q 674 460 674 525 q 626 345 674 390 q 503 300 578 300 q 383 346 431 300 q 335 461 335 392 q 376 603 335 540 q 490 702 417 667 q 654 738 563 738 q 854 684 768 738 q 987 535 940 631 q 1033 319 1033 440 q 1013 174 1033 243 l 1265 174 l 1265 713 l 1326 713 l 1326 32 q 1404 94 1358 72 q 1504 117 1450 117 m 501 561 q 421 532 453 561 q 389 457 389 503 q 422 383 389 413 q 506 353 456 353 q 583 382 553 353 q 613 457 613 411 q 581 532 613 503 q 501 561 550 561 m 454 -142 q 742 -70 618 -142 q 925 125 867 1 l 208 125 q 122 44 122 125 q 165 -52 122 -10 q 282 -118 207 -94 q 454 -142 357 -142 z "},"ஐ":{"ha":1168,"x_min":83,"x_max":1085,"o":"m 1013 140 q 1053 33 1040 79 q 1065 -69 1065 -12 q 1000 -225 1065 -165 q 821 -285 935 -285 q 683 -251 735 -285 q 593 -157 631 -218 q 497 -251 554 -218 q 346 -285 439 -285 q 210 -253 269 -285 q 117 -167 150 -222 q 83 -44 83 -112 q 180 144 83 76 q 458 236 276 213 l 710 269 q 932 344 847 288 q 1018 497 1017 401 q 969 629 1018 579 q 840 679 921 679 q 699 622 754 679 q 643 476 643 565 l 643 381 l 582 381 l 582 476 q 524 622 582 565 q 376 679 467 679 q 190 597 247 679 q 240 607 211 607 q 343 570 304 607 q 382 475 382 533 q 342 378 382 417 q 239 340 301 340 q 134 378 175 340 q 93 475 93 415 q 130 610 93 550 q 231 703 167 669 q 376 738 296 738 q 611 606 525 738 q 840 738 694 738 q 966 706 910 738 q 1053 620 1022 675 q 1085 497 1085 565 q 990 306 1085 372 q 710 217 894 240 l 458 182 q 237 108 322 164 q 150 -44 151 51 q 203 -176 150 -126 q 346 -226 257 -226 q 502 -170 442 -226 q 563 -24 563 -114 l 563 72 l 624 72 l 624 -24 q 677 -171 624 -115 q 821 -226 731 -226 q 953 -184 907 -226 q 999 -69 999 -142 q 985 29 999 -26 q 950 132 972 85 l 1013 140 m 239 557 q 181 535 204 557 q 154 479 157 513 l 154 471 q 178 413 154 436 q 236 389 201 389 q 297 412 272 389 q 322 469 321 435 q 299 532 322 507 q 239 557 275 557 z "},"ஔ":{"ha":2803,"x_min":83,"x_max":2789,"o":"m 744 185 q 785 47 744 93 q 918 0 826 0 l 1000 0 l 1000 -49 l 918 -49 q 824 -36 864 -49 l 824 -69 q 792 -190 824 -136 q 703 -274 760 -243 q 575 -304 646 -304 q 447 -274 504 -304 q 358 -190 390 -243 q 326 -69 326 -136 l 326 0 l 388 0 l 388 -69 q 441 -199 388 -147 q 575 -250 494 -250 q 709 -199 656 -250 q 763 -69 763 -147 l 763 -4 q 690 185 690 54 l 690 374 l 751 374 q 788 272 753 311 q 874 233 822 233 q 988 392 988 233 q 933 541 988 475 q 783 644 878 607 q 568 682 688 682 q 351 642 447 682 q 199 533 254 603 q 144 374 144 463 q 149 325 144 349 q 201 419 158 383 q 306 456 244 456 q 422 410 376 456 q 468 296 468 365 q 421 185 468 229 q 301 142 374 142 q 189 172 239 142 q 111 254 139 201 q 83 374 83 307 q 146 563 83 479 q 319 694 208 647 q 568 742 429 742 q 818 697 707 742 q 992 572 929 651 q 1054 392 1054 492 q 1007 235 1054 294 q 874 175 960 175 q 801 192 835 175 q 744 239 768 208 l 744 185 m 304 400 q 226 371 257 400 q 196 294 196 342 q 226 223 196 251 q 301 194 256 194 q 375 223 346 194 q 406 296 404 251 q 377 371 406 342 q 304 400 349 400 m 2510 664 l 2510 0 l 2449 0 l 2449 664 l 2074 664 l 2074 0 l 2013 0 l 2013 317 q 1966 503 2013 421 q 1837 633 1919 586 q 1651 679 1754 679 q 1456 635 1538 679 q 1331 510 1374 590 q 1288 329 1288 431 q 1322 179 1288 246 q 1419 74 1356 113 q 1381 193 1381 124 q 1410 306 1381 256 q 1491 383 1439 356 q 1608 411 1543 411 q 1728 383 1675 411 q 1812 304 1782 354 q 1842 190 1842 254 q 1812 80 1842 129 q 1728 3 1782 31 q 1608 -25 1675 -25 q 1404 20 1492 -25 q 1269 146 1317 65 q 1221 329 1221 226 q 1273 541 1221 449 q 1422 685 1325 633 q 1651 738 1519 738 q 1865 683 1771 738 q 2013 533 1960 629 l 2013 713 l 2782 713 l 2789 664 l 2510 664 m 1440 193 q 1488 72 1440 119 q 1608 24 1535 24 q 1728 71 1681 24 q 1776 190 1776 118 q 1729 310 1776 263 q 1608 357 1682 357 q 1488 311 1535 357 q 1440 193 1440 265 z "},"ச":{"ha":926,"x_min":69,"x_max":871,"o":"m 629 350 l 629 285 q 546 56 629 136 q 328 -25 463 -25 q 192 3 251 -25 q 101 79 133 31 q 69 189 69 128 q 113 317 69 263 q 232 389 156 371 l 232 713 l 864 713 l 871 664 l 629 664 l 629 399 l 864 399 l 871 350 l 629 350 m 313 399 l 568 399 l 568 664 l 293 664 l 293 399 l 313 399 m 314 350 q 183 305 229 350 q 136 188 136 260 q 187 75 136 117 q 328 33 238 33 q 502 98 436 33 q 568 285 568 163 l 568 350 l 314 350 z "},"எ":{"ha":1165,"x_min":83,"x_max":1151,"o":"m 872 664 l 872 0 l 811 0 l 811 664 l 547 664 q 252 574 354 664 q 150 329 150 483 q 184 179 150 246 q 282 74 218 113 q 243 193 243 124 q 272 306 243 256 q 353 383 301 356 q 471 411 406 411 q 591 383 538 411 q 674 304 644 354 q 704 190 704 254 q 674 80 704 129 q 591 3 644 31 q 471 -25 538 -25 q 267 20 354 -25 q 131 146 179 65 q 83 329 83 226 q 135 531 83 444 q 289 665 188 618 q 535 713 390 713 l 1144 713 l 1151 664 l 872 664 m 303 193 q 350 72 303 119 q 471 24 397 24 q 591 71 543 24 q 639 190 639 118 q 592 310 639 263 q 471 357 544 357 q 350 311 397 357 q 303 193 303 265 z "},"ஏ":{"ha":1165,"x_min":83,"x_max":1151,"o":"m 872 664 l 872 36 q 866 -59 872 -25 q 840 -117 860 -93 q 778 -160 819 -142 l 338 -347 l 308 -299 l 722 -119 q 794 -68 776 -97 q 811 28 811 -39 l 811 664 l 547 664 q 252 574 354 664 q 150 329 150 483 q 184 179 150 246 q 282 74 218 113 q 243 193 243 124 q 272 306 243 256 q 353 383 301 356 q 471 411 406 411 q 591 383 538 411 q 674 304 644 354 q 704 190 704 254 q 674 80 704 129 q 591 3 644 31 q 471 -25 538 -25 q 267 20 354 -25 q 131 146 179 65 q 83 329 83 226 q 135 531 83 444 q 289 665 188 618 q 535 713 390 713 l 1144 713 l 1151 664 l 872 664 m 303 193 q 350 72 303 119 q 471 24 397 24 q 591 71 543 24 q 639 190 639 118 q 592 310 639 263 q 471 357 544 357 q 350 311 397 357 q 303 193 303 265 z "},"ஹ":{"ha":2126,"x_min":83,"x_max":2043,"o":"m 1768 738 q 1973 624 1903 738 q 2043 321 2043 510 q 1937 -81 2043 67 q 1601 -228 1831 -228 l 360 -228 q 222 -258 281 -228 q 131 -337 163 -287 l 83 -308 q 192 -215 117 -251 q 360 -179 268 -179 l 1601 -179 q 1889 -45 1800 -179 q 1978 321 1978 89 q 1926 582 1978 485 q 1774 679 1874 679 q 1657 626 1700 679 q 1614 469 1614 572 l 1614 0 l 1553 0 l 1553 444 q 1508 614 1553 549 q 1389 679 1464 679 q 1276 626 1315 679 q 1238 469 1238 574 l 1238 0 l 765 0 l 765 49 q 854 184 821 106 q 888 354 888 263 q 843 522 888 449 q 717 638 799 596 q 526 679 636 679 q 327 634 413 679 q 196 510 242 589 q 150 329 150 431 q 184 179 150 246 q 282 74 218 113 q 243 193 243 124 q 272 306 243 256 q 353 383 301 356 q 471 411 406 411 q 591 383 538 411 q 674 304 644 354 q 704 190 704 254 q 674 80 704 129 q 591 3 644 31 q 471 -25 538 -25 q 267 20 354 -25 q 131 146 179 65 q 83 329 83 226 q 138 540 83 447 q 294 685 193 633 q 526 738 394 738 q 751 688 654 738 q 900 552 847 639 q 953 354 953 465 q 925 187 953 267 q 850 49 897 107 l 1176 49 l 1176 468 q 1233 667 1176 597 q 1383 738 1289 738 q 1499 701 1449 738 q 1578 601 1549 665 q 1657 702 1606 667 q 1768 738 1708 738 m 303 193 q 350 72 303 119 q 471 24 397 24 q 591 71 543 24 q 639 190 639 118 q 592 310 639 263 q 471 357 544 357 q 350 311 397 357 q 303 193 303 265 z "},"இ":{"ha":1431,"x_min":56,"x_max":1292,"o":"m 753 988 q 1031 926 908 988 q 1222 754 1153 865 q 1292 497 1292 643 l 1292 -206 l 1231 -206 l 1231 494 q 1170 724 1231 625 q 1001 876 1110 822 q 753 929 893 929 q 485 877 601 929 q 305 724 369 825 q 240 485 240 624 q 324 161 240 315 q 617 211 458 211 q 826 179 726 211 q 918 444 918 326 q 858 615 918 551 q 681 679 799 679 q 569 658 618 679 q 488 597 519 638 q 553 613 518 613 q 676 569 626 613 q 725 460 725 525 q 677 345 725 390 q 554 300 629 300 q 434 346 482 300 q 386 461 386 392 q 424 603 386 540 q 528 702 461 667 q 681 738 596 738 q 906 657 828 738 q 985 444 985 576 q 888 157 985 315 q 1053 35 992 111 q 1114 -132 1114 -40 q 1062 -235 1114 -196 q 915 -275 1010 -275 q 563 -171 735 -275 q 406 -248 485 -221 q 254 -275 328 -275 q 108 -235 160 -275 q 56 -132 56 -196 q 112 21 56 -49 q 267 138 168 90 q 175 485 175 307 q 249 753 175 640 q 453 927 322 867 q 753 988 585 988 m 553 561 q 472 532 504 561 q 440 457 440 503 q 474 383 440 413 q 557 353 507 353 q 634 382 604 353 q 664 457 664 411 q 633 532 664 503 q 553 561 601 561 m 617 153 q 354 110 475 153 q 560 -101 436 -18 q 792 128 693 -8 q 617 153 711 153 m 1049 -132 q 995 6 1049 -57 q 853 106 942 68 q 615 -136 754 -33 q 915 -217 761 -217 q 1049 -132 1049 -217 m 254 -217 q 508 -135 374 -217 q 299 86 383 -46 q 169 -10 217 46 q 122 -132 122 -65 q 154 -194 122 -172 q 254 -217 186 -217 z "},"ஈ":{"ha":1029,"x_min":139,"x_max":1015,"o":"m 600 0 l 600 664 l 200 664 l 200 0 l 139 0 l 139 713 l 1008 713 l 1015 664 l 661 664 l 661 0 l 600 0 m 400 276 q 435 290 422 276 q 449 324 449 304 q 434 357 449 343 q 400 371 419 371 q 366 358 379 371 q 353 324 353 344 q 366 290 353 303 q 400 276 379 276 m 861 276 q 897 290 883 276 q 910 324 910 304 q 895 357 910 343 q 861 371 881 371 q 827 357 840 371 q 814 324 814 343 q 827 290 814 304 q 861 276 840 276 z "},"ஜ":{"ha":1168,"x_min":83,"x_max":1085,"o":"m 882 97 q 1028 45 971 97 q 1085 -89 1085 -7 q 1019 -227 1085 -174 q 846 -281 953 -281 l 678 -281 l 678 -232 l 846 -232 q 972 -192 925 -232 q 1018 -89 1018 -151 q 981 3 1018 -32 q 882 39 943 39 q 772 3 825 39 q 633 -110 718 -33 q 469 -240 539 -196 q 321 -285 400 -285 q 197 -253 251 -285 q 113 -168 143 -222 q 83 -44 83 -114 q 180 144 83 76 q 458 236 276 213 l 710 269 q 932 344 847 288 q 1018 497 1017 401 q 969 629 1018 579 q 840 679 921 679 q 699 622 754 679 q 643 476 643 565 l 643 381 l 582 381 l 582 476 q 524 622 582 565 q 376 679 467 679 q 190 597 247 679 q 240 607 211 607 q 343 570 304 607 q 382 475 382 533 q 342 378 382 417 q 239 340 301 340 q 134 378 175 340 q 93 475 93 415 q 130 610 93 550 q 231 703 167 669 q 376 738 296 738 q 611 606 525 738 q 840 738 694 738 q 966 706 910 738 q 1053 620 1022 675 q 1085 497 1085 565 q 990 306 1085 372 q 710 217 894 240 l 458 182 q 237 108 322 164 q 150 -44 151 51 q 196 -176 150 -126 q 321 -226 242 -226 q 438 -188 381 -226 q 585 -72 496 -150 q 744 54 678 11 q 882 97 811 97 m 239 557 q 181 535 204 557 q 154 479 157 513 l 154 471 q 178 413 154 436 q 236 389 201 389 q 297 412 272 389 q 322 469 321 435 q 299 532 322 507 q 239 557 275 557 z "},"க":{"ha":1004,"x_min":69,"x_max":949,"o":"m 700 399 q 882 342 815 399 q 949 194 949 285 q 877 36 949 97 q 683 -25 806 -25 l 683 24 q 831 70 779 24 q 882 194 882 117 q 835 307 882 264 q 701 350 788 350 l 629 350 l 629 285 q 546 56 629 136 q 328 -25 463 -25 q 192 3 251 -25 q 101 79 133 31 q 69 189 69 128 q 113 317 69 263 q 232 389 156 371 l 232 713 l 864 713 l 871 664 l 629 664 l 629 399 l 700 399 m 313 399 l 568 399 l 568 664 l 293 664 l 293 399 l 313 399 m 314 350 q 183 305 229 350 q 136 188 136 260 q 187 75 136 117 q 328 33 238 33 q 502 98 436 33 q 568 285 568 163 l 568 350 l 314 350 z "},"ல":{"ha":1399,"x_min":83,"x_max":1315,"o":"m 1197 732 q 1285 526 1256 636 q 1315 326 1315 415 q 1251 70 1315 165 q 1071 -25 1186 -25 q 901 53 964 -25 q 838 292 838 132 l 838 354 q 797 528 838 454 q 681 640 756 601 q 511 679 607 679 q 316 635 397 679 q 192 511 235 590 q 150 329 150 432 q 184 179 150 246 q 282 74 218 113 q 243 193 243 124 q 272 306 243 256 q 353 383 301 356 q 471 411 406 411 q 591 383 538 411 q 674 304 644 354 q 704 190 704 254 q 674 80 704 129 q 591 3 644 31 q 471 -25 538 -25 q 267 20 354 -25 q 131 146 179 65 q 83 329 83 226 q 135 541 83 449 q 283 685 186 633 q 511 738 379 738 q 712 690 624 738 q 849 556 800 643 q 899 354 899 469 l 899 292 q 945 96 899 158 q 1071 33 992 33 q 1201 111 1154 33 q 1249 324 1249 189 q 1219 524 1249 413 q 1135 713 1190 635 l 1197 732 m 303 193 q 350 72 303 119 q 471 24 397 24 q 591 71 543 24 q 639 190 639 118 q 592 310 639 263 q 471 357 544 357 q 350 311 397 357 q 303 193 303 265 z "},"ள":{"ha":1665,"x_min":83,"x_max":1651,"o":"m 1372 664 l 1372 0 l 1311 0 l 1311 664 l 936 664 l 936 0 l 875 0 l 875 317 q 828 503 875 421 q 699 633 782 586 q 514 679 617 679 q 318 635 400 679 q 193 510 236 590 q 150 329 150 431 q 184 179 150 246 q 282 74 218 113 q 243 193 243 124 q 272 306 243 256 q 353 383 301 356 q 471 411 406 411 q 591 383 538 411 q 674 304 644 354 q 704 190 704 254 q 674 80 704 129 q 591 3 644 31 q 471 -25 538 -25 q 267 20 354 -25 q 131 146 179 65 q 83 329 83 226 q 135 541 83 449 q 285 685 188 633 q 514 738 382 738 q 728 683 633 738 q 875 533 822 629 l 875 713 l 1644 713 l 1651 664 l 1372 664 m 303 193 q 350 72 303 119 q 471 24 397 24 q 591 71 543 24 q 639 190 639 118 q 592 310 639 263 q 471 357 544 357 q 350 311 397 357 q 303 193 303 265 z "},"ழ":{"ha":1092,"x_min":139,"x_max":1008,"o":"m 578 -76 q 597 -162 578 -135 q 658 -189 617 -189 l 893 -189 l 899 -237 l 650 -237 q 556 -369 625 -319 q 403 -419 486 -419 q 233 -362 292 -419 q 174 -212 174 -306 l 235 -212 q 276 -321 235 -282 q 404 -360 318 -360 q 519 -327 469 -360 q 597 -226 569 -294 q 532 -165 547 -204 q 517 -60 517 -125 l 517 0 l 139 0 l 139 713 l 200 719 l 200 49 l 517 49 l 517 493 q 574 676 517 614 q 729 738 632 738 q 877 684 814 738 q 974 536 940 631 q 1008 321 1008 442 q 944 86 1008 172 q 746 0 881 0 l 578 0 l 578 -76 m 746 49 q 897 120 853 49 q 942 321 942 192 q 886 580 942 481 q 733 679 831 679 q 619 635 661 679 q 578 494 578 592 l 578 49 l 746 49 z "},"ம":{"ha":1092,"x_min":139,"x_max":1008,"o":"m 729 738 q 877 684 814 738 q 974 536 940 631 q 1008 321 1008 442 q 944 86 1008 172 q 746 0 881 0 l 139 0 l 139 713 l 200 719 l 200 49 l 517 49 l 517 493 q 574 676 517 614 q 729 738 632 738 m 746 49 q 897 120 853 49 q 942 321 942 192 q 886 580 942 481 q 733 679 831 679 q 619 635 661 679 q 578 494 578 592 l 578 49 l 746 49 z "},"ந":{"ha":1019,"x_min":139,"x_max":936,"o":"m 714 476 q 879 393 822 476 q 936 171 936 310 q 893 -32 936 58 q 763 -175 850 -122 q 551 -228 676 -228 l 417 -228 q 278 -258 338 -228 q 186 -337 218 -287 l 139 -308 q 249 -215 172 -251 q 417 -179 325 -179 l 551 -179 q 727 -132 656 -179 q 835 -5 799 -85 q 871 174 871 75 q 831 353 871 288 q 710 418 790 418 q 585 365 633 418 q 536 231 536 313 l 536 0 l 475 0 l 475 664 l 200 664 l 200 0 l 139 0 l 139 713 l 808 713 l 815 664 l 536 664 l 536 392 q 614 454 568 432 q 714 476 660 476 z "},"ங":{"ha":1317,"x_min":139,"x_max":1178,"o":"m 1178 0 l 475 0 l 475 49 l 639 49 q 754 78 703 49 q 834 158 806 107 q 863 274 863 210 q 822 399 863 350 q 710 447 781 447 q 585 394 633 447 q 536 260 536 342 l 536 197 l 475 197 l 475 664 l 200 664 l 200 0 l 139 0 l 139 713 l 808 713 l 815 664 l 536 664 l 536 422 q 614 485 568 463 q 714 507 660 507 q 872 440 814 507 q 929 271 929 374 q 899 138 929 194 q 813 49 868 82 l 1117 49 l 1117 713 l 1178 713 l 1178 0 z "},"ண":{"ha":2317,"x_min":83,"x_max":2303,"o":"m 2024 664 l 2024 0 l 1963 0 l 1963 664 l 1824 664 q 1593 603 1697 664 q 1701 438 1663 533 q 1740 238 1740 343 q 1681 49 1740 122 q 1524 -25 1621 -25 q 1368 48 1425 -25 q 1311 238 1311 121 q 1360 444 1311 349 q 1496 606 1410 539 q 1260 679 1392 679 q 1022 606 1124 679 q 1159 441 1110 536 q 1208 238 1208 346 q 1151 48 1208 121 q 996 -25 1093 -25 q 838 49 897 -25 q 778 238 778 122 q 816 436 778 342 q 924 601 854 531 q 621 679 788 679 q 371 633 478 679 q 207 506 264 588 q 150 317 150 424 q 185 177 150 240 q 281 75 219 114 q 243 193 243 128 q 272 306 243 256 q 353 383 301 356 q 471 411 406 411 q 591 383 538 411 q 674 304 644 354 q 704 190 704 254 q 674 80 704 129 q 591 3 644 31 q 471 -25 538 -25 q 272 19 360 -25 q 133 142 183 64 q 83 317 83 219 q 149 533 83 438 q 338 683 215 629 q 621 738 460 738 q 808 713 718 738 q 971 642 897 688 q 1260 738 1096 738 q 1550 642 1424 738 q 1824 713 1676 713 l 2296 713 l 2303 664 l 2024 664 m 1675 238 q 1640 419 1675 333 q 1540 568 1604 506 q 1421 423 1464 508 q 1378 238 1378 338 q 1416 90 1378 146 q 1524 33 1454 33 q 1633 91 1592 33 q 1675 238 1675 149 m 1142 238 q 1098 421 1142 336 q 975 567 1054 506 q 878 419 913 504 q 844 238 844 335 q 885 90 844 147 q 996 33 926 33 q 1103 90 1064 33 q 1142 238 1142 147 m 303 193 q 350 72 303 119 q 471 24 397 24 q 591 71 543 24 q 639 190 639 118 q 592 310 639 263 q 471 357 544 357 q 350 311 397 357 q 303 193 303 265 z "},"ன":{"ha":1783,"x_min":83,"x_max":1769,"o":"m 1490 664 l 1490 0 l 1429 0 l 1429 664 l 1290 664 q 1040 592 1151 664 q 1164 431 1119 522 q 1208 238 1208 340 q 1149 48 1208 121 q 993 -25 1090 -25 q 837 48 896 -25 q 778 238 778 121 q 822 433 778 342 q 943 589 865 524 q 794 656 876 632 q 621 679 713 679 q 371 633 478 679 q 207 506 264 588 q 150 317 150 424 q 185 177 150 240 q 281 75 219 114 q 243 193 243 128 q 272 306 243 256 q 353 383 301 356 q 471 411 406 411 q 591 383 538 411 q 674 304 644 354 q 704 190 704 254 q 674 80 704 129 q 591 3 644 31 q 471 -25 538 -25 q 272 19 360 -25 q 133 142 183 64 q 83 317 83 219 q 149 533 83 438 q 338 683 215 629 q 621 738 460 738 q 822 709 726 738 q 993 628 917 681 q 1290 713 1124 713 l 1764 713 l 1769 664 l 1490 664 m 1142 238 q 1102 413 1142 331 q 990 554 1063 494 q 883 413 921 494 q 844 238 844 331 q 885 90 844 147 q 993 33 925 33 q 1101 90 1061 33 q 1142 238 1142 147 m 303 193 q 350 72 303 119 q 471 24 397 24 q 591 71 543 24 q 639 190 639 118 q 592 310 639 263 q 471 357 544 357 q 350 311 397 357 q 303 193 303 265 z "},"ஞ":{"ha":1651,"x_min":111,"x_max":1568,"o":"m 1346 476 q 1465 439 1414 476 q 1542 338 1515 401 q 1568 199 1568 275 q 1485 -86 1568 36 q 1249 -275 1403 -208 q 885 -342 1094 -342 q 475 -266 650 -342 q 206 -53 300 -190 q 111 264 111 83 q 167 515 111 381 q 306 726 222 650 l 369 713 q 233 515 288 646 q 178 261 178 383 q 263 -25 178 99 q 508 -216 349 -149 q 885 -283 668 -283 q 1215 -224 1075 -283 q 1428 -54 1354 -164 q 1503 201 1503 56 q 1460 355 1503 292 q 1343 418 1418 418 q 1217 365 1267 418 q 1168 231 1168 313 l 1168 0 l 1107 0 l 1107 664 l 868 664 q 573 574 675 664 q 471 329 471 483 q 506 178 471 244 q 606 72 540 113 q 565 193 565 124 q 594 306 565 256 q 676 383 624 356 q 793 411 728 411 q 913 383 860 411 q 997 304 967 354 q 1026 190 1026 254 q 997 80 1026 129 q 913 3 967 31 q 793 -25 860 -25 q 589 20 676 -25 q 453 146 501 65 q 406 329 406 226 q 458 531 406 444 q 610 665 510 618 q 856 713 711 713 l 1442 713 l 1447 664 l 1168 664 l 1168 392 q 1246 454 1200 432 q 1346 476 1292 476 m 625 193 q 672 72 625 119 q 793 24 719 24 q 913 71 865 24 q 960 190 960 118 q 913 310 960 264 q 793 357 867 357 q 672 311 719 357 q 625 193 625 265 z "},"ஒ":{"ha":1138,"x_min":83,"x_max":1054,"o":"m 744 185 q 785 47 744 93 q 918 0 826 0 l 1000 0 l 1000 -49 l 918 -49 q 824 -36 864 -49 l 824 -69 q 792 -190 824 -136 q 703 -274 760 -243 q 575 -304 646 -304 q 447 -274 504 -304 q 358 -190 390 -243 q 326 -69 326 -136 l 326 0 l 388 0 l 388 -69 q 441 -199 388 -147 q 575 -250 494 -250 q 709 -199 656 -250 q 763 -69 763 -147 l 763 -4 q 690 185 690 54 l 690 374 l 751 374 q 788 272 753 311 q 874 233 822 233 q 988 392 988 233 q 933 541 988 475 q 783 644 878 607 q 568 682 688 682 q 351 642 447 682 q 199 533 254 603 q 144 374 144 463 q 149 325 144 349 q 201 419 158 383 q 306 456 244 456 q 422 410 376 456 q 468 296 468 365 q 421 185 468 229 q 301 142 374 142 q 189 172 239 142 q 111 254 139 201 q 83 374 83 307 q 146 563 83 479 q 319 694 208 647 q 568 742 429 742 q 818 697 707 742 q 992 572 929 651 q 1054 392 1054 492 q 1007 235 1054 294 q 874 175 960 175 q 801 192 835 175 q 744 239 768 208 l 744 185 m 304 400 q 226 371 257 400 q 196 294 196 342 q 226 223 196 251 q 301 194 256 194 q 375 223 346 194 q 406 296 404 251 q 377 371 406 342 q 304 400 349 400 z "},"ௐ":{"ha":1138,"x_min":83,"x_max":1054,"o":"m 744 185 q 785 47 744 93 q 918 0 826 0 l 1000 0 l 1000 -49 l 918 -49 q 824 -36 864 -49 l 824 -69 q 792 -190 824 -136 q 703 -274 760 -243 q 575 -304 646 -304 q 447 -274 504 -304 q 358 -190 390 -243 q 326 -69 326 -136 l 326 0 l 388 0 l 388 -69 q 441 -199 388 -147 q 575 -250 494 -250 q 709 -199 656 -250 q 763 -69 763 -147 l 763 -4 q 690 185 690 54 l 690 374 l 751 374 q 788 272 753 311 q 874 233 822 233 q 988 392 988 233 q 933 541 988 475 q 783 644 878 607 q 568 682 688 682 q 351 642 447 682 q 199 533 254 603 q 144 374 144 463 q 149 325 144 349 q 201 419 158 383 q 306 456 244 456 q 422 410 376 456 q 468 296 468 365 q 421 185 468 229 q 301 142 374 142 q 189 172 239 142 q 111 254 139 201 q 83 374 83 307 q 146 563 83 479 q 319 694 208 647 q 568 742 429 742 q 818 697 707 742 q 992 572 929 651 q 1054 392 1054 492 q 1007 235 1054 294 q 874 175 960 175 q 801 192 835 175 q 744 239 768 208 l 744 185 m 304 400 q 226 371 257 400 q 196 294 196 342 q 226 223 196 251 q 301 194 256 194 q 375 223 346 194 q 406 296 404 251 q 377 371 406 342 q 304 400 349 400 m 576 44 q 560 51 567 44 q 554 67 554 57 q 560 83 554 76 q 576 90 567 90 q 592 83 586 90 q 599 67 599 76 q 592 51 599 57 q 576 44 586 44 m 515 -100 l 560 -100 l 560 -43 q 574 3 560 -15 q 617 21 589 21 q 668 -1 650 21 q 686 -57 686 -22 q 667 -111 686 -90 q 614 -132 647 -132 l 481 -132 l 481 15 l 515 17 l 515 -100 m 617 -100 q 642 -88 632 -100 q 651 -57 651 -76 q 644 -23 651 -36 q 621 -10 636 -10 q 594 -44 594 -10 l 594 -100 l 617 -100 z "},"ஓ":{"ha":1138,"x_min":83,"x_max":1054,"o":"m 744 185 q 785 47 744 93 q 918 0 826 0 l 1000 0 l 1000 -49 l 918 -49 q 824 -36 865 -49 l 824 -69 q 787 -190 824 -136 q 685 -274 750 -243 q 538 -304 619 -304 q 403 -281 463 -304 q 309 -215 343 -257 q 275 -119 275 -172 q 322 -12 275 -54 q 440 29 368 29 l 469 29 l 469 -19 l 440 -19 q 365 -47 394 -19 q 336 -119 336 -75 q 393 -213 336 -176 q 538 -250 450 -250 q 699 -199 635 -250 q 763 -69 763 -147 l 763 -4 q 690 185 690 51 l 690 374 l 751 374 q 788 272 753 311 q 874 233 822 233 q 988 392 988 233 q 933 541 988 475 q 783 644 878 607 q 568 682 688 682 q 351 642 447 682 q 199 533 254 603 q 144 374 144 463 q 149 325 144 349 q 201 419 158 383 q 306 456 244 456 q 422 410 376 456 q 468 296 468 365 q 421 185 468 229 q 301 142 374 142 q 189 172 239 142 q 111 254 139 201 q 83 374 83 307 q 146 563 83 479 q 319 694 208 647 q 568 742 429 742 q 818 697 707 742 q 992 572 929 651 q 1054 392 1054 492 q 1007 235 1054 294 q 874 175 960 175 q 801 192 835 175 q 744 239 768 208 l 744 185 m 304 400 q 226 371 257 400 q 196 294 196 342 q 226 223 196 251 q 301 194 256 194 q 375 223 346 194 q 406 296 404 251 q 377 371 406 342 q 304 400 349 400 z "},"ப":{"ha":981,"x_min":139,"x_max":842,"o":"m 139 0 l 139 713 l 200 719 l 200 49 l 781 49 l 781 713 l 842 713 l 842 0 l 139 0 z "},"ர":{"ha":929,"x_min":139,"x_max":915,"o":"m 636 36 q 618 -85 636 -47 q 542 -160 600 -124 l 226 -347 l 197 -299 l 507 -111 q 563 -54 550 -85 q 575 46 575 -24 l 575 664 l 200 664 l 200 0 l 139 0 l 139 713 l 908 713 l 915 664 l 636 664 l 636 36 z "},"ற":{"ha":1076,"x_min":125,"x_max":993,"o":"m 718 738 q 923 624 853 738 q 993 321 993 510 q 886 -81 993 67 q 550 -228 779 -228 l 403 -228 q 264 -258 324 -228 q 172 -337 204 -287 l 125 -308 q 235 -215 160 -251 q 403 -179 311 -179 l 550 -179 q 838 -45 750 -179 q 926 321 926 89 q 874 582 926 485 q 722 679 822 679 q 606 626 649 679 q 563 469 563 572 l 563 0 l 501 0 l 501 444 q 458 614 501 549 q 338 679 414 679 q 226 626 265 679 q 186 469 186 574 l 186 0 l 125 0 l 125 468 q 181 667 125 597 q 332 738 238 738 q 449 701 399 738 q 526 601 499 665 q 606 702 554 667 q 718 738 657 738 z "},"ஸ":{"ha":1774,"x_min":83,"x_max":1690,"o":"m 1574 732 q 1661 526 1632 636 q 1690 326 1690 415 q 1626 70 1690 165 q 1447 -25 1563 -25 q 1277 53 1340 -25 q 1214 292 1214 132 l 1214 469 q 1068 679 1214 679 q 940 592 982 679 q 899 354 899 504 l 899 0 l 838 0 l 838 354 q 797 528 838 454 q 681 640 756 601 q 511 679 607 679 q 316 635 397 679 q 192 511 235 590 q 150 329 150 432 q 184 179 150 246 q 282 74 218 113 q 243 193 243 124 q 272 306 243 256 q 353 383 301 356 q 471 411 406 411 q 591 383 538 411 q 674 304 644 354 q 704 190 704 254 q 674 80 704 129 q 591 3 644 31 q 471 -25 538 -25 q 267 20 354 -25 q 131 146 179 65 q 83 329 83 226 q 135 541 83 449 q 283 685 186 633 q 511 738 379 738 q 720 685 629 738 q 858 539 811 633 q 1068 738 908 738 q 1219 672 1163 738 q 1275 468 1275 606 l 1275 292 q 1322 96 1275 158 q 1447 33 1368 33 q 1578 111 1531 33 q 1625 324 1625 189 q 1596 524 1625 413 q 1511 713 1567 635 l 1574 732 m 303 193 q 350 72 303 119 q 471 24 397 24 q 591 71 543 24 q 639 190 639 118 q 592 310 639 263 q 471 357 544 357 q 350 311 397 357 q 303 193 303 265 z "},"ஶ":{"ha":1386,"x_min":125,"x_max":1303,"o":"m 1040 713 q 1240 626 1176 713 q 1303 392 1303 540 q 1269 176 1303 271 q 1172 28 1235 82 q 1024 -25 1108 -25 q 869 37 926 -25 q 811 219 811 99 l 811 664 l 575 664 l 575 244 q 513 44 575 114 q 350 -25 451 -25 q 187 44 249 -25 q 125 244 125 114 l 125 713 l 186 719 l 186 243 q 231 88 186 142 q 350 33 276 33 q 469 88 424 33 q 514 243 514 142 l 514 713 l 1040 713 m 1029 33 q 1181 133 1126 33 q 1236 392 1236 232 q 1192 592 1236 521 q 1040 664 1149 664 l 872 664 l 872 218 q 915 77 872 121 q 1029 33 957 33 z "},"ஷ":{"ha":1867,"x_min":83,"x_max":1728,"o":"m 1442 0 l 1442 -337 l 1381 -337 l 1381 0 l 765 0 l 765 49 q 854 184 821 106 q 888 354 888 263 q 843 522 888 449 q 717 638 799 596 q 526 679 636 679 q 327 634 413 679 q 196 510 242 589 q 150 329 150 431 q 184 179 150 246 q 282 74 218 113 q 243 193 243 124 q 272 306 243 256 q 353 383 301 356 q 471 411 406 411 q 591 383 538 411 q 674 304 644 354 q 704 190 704 254 q 674 80 704 129 q 591 3 644 31 q 471 -25 538 -25 q 267 20 354 -25 q 131 146 179 65 q 83 329 83 226 q 138 540 83 447 q 294 685 193 633 q 526 738 394 738 q 751 688 654 738 q 900 552 847 639 q 953 354 953 465 q 925 188 953 268 q 850 49 897 107 l 1381 49 l 1381 301 q 1290 289 1336 289 q 1143 321 1206 289 q 1047 407 1081 353 q 1013 526 1014 461 q 1072 678 1013 619 q 1232 738 1132 738 q 1386 675 1331 738 q 1442 513 1442 613 l 1442 392 q 1570 504 1511 433 q 1667 664 1629 575 l 1728 664 l 1728 0 l 1442 0 m 1290 347 q 1381 364 1335 347 l 1381 506 q 1342 632 1381 585 q 1232 679 1304 679 q 1119 637 1161 679 q 1078 526 1078 594 q 1135 399 1078 450 q 1290 347 1192 347 m 1667 536 q 1567 410 1625 464 q 1442 325 1508 356 l 1442 49 l 1667 49 l 1667 536 m 303 193 q 350 72 303 119 q 471 24 397 24 q 591 71 543 24 q 639 190 639 118 q 592 310 639 263 q 471 357 544 357 q 350 311 397 357 q 303 193 303 265 z "},"த":{"ha":1018,"x_min":69,"x_max":949,"o":"m 661 399 q 810 361 744 399 q 912 257 875 324 q 949 107 949 190 q 899 -66 949 10 q 757 -185 849 -142 q 544 -228 665 -228 l 347 -228 q 208 -258 268 -228 q 117 -337 149 -287 l 69 -308 q 179 -215 103 -251 q 347 -179 256 -179 l 544 -179 q 724 -142 647 -179 q 841 -40 800 -106 q 882 107 882 25 q 854 232 882 176 q 776 319 826 288 q 663 350 726 350 l 629 350 l 629 285 q 546 56 629 136 q 328 -25 463 -25 q 192 3 251 -25 q 101 79 133 31 q 69 189 69 128 q 113 317 69 263 q 232 389 156 371 l 232 713 l 864 713 l 871 664 l 629 664 l 629 399 l 661 399 m 313 399 l 568 399 l 568 664 l 293 664 l 293 399 l 313 399 m 314 350 q 183 305 229 350 q 136 188 136 260 q 187 75 136 117 q 328 33 238 33 q 502 98 436 33 q 568 285 568 163 l 568 350 l 314 350 z "},"ட":{"ha":992,"x_min":139,"x_max":978,"o":"m 200 719 l 139 713 l 139 0 l 978 0 l 971 49 l 200 49 l 200 719 z "},"உ":{"ha":1339,"x_min":56,"x_max":1325,"o":"m 1325 0 l 104 0 l 104 49 l 439 49 q 601 91 531 49 q 712 209 672 133 q 751 379 751 285 q 713 535 751 467 q 603 641 674 603 q 440 679 532 679 q 271 641 343 679 q 158 535 199 603 q 282 572 214 572 q 435 517 375 572 q 496 376 496 461 q 433 231 496 288 q 275 174 371 174 q 118 233 181 174 q 56 382 56 292 q 103 565 56 485 q 239 692 151 646 q 440 738 326 738 q 635 691 549 738 q 769 563 721 644 q 818 379 818 482 q 769 179 818 265 q 632 49 721 93 l 1325 49 l 1325 0 m 282 519 q 165 480 211 519 q 119 379 119 440 q 163 273 119 314 q 275 232 207 232 q 385 273 342 232 q 429 376 429 314 q 388 478 429 438 q 282 519 346 519 z "},"ஊ":{"ha":2360,"x_min":56,"x_max":2346,"o":"m 2346 0 l 104 0 l 104 49 l 439 49 q 601 91 531 49 q 712 209 672 133 q 751 379 751 285 q 713 535 751 467 q 603 641 674 603 q 440 679 532 679 q 271 641 343 679 q 158 535 199 603 q 282 572 214 572 q 435 517 375 572 q 496 376 496 461 q 433 231 496 288 q 275 174 371 174 q 118 233 181 174 q 56 382 56 292 q 103 565 56 485 q 239 692 151 646 q 440 738 326 738 q 635 691 549 738 q 769 563 721 644 q 818 379 818 482 q 770 179 818 265 q 633 49 722 93 l 2346 49 l 2346 0 m 1282 104 q 1100 143 1175 104 q 988 249 1025 182 q 950 394 950 315 q 996 570 950 493 q 1124 691 1042 647 q 1313 735 1207 735 q 1490 690 1411 735 q 1615 568 1569 646 l 1615 713 l 2276 713 l 2283 664 l 2051 664 l 2051 125 l 1990 125 l 1990 664 l 1676 664 l 1676 125 l 1615 125 l 1615 372 q 1576 529 1615 460 q 1468 638 1538 599 q 1313 676 1399 676 q 1158 640 1226 676 q 1053 540 1090 604 q 1015 394 1015 475 q 1041 276 1015 328 q 1119 192 1067 224 q 1088 292 1088 235 q 1142 426 1088 374 q 1282 479 1197 479 q 1422 425 1367 479 q 1478 289 1478 371 q 1422 156 1478 208 q 1282 104 1367 104 m 282 519 q 165 480 211 519 q 119 379 119 440 q 163 273 119 314 q 275 232 207 232 q 385 273 342 232 q 429 376 429 314 q 388 478 429 438 q 282 519 346 519 m 1147 292 q 1185 192 1147 231 q 1282 153 1222 153 q 1379 191 1342 153 q 1417 289 1417 229 q 1379 387 1417 349 q 1282 425 1342 425 q 1185 388 1222 425 q 1147 292 1147 350 z "},"வ":{"ha":1426,"x_min":83,"x_max":1288,"o":"m 1288 0 l 765 0 l 765 49 q 854 184 821 106 q 888 354 888 263 q 845 522 888 449 q 721 638 803 596 q 526 679 639 679 q 327 634 413 679 q 196 510 242 589 q 150 329 150 431 q 184 179 150 246 q 282 74 218 113 q 243 193 243 124 q 272 306 243 256 q 353 383 301 356 q 471 411 406 411 q 591 383 538 411 q 674 304 644 354 q 704 190 704 254 q 674 80 704 129 q 591 3 644 31 q 471 -25 538 -25 q 267 20 354 -25 q 131 146 179 65 q 83 329 83 226 q 138 540 83 447 q 294 685 193 633 q 526 738 394 738 q 751 688 654 738 q 900 552 847 639 q 953 354 953 465 q 925 187 953 267 q 850 49 897 107 l 1226 49 l 1226 713 l 1288 713 l 1288 0 m 303 193 q 350 72 303 119 q 471 24 397 24 q 591 71 543 24 q 639 190 639 118 q 592 310 639 263 q 471 357 544 357 q 350 311 397 357 q 303 193 303 265 z "},"ஃ":{"ha":931,"x_min":83,"x_max":847,"o":"m 465 456 q 568 494 526 456 q 610 593 610 533 q 567 692 610 653 q 465 732 525 732 q 364 692 407 732 q 321 593 321 651 q 363 494 321 533 q 465 456 406 456 m 465 507 q 403 531 428 507 q 379 593 379 556 q 403 655 379 631 q 465 679 428 679 q 527 655 503 679 q 551 593 551 631 q 527 531 551 556 q 465 507 503 507 m 228 -19 q 331 20 289 -19 q 372 119 372 60 q 330 218 372 179 q 228 257 288 257 q 126 217 169 257 q 83 119 83 178 q 126 20 83 60 q 228 -19 168 -19 m 703 -19 q 806 20 764 -19 q 847 119 847 60 q 805 218 847 179 q 703 257 763 257 q 601 217 644 257 q 558 119 558 178 q 601 20 558 60 q 703 -19 643 -19 m 228 32 q 166 57 190 32 q 142 119 142 82 q 166 182 142 157 q 228 207 190 207 q 290 182 265 207 q 314 119 314 157 q 290 57 314 82 q 228 32 265 32 m 703 32 q 641 57 665 32 q 617 119 617 82 q 641 181 617 157 q 703 206 665 206 q 765 181 740 206 q 789 119 789 157 q 765 57 789 82 q 703 32 740 32 z "},"ய":{"ha":1231,"x_min":125,"x_max":1092,"o":"m 1092 0 l 526 0 l 526 72 q 452 0 497 25 q 350 -25 407 -25 q 185 41 246 -25 q 125 244 125 107 l 125 713 l 186 719 l 186 243 q 350 33 186 33 q 481 98 435 33 q 526 268 526 163 l 526 713 l 588 713 l 588 49 l 1031 49 l 1031 713 l 1092 713 l 1092 0 z "},"௮":{"ha":1465,"x_min":56,"x_max":1326,"o":"m 1326 -175 l 1265 -175 l 1265 125 l 996 125 q 791 -112 936 -24 q 454 -200 646 -200 q 249 -168 340 -200 q 107 -81 158 -136 q 56 43 56 -25 q 94 138 56 101 q 203 174 132 174 l 467 174 q 365 278 401 213 q 328 424 328 343 q 370 585 328 514 q 487 697 413 657 q 654 738 561 738 q 854 684 768 738 q 987 535 940 631 q 1033 319 1033 440 q 1013 174 1033 243 l 1265 174 l 1265 713 l 1326 713 l 1326 -175 m 944 174 q 967 319 967 239 q 929 506 967 425 q 821 633 892 588 q 654 679 750 679 q 520 646 579 679 q 428 554 461 613 q 394 424 394 496 q 427 296 394 353 q 517 206 460 239 q 647 174 575 174 l 944 174 m 454 -142 q 744 -70 619 -142 q 925 125 868 1 l 208 125 q 122 43 122 125 q 165 -53 122 -11 q 282 -118 207 -94 q 454 -142 357 -142 z "},"௫":{"ha":1696,"x_min":111,"x_max":1557,"o":"m 582 664 l 582 0 l 521 0 l 521 713 l 1214 713 l 1219 664 l 940 664 l 940 392 q 1018 454 972 432 q 1118 476 1064 476 q 1281 392 1222 476 q 1340 171 1340 307 q 1269 -103 1340 13 q 1067 -280 1197 -218 q 768 -342 938 -342 q 419 -256 568 -342 q 191 -15 271 -171 q 111 346 111 142 q 203 728 111 558 q 469 997 294 899 q 881 1094 643 1094 q 1225 1019 1071 1094 q 1468 801 1379 943 q 1557 469 1557 660 l 1557 0 l 1496 0 l 1496 467 q 1415 771 1496 642 q 1194 968 1333 900 q 881 1036 1054 1036 q 503 946 663 1036 q 261 698 344 856 q 178 343 178 540 q 249 14 178 156 q 454 -206 321 -128 q 768 -283 588 -283 q 1034 -229 919 -283 q 1212 -72 1149 -175 q 1275 174 1275 32 q 1233 351 1275 283 q 1115 418 1192 418 q 990 365 1039 418 q 940 231 940 313 l 940 0 l 879 0 l 879 664 l 582 664 z "},"௪":{"ha":1097,"x_min":69,"x_max":1028,"o":"m 629 350 l 629 285 q 546 56 629 136 q 328 -25 463 -25 q 192 3 251 -25 q 101 79 133 31 q 69 189 69 128 q 113 317 69 263 q 232 389 156 371 l 232 713 l 864 713 l 871 664 l 629 664 l 629 399 l 967 399 l 967 713 l 1028 713 l 1028 350 l 629 350 m 313 399 l 568 399 l 568 664 l 293 664 l 293 399 l 313 399 m 314 350 q 183 305 229 350 q 136 188 136 260 q 187 75 136 117 q 328 33 238 33 q 502 98 436 33 q 568 285 568 163 l 568 350 l 314 350 z "},"௯":{"ha":1283,"x_min":69,"x_max":1228,"o":"m 1011 435 q 1123 405 1074 435 q 1200 322 1172 375 q 1228 201 1228 268 q 1215 97 1228 143 q 1176 -8 1203 51 l 1114 0 q 1149 101 1136 46 q 1163 201 1163 157 q 1121 328 1163 281 q 1011 376 1079 376 q 925 360 964 376 q 1013 269 982 326 q 1044 144 1044 211 q 1003 24 1044 74 q 896 -25 961 -25 q 782 24 825 -25 q 739 144 739 72 q 811 347 739 267 q 776 350 789 350 l 629 350 l 629 285 q 546 56 629 136 q 328 -25 463 -25 q 192 3 251 -25 q 101 79 133 31 q 69 189 69 128 q 113 317 69 263 q 232 389 156 371 l 232 713 l 864 713 l 871 664 l 629 664 l 629 399 l 775 399 q 857 389 813 399 q 1011 435 925 435 m 313 399 l 568 399 l 568 664 l 293 664 l 293 399 l 313 399 m 314 350 q 183 305 229 350 q 136 188 136 260 q 187 75 136 117 q 328 33 238 33 q 502 98 436 33 q 568 285 568 163 l 568 350 l 314 350 m 978 144 q 951 255 978 207 q 875 326 924 303 q 821 249 840 296 q 801 144 801 203 q 828 65 801 97 q 896 33 854 33 q 954 65 931 33 q 978 144 978 97 z "},"௧":{"ha":1004,"x_min":69,"x_max":949,"o":"m 700 399 q 882 342 815 399 q 949 194 949 285 q 877 36 949 97 q 683 -25 806 -25 l 683 24 q 831 70 779 24 q 882 194 882 117 q 835 307 882 264 q 701 350 788 350 l 629 350 l 629 285 q 546 56 629 136 q 328 -25 463 -25 q 192 3 251 -25 q 101 79 133 31 q 69 189 69 128 q 113 317 69 263 q 232 389 156 371 l 232 713 l 864 713 l 871 664 l 629 664 l 629 399 l 700 399 m 313 399 l 568 399 l 568 664 l 293 664 l 293 399 l 313 399 m 314 350 q 183 305 229 350 q 136 188 136 260 q 187 75 136 117 q 328 33 238 33 q 502 98 436 33 q 568 285 568 163 l 568 350 l 314 350 z "},"௭":{"ha":1011,"x_min":83,"x_max":872,"o":"m 872 0 l 811 0 l 811 664 l 547 664 q 252 574 354 664 q 150 329 150 483 q 184 179 150 246 q 282 74 218 113 q 243 193 243 124 q 272 306 243 256 q 353 383 301 356 q 471 411 406 411 q 591 383 538 411 q 674 304 644 354 q 704 190 704 254 q 674 80 704 129 q 591 3 644 31 q 471 -25 538 -25 q 267 20 354 -25 q 131 146 179 65 q 83 329 83 226 q 135 531 83 444 q 289 665 188 618 q 535 713 390 713 l 872 713 l 872 0 m 303 193 q 350 72 303 119 q 471 24 397 24 q 591 71 543 24 q 639 190 639 118 q 592 310 639 263 q 471 357 544 357 q 350 311 397 357 q 303 193 303 265 z "},"௬":{"ha":1429,"x_min":69,"x_max":1415,"o":"m 1415 0 l 1001 0 l 1001 49 q 1152 95 1103 49 q 1201 219 1201 142 q 1160 333 1201 290 q 1042 376 1118 376 q 919 326 965 376 q 872 194 872 276 l 872 0 l 811 0 l 811 194 q 764 307 811 264 q 629 350 717 350 l 629 285 q 546 56 629 136 q 328 -25 463 -25 q 192 3 251 -25 q 101 79 133 31 q 69 189 69 128 q 113 317 69 263 q 232 389 156 371 l 232 713 l 864 713 l 871 664 l 629 664 l 629 399 q 754 375 701 399 q 838 310 807 351 q 922 401 867 368 q 1046 435 976 435 q 1209 375 1150 435 q 1268 218 1268 315 q 1245 120 1268 164 q 1178 49 1222 76 l 1415 49 l 1415 0 m 313 399 l 568 399 l 568 664 l 293 664 l 293 399 l 313 399 m 328 33 q 502 98 436 33 q 568 285 568 163 l 568 350 l 314 350 q 183 305 229 350 q 136 188 136 260 q 187 75 136 117 q 328 33 238 33 z "},"௩":{"ha":1131,"x_min":139,"x_max":1117,"o":"m 1117 0 l 475 0 l 475 49 l 639 49 q 754 78 703 49 q 834 158 806 107 q 863 274 863 210 q 822 399 863 350 q 710 447 781 447 q 585 394 633 447 q 536 260 536 342 l 536 197 l 475 197 l 475 664 l 200 664 l 200 0 l 139 0 l 139 713 l 808 713 l 815 664 l 536 664 l 536 422 q 614 485 568 463 q 714 507 660 507 q 872 440 814 507 q 929 271 929 374 q 899 139 929 196 q 814 49 869 82 l 1117 49 l 1117 0 z "},"௨":{"ha":1026,"x_min":56,"x_max":1013,"o":"m 1013 0 l 104 0 l 104 49 l 439 49 q 601 91 531 49 q 712 209 672 133 q 751 379 751 285 q 713 535 751 467 q 603 641 674 603 q 440 679 532 679 q 271 641 343 679 q 158 535 199 603 q 282 572 214 572 q 435 517 375 572 q 496 376 496 461 q 433 231 496 288 q 275 174 371 174 q 118 233 181 174 q 56 382 56 292 q 103 565 56 485 q 239 692 151 646 q 440 738 326 738 q 635 691 549 738 q 769 563 721 644 q 818 379 818 482 q 769 179 818 265 q 632 49 721 93 l 1013 49 l 1013 0 m 282 519 q 165 480 211 519 q 119 379 119 440 q 163 273 119 314 q 275 232 207 232 q 385 273 342 232 q 429 376 429 314 q 388 478 429 438 q 282 519 346 519 z "},"௦":{"ha":1011,"x_min":83,"x_max":928,"o":"m 506 738 q 725 689 629 738 q 874 553 821 640 q 928 357 928 467 q 874 159 928 246 q 725 24 821 72 q 506 -25 629 -25 q 287 24 382 -25 q 138 159 192 72 q 83 357 85 246 q 138 553 85 467 q 287 689 192 640 q 506 738 382 738 m 506 33 q 694 76 613 33 q 819 192 775 118 q 863 360 863 267 q 818 524 863 451 q 693 638 774 596 q 506 679 613 679 q 319 638 400 679 q 194 524 239 596 q 150 360 150 451 q 194 192 150 267 q 318 76 238 118 q 506 33 399 33 z "},"௱":{"ha":1317,"x_min":125,"x_max":1303,"o":"m 1024 664 l 1024 0 l 963 0 l 963 664 l 588 664 l 588 0 l 526 0 l 526 444 q 481 615 526 550 q 350 679 435 679 q 186 469 186 679 l 186 0 l 125 0 l 125 468 q 185 672 125 606 q 350 738 246 738 q 452 713 407 738 q 526 640 497 688 l 526 713 l 1296 713 l 1303 664 l 1024 664 z "},"௰":{"ha":1061,"x_min":83,"x_max":978,"o":"m 860 732 q 948 526 918 636 q 978 326 978 415 q 913 70 978 165 q 733 -25 849 -25 q 611 8 664 -25 q 531 111 558 42 q 449 8 501 42 q 328 -25 397 -25 q 147 70 211 -25 q 83 326 83 165 q 113 526 83 415 q 201 732 143 636 l 264 713 q 179 524 208 635 q 150 324 150 413 q 197 111 150 189 q 328 33 244 33 q 453 96 407 33 q 500 292 500 158 l 500 469 l 561 469 l 561 292 q 608 96 561 158 q 733 33 654 33 q 864 111 817 33 q 911 324 911 189 q 882 524 911 413 q 797 713 853 635 l 860 732 z "},"௲":{"ha":1399,"x_min":69,"x_max":1343,"o":"m 1124 186 q 1284 119 1225 186 q 1343 -53 1343 53 q 1304 -186 1343 -128 q 1193 -277 1265 -244 q 1026 -310 1121 -310 l 854 -310 q 746 -333 793 -310 q 675 -396 699 -357 l 626 -368 q 711 -291 654 -321 q 839 -261 768 -261 l 1026 -261 q 1209 -203 1142 -261 q 1276 -53 1276 -144 q 1236 85 1276 32 q 1124 138 1196 138 l 1097 138 l 1097 92 q 1032 -87 1097 -22 q 851 -151 967 -151 q 703 -105 760 -151 q 646 17 646 -58 q 699 140 646 93 q 849 186 753 186 l 1036 186 l 1036 350 l 629 350 l 629 285 q 546 56 629 136 q 328 -25 463 -25 q 192 3 251 -25 q 101 79 133 31 q 69 189 69 128 q 113 317 69 263 q 232 389 156 371 l 232 713 l 864 713 l 871 664 l 629 664 l 629 399 l 1279 399 l 1286 350 l 1097 350 l 1097 186 l 1124 186 m 313 399 l 568 399 l 568 664 l 293 664 l 293 399 l 313 399 m 314 350 q 183 305 229 350 q 136 188 136 260 q 187 75 136 117 q 328 33 238 33 q 502 98 436 33 q 568 285 568 163 l 568 350 l 314 350 m 851 138 q 748 103 783 138 q 713 15 713 69 q 750 -63 713 -33 q 851 -93 788 -93 q 988 -45 940 -93 q 1036 92 1036 3 l 1036 138 l 851 138 z "},"௹":{"ha":1451,"x_min":111,"x_max":1368,"o":"m 1146 476 q 1309 392 1250 476 q 1368 171 1368 307 q 1297 -94 1368 22 q 1097 -276 1226 -210 q 796 -342 967 -342 q 428 -251 582 -342 q 192 3 274 -160 q 111 374 111 165 q 201 818 111 626 q 448 1115 290 1010 q 806 1219 606 1219 q 1032 1181 929 1219 q 1193 1080 1135 1142 q 1251 954 1251 1018 q 1214 854 1251 892 q 1118 817 1176 817 q 1019 853 1058 817 q 979 946 979 890 q 1017 1037 979 1001 q 1115 1072 1056 1072 l 1129 1072 q 988 1137 1074 1114 q 806 1160 901 1160 q 480 1064 622 1160 q 258 789 338 968 q 178 371 178 610 q 250 31 178 179 q 462 -200 322 -117 q 796 -283 601 -283 q 1063 -225 949 -283 q 1240 -62 1178 -167 q 1303 174 1303 42 q 1261 351 1303 283 q 1143 418 1219 418 q 1017 365 1067 418 q 968 231 968 313 l 968 0 l 907 0 l 907 664 l 582 664 l 582 0 l 521 0 l 521 713 l 1242 713 l 1247 664 l 968 664 l 968 392 q 1045 454 999 432 q 1146 476 1092 476 m 1118 861 q 1179 885 1156 861 q 1203 944 1203 908 q 1179 1003 1203 981 q 1118 1026 1156 1026 q 1059 1003 1082 1026 q 1036 944 1036 981 q 1059 885 1036 908 q 1118 861 1082 861 z "},"௺":{"ha":1342,"x_min":139,"x_max":1342,"o":"m 1342 783 l 939 783 l 939 832 q 1078 880 1029 832 q 1128 1004 1128 928 q 1073 1117 1128 1075 q 931 1160 1018 1160 q 814 1140 868 1160 q 874 1047 853 1101 q 896 928 896 992 q 854 808 896 857 q 747 758 813 758 q 637 807 678 758 q 596 928 596 856 q 623 1049 596 993 q 700 1144 650 1104 q 619 1160 661 1160 q 506 1131 557 1160 q 427 1050 456 1101 q 399 933 399 999 q 423 820 399 871 q 490 741 447 769 q 585 713 532 713 l 808 713 l 815 664 l 536 664 l 536 392 q 614 454 568 432 q 714 476 660 476 q 879 393 822 476 q 936 171 936 310 q 893 -32 936 58 q 763 -175 850 -122 q 551 -228 676 -228 l 417 -228 q 278 -258 338 -228 q 186 -337 218 -287 l 139 -308 q 249 -215 172 -251 q 417 -179 325 -179 l 551 -179 q 727 -132 656 -179 q 835 -5 799 -85 q 871 174 871 75 q 831 353 871 288 q 710 418 790 418 q 585 365 633 418 q 536 231 536 313 l 536 0 l 475 0 l 475 664 l 200 664 l 200 0 l 139 0 l 139 713 l 435 713 q 360 806 388 749 q 333 933 333 864 q 370 1081 333 1015 q 472 1183 407 1146 q 619 1219 538 1219 q 760 1182 696 1219 q 931 1219 839 1219 q 1066 1192 1006 1219 q 1160 1115 1126 1164 q 1194 1004 1194 1065 q 1171 906 1194 950 q 1103 832 1147 861 l 1342 832 l 1342 783 m 831 928 q 810 1031 831 985 q 754 1110 790 1078 q 685 1032 710 1079 q 661 928 661 985 q 684 849 661 879 q 747 818 707 818 q 807 849 783 818 q 831 928 831 881 z "},"௴":{"ha":1608,"x_min":139,"x_max":1608,"o":"m 1608 783 l 1206 783 l 1206 832 q 1345 880 1296 832 q 1394 1004 1394 928 q 1340 1117 1394 1075 q 1196 1160 1285 1160 q 1081 1140 1135 1160 q 1141 1047 1119 1101 q 1163 928 1163 992 q 1121 808 1163 857 q 1014 758 1079 758 q 903 807 944 758 q 861 928 861 856 q 888 1049 861 993 q 965 1144 915 1104 q 885 1160 926 1160 q 772 1131 822 1160 q 694 1050 722 1101 q 665 933 665 999 q 692 813 665 865 q 767 735 719 761 q 944 603 879 717 q 1008 321 1008 490 q 944 86 1008 172 q 746 0 881 0 l 139 0 l 139 713 l 200 719 l 200 49 l 517 49 l 517 493 q 560 658 517 597 q 678 733 603 718 q 619 822 640 771 q 599 933 599 874 q 635 1081 599 1015 q 738 1183 672 1146 q 885 1219 803 1219 q 1026 1182 960 1219 q 1196 1219 1104 1219 q 1331 1192 1271 1219 q 1426 1115 1392 1164 q 1460 1004 1460 1065 q 1436 905 1460 950 q 1369 832 1413 860 l 1608 832 l 1608 783 m 1096 928 q 1076 1031 1096 985 q 1021 1110 1057 1078 q 952 1032 976 1079 q 928 928 928 985 q 951 849 928 879 q 1014 818 974 818 q 1072 849 1049 818 q 1096 928 1096 881 m 942 321 q 886 580 942 481 q 733 679 831 679 q 619 635 661 679 q 578 494 578 592 l 578 49 l 746 49 q 897 120 853 49 q 942 321 942 192 z "},"௸":{"ha":2514,"x_min":83,"x_max":2375,"o":"m 2089 0 l 2089 -337 l 2028 -337 l 2028 0 l 1428 0 l 1428 49 q 1491 214 1469 125 q 1513 376 1513 303 q 1442 597 1513 515 q 1235 679 1371 679 q 1019 608 1117 679 q 1158 443 1108 539 q 1208 238 1208 347 q 1151 48 1208 121 q 996 -25 1093 -25 q 838 49 897 -25 q 778 238 778 122 q 816 438 778 343 q 922 603 854 532 q 621 679 789 679 q 371 633 478 679 q 207 506 264 588 q 150 317 150 424 q 185 177 150 240 q 281 75 219 114 q 243 193 243 128 q 272 306 243 256 q 353 383 301 356 q 471 411 406 411 q 591 383 538 411 q 674 304 644 354 q 704 190 704 254 q 674 80 704 129 q 591 3 644 31 q 471 -25 538 -25 q 272 19 360 -25 q 133 142 183 64 q 83 317 83 219 q 149 533 83 438 q 338 683 215 629 q 621 738 460 738 q 968 644 813 738 q 1235 738 1086 738 q 1422 691 1344 738 q 1538 563 1499 644 q 1578 374 1578 481 q 1558 216 1578 301 q 1497 49 1538 131 l 2028 49 l 2028 301 q 1936 289 1982 289 q 1790 321 1853 289 q 1693 407 1726 353 q 1658 526 1660 461 q 1718 678 1658 619 q 1878 738 1778 738 q 2033 675 1976 738 q 2089 513 2089 613 l 2089 393 q 2217 504 2158 433 q 2314 664 2276 575 l 2375 664 l 2375 0 l 2089 0 m 1936 347 q 2028 364 1982 347 l 2028 506 q 1990 632 2028 585 q 1878 679 1951 679 q 1766 637 1807 679 q 1725 526 1725 594 q 1782 399 1725 450 q 1936 347 1839 347 m 1142 238 q 1097 422 1142 338 q 974 568 1053 507 q 878 421 913 507 q 844 238 844 335 q 885 90 844 147 q 996 33 926 33 q 1103 90 1064 33 q 1142 238 1142 147 m 2314 538 q 2214 412 2272 467 q 2089 325 2156 357 l 2089 49 l 2314 49 l 2314 538 m 303 193 q 350 72 303 119 q 471 24 397 24 q 591 71 543 24 q 639 190 639 118 q 592 310 639 263 q 471 357 544 357 q 350 311 397 357 q 303 193 303 265 z "},"௳":{"ha":1240,"x_min":83,"x_max":1226,"o":"m 1226 0 l 765 0 l 765 49 q 854 184 821 106 q 888 354 888 263 q 843 522 888 449 q 717 638 799 596 q 526 679 636 679 q 327 634 413 679 q 196 510 242 589 q 150 329 150 431 q 184 179 150 246 q 282 74 218 113 q 243 193 243 124 q 272 306 243 256 q 353 383 301 356 q 471 411 406 411 q 591 383 538 411 q 674 304 644 354 q 704 190 704 254 q 674 80 704 129 q 591 3 644 31 q 471 -25 538 -25 q 267 20 354 -25 q 131 146 179 65 q 83 329 83 226 q 138 540 83 447 q 294 685 193 633 q 526 738 394 738 q 751 688 654 738 q 900 552 847 639 q 953 354 953 465 q 925 188 953 268 q 850 49 897 107 l 1226 49 l 1226 0 m 303 193 q 350 72 303 119 q 471 24 397 24 q 591 71 543 24 q 639 190 639 118 q 592 310 639 263 q 471 357 544 357 q 350 311 397 357 q 303 193 303 265 z "},"௶":{"ha":1319,"x_min":139,"x_max":1181,"o":"m 840 -178 q 778 -322 832 -260 q 635 -417 724 -383 q 436 -450 546 -450 q 222 -401 304 -450 q 139 -267 139 -351 q 183 -167 139 -204 q 315 -129 226 -129 l 781 -129 l 781 0 l 139 0 l 139 713 l 200 719 l 200 49 l 781 49 l 781 713 l 842 713 l 842 -129 l 1119 -129 l 1119 713 l 1181 713 l 1181 -178 l 840 -178 m 436 -390 q 605 -363 529 -390 q 726 -288 681 -336 q 779 -178 772 -240 l 315 -178 q 233 -202 260 -178 q 206 -267 206 -226 q 269 -359 206 -328 q 436 -390 332 -390 z "},"௷":{"ha":1739,"x_min":83,"x_max":1725,"o":"m 1725 0 l 1347 0 l 1347 49 q 1477 95 1431 49 q 1524 214 1524 142 q 1472 331 1524 286 q 1339 376 1419 376 q 1200 347 1260 376 q 1276 258 1249 311 q 1304 144 1304 204 q 1263 24 1304 74 q 1156 -25 1221 -25 q 1044 24 1086 -25 q 1003 144 1003 72 q 1025 256 1003 204 q 1089 344 1047 307 q 1040 350 1068 350 l 872 350 l 872 0 l 811 0 l 811 664 l 547 664 q 252 574 354 664 q 150 329 150 483 q 184 179 150 246 q 282 74 218 113 q 243 193 243 124 q 272 306 243 256 q 353 383 301 356 q 471 411 406 411 q 591 383 538 411 q 674 304 644 354 q 704 190 704 254 q 674 80 704 129 q 591 3 644 31 q 471 -25 538 -25 q 267 20 354 -25 q 131 146 179 65 q 83 329 83 226 q 135 531 83 444 q 289 665 188 618 q 535 713 390 713 l 1144 713 l 1151 664 l 872 664 l 872 399 l 1040 399 q 1138 382 1093 399 q 1339 435 1225 435 q 1519 374 1449 435 q 1590 214 1590 313 q 1568 119 1590 163 q 1503 49 1546 76 l 1725 49 l 1725 0 m 303 193 q 350 72 303 119 q 471 24 397 24 q 591 71 543 24 q 639 190 639 118 q 592 310 639 263 q 471 357 544 357 q 350 311 397 357 q 303 193 303 265 m 1239 144 q 1216 247 1239 201 q 1153 318 1193 292 q 1091 243 1113 288 q 1069 144 1069 199 q 1092 65 1069 96 q 1156 33 1115 33 q 1215 65 1190 33 q 1239 144 1239 97 z "},"௵":{"ha":2390,"x_min":111,"x_max":2307,"o":"m 2085 476 q 2248 392 2189 476 q 2307 171 2307 307 q 2126 -199 2307 -85 q 1624 -314 1944 -314 l 801 -314 q 438 -240 594 -314 q 197 -34 282 -165 q 111 264 111 97 q 167 515 111 381 q 306 726 222 650 l 369 713 q 233 515 288 646 q 178 261 178 383 q 254 -11 178 108 q 472 -198 331 -131 q 801 -265 614 -265 l 1624 -265 q 2074 -159 1907 -265 q 2242 174 2242 -53 q 2199 351 2242 283 q 2081 418 2157 418 q 1956 365 2006 418 q 1907 231 1907 311 l 1907 0 l 1846 0 l 1846 664 l 1558 664 l 1558 0 l 1086 0 l 1086 49 q 1175 184 1142 106 q 1208 354 1208 263 q 1166 523 1208 450 q 1042 638 1124 596 q 847 679 961 679 q 649 634 735 679 q 517 510 564 589 q 471 329 471 431 q 506 178 471 244 q 606 72 540 113 q 565 193 565 124 q 594 306 565 256 q 676 383 624 356 q 793 411 728 411 q 913 383 860 411 q 997 304 967 354 q 1026 190 1026 254 q 997 80 1026 129 q 913 3 967 31 q 793 -25 860 -25 q 589 20 676 -25 q 453 146 501 65 q 406 329 406 226 q 460 540 406 447 q 615 685 515 633 q 847 738 715 738 q 1072 688 975 738 q 1222 552 1169 639 q 1275 354 1275 465 q 1247 188 1275 268 q 1171 49 1219 107 l 1497 49 l 1497 713 l 2181 713 l 2186 664 l 1907 664 l 1907 392 q 1985 454 1939 432 q 2085 476 2031 476 m 625 193 q 672 72 625 119 q 793 24 719 24 q 913 71 865 24 q 960 190 960 118 q 913 310 960 264 q 793 357 867 357 q 672 311 719 357 q 625 193 625 265 z "},"ௗ":{"ha":1665,"x_min":83,"x_max":1651,"o":"m 1372 664 l 1372 0 l 1311 0 l 1311 664 l 936 664 l 936 0 l 875 0 l 875 317 q 828 503 875 421 q 699 633 782 586 q 514 679 617 679 q 318 635 400 679 q 193 510 236 590 q 150 329 150 431 q 184 179 150 246 q 282 74 218 113 q 243 193 243 124 q 272 306 243 256 q 353 383 301 356 q 471 411 406 411 q 591 383 538 411 q 674 304 644 354 q 704 190 704 254 q 674 80 704 129 q 591 3 644 31 q 471 -25 538 -25 q 267 20 354 -25 q 131 146 179 65 q 83 329 83 226 q 135 541 83 449 q 285 685 188 633 q 514 738 382 738 q 728 683 633 738 q 875 533 822 629 l 875 713 l 1644 713 l 1651 664 l 1372 664 m 303 193 q 350 72 303 119 q 471 24 397 24 q 591 71 543 24 q 639 190 639 118 q 592 310 639 263 q 471 357 544 357 q 350 311 397 357 q 303 193 303 265 z "},"ா":{"ha":901,"x_min":139,"x_max":888,"o":"m 547 0 l 547 664 l 200 664 l 200 0 l 139 0 l 139 713 l 881 713 l 888 664 l 608 664 l 608 0 l 547 0 z "},"ை":{"ha":1661,"x_min":83,"x_max":1578,"o":"m 1235 738 q 1422 691 1344 738 q 1538 563 1499 644 q 1578 374 1578 481 q 1549 182 1578 286 q 1461 -19 1519 78 l 1399 0 q 1483 184 1454 79 q 1513 376 1513 289 q 1442 597 1513 515 q 1235 679 1371 679 q 1019 608 1117 679 q 1158 443 1108 539 q 1208 238 1208 347 q 1151 48 1208 121 q 996 -25 1093 -25 q 838 49 897 -25 q 778 238 778 122 q 816 438 778 343 q 922 603 854 532 q 621 679 789 679 q 371 633 478 679 q 207 506 264 588 q 150 317 150 424 q 185 177 150 240 q 281 75 219 114 q 243 193 243 128 q 272 306 243 256 q 353 383 301 356 q 471 411 406 411 q 591 383 538 411 q 674 304 644 354 q 704 190 704 254 q 674 80 704 129 q 591 3 644 31 q 471 -25 538 -25 q 272 19 360 -25 q 133 142 183 64 q 83 317 83 219 q 149 533 83 438 q 338 683 215 629 q 621 738 460 738 q 968 644 813 738 q 1235 738 1086 738 m 1142 238 q 1097 422 1142 338 q 974 568 1053 507 q 878 421 913 507 q 844 238 844 335 q 885 90 844 147 q 996 33 926 33 q 1103 90 1064 33 q 1142 238 1142 147 m 303 193 q 350 72 303 119 q 471 24 397 24 q 591 71 543 24 q 639 190 639 118 q 592 310 639 263 q 471 357 544 357 q 350 311 397 357 q 303 193 303 265 z "},"ௌ":{"ha":3464,"x_min":83,"x_max":3450,"o":"m 526 938 q 750 883 654 938 q 897 726 846 829 q 949 479 949 622 l 949 0 l 888 0 l 888 479 q 792 775 888 671 q 526 879 696 879 q 327 826 413 879 q 196 676 242 772 q 150 454 150 579 q 177 272 150 356 q 253 129 204 189 q 243 193 243 158 q 272 306 243 256 q 353 383 301 356 q 471 411 406 411 q 591 383 538 411 q 674 304 644 354 q 704 190 704 254 q 674 80 704 129 q 591 3 644 31 q 471 -25 538 -25 q 272 37 360 -25 q 133 208 183 99 q 83 454 83 317 q 138 703 83 593 q 294 875 193 813 q 526 938 394 938 m 471 357 q 350 311 397 357 q 303 193 303 265 q 350 72 303 119 q 471 24 397 24 q 591 71 543 24 q 639 190 639 118 q 592 310 639 263 q 471 357 544 357 m 3171 664 l 3171 0 l 3110 0 l 3110 664 l 2735 664 l 2735 0 l 2674 0 l 2674 317 q 2627 503 2674 421 q 2498 633 2581 586 q 2313 679 2415 679 q 2117 635 2199 679 q 1992 510 2035 590 q 1949 329 1949 431 q 1983 179 1949 246 q 2081 74 2017 113 q 2042 193 2042 124 q 2071 306 2042 256 q 2152 383 2100 356 q 2269 411 2204 411 q 2390 383 2336 411 q 2473 304 2443 354 q 2503 190 2503 254 q 2473 80 2503 129 q 2390 3 2443 31 q 2269 -25 2336 -25 q 2065 20 2153 -25 q 1930 146 1978 65 q 1882 329 1882 226 q 1934 541 1882 449 q 2083 685 1986 633 q 2313 738 2181 738 q 2526 683 2432 738 q 2674 533 2621 629 l 2674 713 l 3443 713 l 3450 664 l 3171 664 m 2101 193 q 2149 72 2101 119 q 2269 24 2196 24 q 2390 71 2342 24 q 2438 190 2438 118 q 2390 310 2438 263 q 2269 357 2343 357 q 2149 311 2196 357 q 2101 193 2101 265 m 1431 638 q 1460 649 1449 638 q 1471 678 1471 660 q 1460 708 1471 696 q 1431 719 1449 719 q 1401 708 1413 719 q 1390 678 1390 696 q 1401 649 1390 660 q 1431 638 1413 638 m 1307 697 q 1278 686 1289 697 q 1267 657 1267 675 q 1278 628 1267 639 q 1307 617 1289 617 q 1336 628 1325 617 q 1347 657 1347 639 q 1336 686 1347 675 q 1307 697 1325 697 m 1556 617 q 1585 628 1574 617 q 1596 657 1596 639 q 1585 686 1596 675 q 1556 697 1574 697 q 1526 686 1538 697 q 1515 657 1515 675 q 1526 628 1515 639 q 1556 617 1538 617 m 1201 628 q 1172 616 1183 628 q 1160 586 1160 604 q 1172 557 1160 568 q 1201 546 1183 546 q 1231 557 1219 546 q 1242 586 1242 568 q 1231 616 1242 604 q 1201 628 1219 628 m 1661 546 q 1691 557 1679 546 q 1703 586 1703 568 q 1691 616 1703 604 q 1661 628 1679 628 q 1632 616 1643 628 q 1621 586 1621 604 q 1632 557 1621 568 q 1661 546 1643 546 m 1135 518 q 1105 506 1117 518 q 1093 476 1093 494 q 1105 447 1093 458 q 1135 436 1117 436 q 1164 447 1153 436 q 1175 476 1175 458 q 1164 506 1175 494 q 1135 518 1153 518 m 1728 436 q 1757 447 1746 436 q 1768 476 1768 458 q 1757 506 1768 494 q 1728 518 1746 518 q 1699 506 1710 518 q 1688 476 1688 494 q 1699 447 1688 458 q 1728 436 1710 436 m 1115 399 q 1085 387 1097 399 q 1074 357 1074 375 q 1085 328 1074 339 q 1115 318 1097 318 q 1144 328 1133 318 q 1156 357 1156 339 q 1144 387 1156 375 q 1115 399 1133 399 m 1747 318 q 1777 328 1765 318 q 1789 357 1789 339 q 1777 387 1789 375 q 1747 399 1765 399 q 1718 387 1729 399 q 1707 357 1707 375 q 1718 328 1707 339 q 1747 318 1729 318 m 1135 282 q 1105 271 1117 282 q 1093 242 1093 260 q 1105 213 1093 224 q 1135 201 1117 201 q 1164 213 1153 201 q 1175 242 1175 224 q 1164 271 1175 260 q 1135 282 1153 282 m 1728 201 q 1757 213 1746 201 q 1768 242 1768 224 q 1757 271 1768 260 q 1728 282 1746 282 q 1699 271 1710 282 q 1688 242 1688 260 q 1699 213 1688 224 q 1728 201 1710 201 m 1200 171 q 1170 160 1182 171 q 1158 131 1158 149 q 1170 101 1158 113 q 1200 90 1182 90 q 1229 101 1218 90 q 1240 131 1240 113 q 1229 160 1240 149 q 1200 171 1218 171 m 1663 90 q 1692 101 1681 90 q 1704 131 1704 113 q 1692 160 1704 149 q 1663 171 1681 171 q 1633 160 1644 171 q 1622 131 1622 149 q 1633 101 1622 113 q 1663 90 1644 90 m 1307 103 q 1278 91 1289 103 q 1267 61 1267 79 q 1278 32 1267 43 q 1307 21 1289 21 q 1336 32 1325 21 q 1347 61 1347 43 q 1336 91 1347 79 q 1307 103 1325 103 m 1556 21 q 1585 32 1574 21 q 1596 61 1596 43 q 1585 91 1596 79 q 1556 103 1574 103 q 1526 91 1538 103 q 1515 61 1515 79 q 1526 32 1515 43 q 1556 21 1538 21 m 1431 0 q 1460 11 1449 0 q 1471 40 1471 22 q 1460 70 1471 58 q 1431 82 1449 82 q 1401 70 1413 82 q 1390 40 1390 58 q 1401 11 1390 22 q 1431 0 1413 0 z "},"ெ":{"ha":1088,"x_min":83,"x_max":949,"o":"m 526 938 q 750 883 654 938 q 897 726 846 829 q 949 479 949 622 l 949 0 l 888 0 l 888 479 q 792 775 888 671 q 526 879 696 879 q 327 826 413 879 q 196 676 242 772 q 150 454 150 579 q 177 272 150 356 q 253 129 204 189 q 243 193 243 158 q 272 306 243 256 q 353 383 301 356 q 471 411 406 411 q 591 383 538 411 q 674 304 644 354 q 704 190 704 254 q 674 80 704 129 q 591 3 644 31 q 471 -25 538 -25 q 272 37 360 -25 q 133 208 183 99 q 83 454 83 317 q 138 703 83 593 q 294 875 193 813 q 526 938 394 938 m 471 357 q 350 311 397 357 q 303 193 303 265 q 350 72 303 119 q 471 24 397 24 q 591 71 543 24 q 639 190 639 118 q 592 310 639 263 q 471 357 544 357 z "},"ே":{"ha":922,"x_min":83,"x_max":839,"o":"m 647 365 q 785 314 731 365 q 839 182 839 263 q 760 32 839 89 q 558 -25 682 -25 q 310 39 418 -25 q 142 213 201 103 q 83 457 83 324 q 142 700 83 590 q 310 874 201 810 q 558 938 418 938 q 760 881 682 938 q 839 731 839 824 q 785 599 839 650 q 647 547 731 547 q 515 599 567 547 q 463 732 463 651 q 483 819 463 779 q 539 882 503 858 q 339 824 428 881 q 200 670 250 767 q 150 457 150 574 q 200 244 150 340 q 338 90 250 147 q 538 32 426 33 q 482 96 501 57 q 463 182 463 135 q 515 313 463 261 q 647 365 567 365 m 650 601 q 740 638 704 601 q 775 731 775 675 q 740 826 775 788 q 651 864 704 864 q 560 826 596 864 q 525 732 525 789 q 560 638 525 675 q 650 601 596 601 m 650 311 q 560 274 596 311 q 525 182 525 238 q 560 87 525 125 q 651 49 596 49 q 740 87 704 49 q 775 182 775 125 q 740 274 775 238 q 650 311 704 311 z "},"ி":{"ha":339,"x_min":-504,"x_max":200,"o":"m -190 1107 q 15 1055 -74 1107 q 152 910 104 1003 q 200 699 200 817 l 200 0 l 139 0 l 139 699 q 99 881 139 801 q -15 1005 60 961 q -190 1049 -90 1049 q -372 1000 -306 1049 q -437 871 -437 951 q -382 754 -437 796 q -226 713 -326 713 l -193 713 l -193 663 l -226 663 q -428 719 -354 663 q -504 871 -503 776 q -466 993 -504 939 q -357 1077 -428 1047 q -190 1107 -286 1107 z "},"ொ":{"ha":2650,"x_min":83,"x_max":2608,"o":"m 526 938 q 750 883 654 938 q 897 726 846 829 q 949 479 949 622 l 949 0 l 888 0 l 888 479 q 792 775 888 671 q 526 879 696 879 q 327 826 413 879 q 196 676 242 772 q 150 454 150 579 q 177 272 150 356 q 253 129 204 189 q 243 193 243 158 q 272 306 243 256 q 353 383 301 356 q 471 411 406 411 q 591 383 538 411 q 674 304 644 354 q 704 190 704 254 q 674 80 704 129 q 591 3 644 31 q 471 -25 538 -25 q 272 37 360 -25 q 133 208 183 99 q 83 454 83 317 q 138 703 83 593 q 294 875 193 813 q 526 938 394 938 m 471 357 q 350 311 397 357 q 303 193 303 265 q 350 72 303 119 q 471 24 397 24 q 591 71 543 24 q 639 190 639 118 q 592 310 639 263 q 471 357 544 357 m 2268 0 l 2268 664 l 1921 664 l 1921 0 l 1860 0 l 1860 713 l 2601 713 l 2608 664 l 2329 664 l 2329 0 l 2268 0 m 1408 638 q 1438 649 1426 638 q 1449 678 1449 660 q 1438 708 1449 696 q 1408 719 1426 719 q 1379 708 1390 719 q 1368 678 1368 696 q 1379 649 1368 660 q 1408 638 1390 638 m 1285 697 q 1256 686 1267 697 q 1244 657 1244 675 q 1256 628 1244 639 q 1285 617 1267 617 q 1314 628 1303 617 q 1325 657 1325 639 q 1314 686 1325 675 q 1285 697 1303 697 m 1533 617 q 1563 628 1551 617 q 1574 657 1574 639 q 1563 686 1574 675 q 1533 697 1551 697 q 1504 686 1515 697 q 1493 657 1493 675 q 1504 628 1493 639 q 1533 617 1515 617 m 1179 628 q 1149 616 1161 628 q 1138 586 1138 604 q 1149 557 1138 568 q 1179 546 1161 546 q 1208 557 1197 546 q 1219 586 1219 568 q 1208 616 1219 604 q 1179 628 1197 628 m 1639 546 q 1669 557 1657 546 q 1681 586 1681 568 q 1669 616 1681 604 q 1639 628 1657 628 q 1610 616 1621 628 q 1599 586 1599 604 q 1610 557 1599 568 q 1639 546 1621 546 m 1113 518 q 1083 506 1094 518 q 1071 476 1071 494 q 1083 447 1071 458 q 1113 436 1094 436 q 1142 447 1131 436 q 1153 476 1153 458 q 1142 506 1153 494 q 1113 518 1131 518 m 1706 436 q 1735 447 1724 436 q 1746 476 1746 458 q 1735 506 1746 494 q 1706 518 1724 518 q 1676 506 1688 518 q 1665 476 1665 494 q 1676 447 1665 458 q 1706 436 1688 436 m 1093 399 q 1063 387 1075 399 q 1051 357 1051 375 q 1063 328 1051 339 q 1093 318 1075 318 q 1122 328 1111 318 q 1133 357 1133 339 q 1122 387 1133 375 q 1093 399 1111 399 m 1725 318 q 1755 328 1743 318 q 1767 357 1767 339 q 1755 387 1767 375 q 1725 399 1743 399 q 1696 387 1707 399 q 1685 357 1685 375 q 1696 328 1685 339 q 1725 318 1707 318 m 1113 282 q 1083 271 1094 282 q 1071 242 1071 260 q 1083 213 1071 224 q 1113 201 1094 201 q 1142 213 1131 201 q 1153 242 1153 224 q 1142 271 1153 260 q 1113 282 1131 282 m 1706 201 q 1735 213 1724 201 q 1746 242 1746 224 q 1735 271 1746 260 q 1706 282 1724 282 q 1676 271 1688 282 q 1665 242 1665 260 q 1676 213 1665 224 q 1706 201 1688 201 m 1178 171 q 1148 160 1160 171 q 1136 131 1136 149 q 1148 101 1136 113 q 1178 90 1160 90 q 1207 101 1196 90 q 1218 131 1218 113 q 1207 160 1218 149 q 1178 171 1196 171 m 1640 90 q 1670 101 1658 90 q 1682 131 1682 113 q 1670 160 1682 149 q 1640 171 1658 171 q 1611 160 1622 171 q 1600 131 1600 149 q 1611 101 1600 113 q 1640 90 1622 90 m 1285 103 q 1256 91 1267 103 q 1244 61 1244 79 q 1256 32 1244 43 q 1285 21 1267 21 q 1314 32 1303 21 q 1325 61 1325 43 q 1314 91 1325 79 q 1285 103 1303 103 m 1533 21 q 1563 32 1551 21 q 1574 61 1574 43 q 1563 91 1574 79 q 1533 103 1551 103 q 1504 91 1515 103 q 1493 61 1493 79 q 1504 32 1493 43 q 1533 21 1515 21 m 1408 0 q 1438 11 1426 0 q 1449 40 1449 22 q 1438 70 1449 58 q 1408 82 1426 82 q 1379 70 1390 82 q 1368 40 1368 58 q 1379 11 1368 22 q 1408 0 1390 0 z "},"ோ":{"ha":2519,"x_min":83,"x_max":2478,"o":"m 647 365 q 785 314 731 365 q 839 182 839 263 q 760 32 839 89 q 558 -25 682 -25 q 310 39 418 -25 q 142 213 201 103 q 83 457 83 324 q 142 700 83 590 q 310 874 201 810 q 558 938 418 938 q 760 881 682 938 q 839 731 839 824 q 785 599 839 650 q 647 547 731 547 q 515 599 567 547 q 463 732 463 651 q 483 819 463 779 q 539 882 503 858 q 339 824 428 881 q 200 670 250 767 q 150 457 150 574 q 200 244 150 340 q 338 90 250 147 q 538 32 426 33 q 482 96 501 57 q 463 182 463 135 q 515 313 463 261 q 647 365 567 365 m 650 601 q 740 638 704 601 q 775 731 775 675 q 740 826 775 788 q 651 864 704 864 q 560 826 596 864 q 525 732 525 789 q 560 638 525 675 q 650 601 596 601 m 650 311 q 560 274 596 311 q 525 182 525 238 q 560 87 525 125 q 651 49 596 49 q 740 87 704 49 q 775 182 775 125 q 740 274 775 238 q 650 311 704 311 m 2138 0 l 2138 664 l 1790 664 l 1790 0 l 1729 0 l 1729 713 l 2471 713 l 2478 664 l 2199 664 l 2199 0 l 2138 0 m 1272 638 q 1301 649 1290 638 q 1313 678 1313 660 q 1301 708 1313 696 q 1272 719 1290 719 q 1243 708 1254 719 q 1232 678 1232 696 q 1243 649 1232 660 q 1272 638 1254 638 m 1149 697 q 1119 686 1131 697 q 1108 657 1108 675 q 1119 628 1108 639 q 1149 617 1131 617 q 1178 628 1167 617 q 1189 657 1189 639 q 1178 686 1189 675 q 1149 697 1167 697 m 1397 617 q 1426 628 1415 617 q 1438 657 1438 639 q 1426 686 1438 675 q 1397 697 1415 697 q 1368 686 1379 697 q 1357 657 1357 675 q 1368 628 1357 639 q 1397 617 1379 617 m 1043 628 q 1013 616 1025 628 q 1001 586 1001 604 q 1013 557 1001 568 q 1043 546 1025 546 q 1072 557 1061 546 q 1083 586 1083 568 q 1072 616 1083 604 q 1043 628 1061 628 m 1503 546 q 1533 557 1521 546 q 1544 586 1544 568 q 1533 616 1544 604 q 1503 628 1521 628 q 1474 616 1485 628 q 1463 586 1463 604 q 1474 557 1463 568 q 1503 546 1485 546 m 976 518 q 947 506 958 518 q 935 476 935 494 q 947 447 935 458 q 976 436 958 436 q 1006 447 994 436 q 1017 476 1017 458 q 1006 506 1017 494 q 976 518 994 518 m 1569 436 q 1599 447 1588 436 q 1610 476 1610 458 q 1599 506 1610 494 q 1569 518 1588 518 q 1540 506 1551 518 q 1529 476 1529 494 q 1540 447 1529 458 q 1569 436 1551 436 m 957 399 q 927 387 939 399 q 915 357 915 375 q 927 328 915 339 q 957 318 939 318 q 986 328 975 318 q 997 357 997 339 q 986 387 997 375 q 957 399 975 399 m 1589 318 q 1619 328 1607 318 q 1631 357 1631 339 q 1619 387 1631 375 q 1589 399 1607 399 q 1560 387 1571 399 q 1549 357 1549 375 q 1560 328 1549 339 q 1589 318 1571 318 m 976 282 q 947 271 958 282 q 935 242 935 260 q 947 213 935 224 q 976 201 958 201 q 1006 213 994 201 q 1017 242 1017 224 q 1006 271 1017 260 q 976 282 994 282 m 1569 201 q 1599 213 1588 201 q 1610 242 1610 224 q 1599 271 1610 260 q 1569 282 1588 282 q 1540 271 1551 282 q 1529 242 1529 260 q 1540 213 1529 224 q 1569 201 1551 201 m 1042 171 q 1012 160 1024 171 q 1000 131 1000 149 q 1012 101 1000 113 q 1042 90 1024 90 q 1071 101 1060 90 q 1082 131 1082 113 q 1071 160 1082 149 q 1042 171 1060 171 m 1504 90 q 1534 101 1522 90 q 1546 131 1546 113 q 1534 160 1546 149 q 1504 171 1522 171 q 1475 160 1486 171 q 1464 131 1464 149 q 1475 101 1464 113 q 1504 90 1486 90 m 1149 103 q 1119 91 1131 103 q 1108 61 1108 79 q 1119 32 1108 43 q 1149 21 1131 21 q 1178 32 1167 21 q 1189 61 1189 43 q 1178 91 1189 79 q 1149 103 1167 103 m 1397 21 q 1426 32 1415 21 q 1438 61 1438 43 q 1426 91 1438 79 q 1397 103 1415 103 q 1368 91 1379 103 q 1357 61 1357 79 q 1368 32 1357 43 q 1397 21 1379 21 m 1272 0 q 1301 11 1290 0 q 1313 40 1313 22 q 1301 70 1313 58 q 1272 82 1290 82 q 1243 70 1254 82 q 1232 40 1232 58 q 1243 11 1232 22 q 1272 0 1254 0 z "},"ு":{"ha":639,"x_min":-200,"x_max":583,"o":"m 350 713 q 470 685 417 713 q 553 608 524 657 q 583 497 583 558 q 553 384 583 435 q 470 305 524 333 q 350 276 417 276 q 233 305 285 276 q 151 383 181 333 q 122 494 122 433 q 144 591 122 547 q 203 664 165 635 l -200 664 l -200 713 l 350 713 m 350 331 q 471 378 424 331 q 518 497 518 425 q 471 617 518 569 q 350 664 424 664 q 229 616 276 664 q 182 494 182 568 q 229 376 182 422 q 350 331 276 331 z "},"ூ":{"ha":907,"x_min":-200,"x_max":851,"o":"m 500 850 q 681 805 601 850 q 806 679 761 760 q 851 497 851 599 q 799 310 851 393 q 652 179 746 226 q 442 132 558 132 l 361 132 l 361 181 l 442 181 q 619 222 542 181 q 741 335 697 263 q 785 497 785 407 q 749 651 785 585 q 649 755 714 718 q 500 792 585 792 q 372 771 431 792 q 271 713 314 750 l 338 713 q 512 652 446 713 q 578 497 578 592 q 549 384 578 435 q 470 305 521 333 q 357 276 419 276 q 237 306 290 276 q 153 389 183 336 q 122 507 122 442 q 160 664 122 592 l -200 664 l -200 713 l 192 713 q 323 814 243 778 q 500 850 403 850 m 518 497 q 469 617 518 571 q 338 664 419 664 l 228 664 q 182 507 182 596 q 231 381 182 431 q 357 331 281 331 q 472 378 426 331 q 518 497 518 425 z "},"ஂ":{"ha":0,"x_min":-144,"x_max":144,"o":"m 0 886 q 103 925 61 886 q 144 1024 144 964 q 103 1124 144 1085 q 0 1163 61 1163 q -101 1123 -58 1163 q -144 1024 -144 1083 q -102 926 -144 965 q 0 886 -60 886 m 0 938 q -60 962 -36 938 q -85 1024 -85 986 q -60 1085 -85 1061 q 0 1110 -36 1110 q 62 1085 38 1110 q 86 1024 86 1061 q 62 962 86 986 q 0 938 38 938 z "},"்":{"ha":0,"x_min":-47,"x_max":49,"o":"m 0 886 q 35 900 22 886 q 49 933 49 914 q 34 967 49 953 q 0 982 19 982 q -34 968 -21 982 q -47 933 -47 954 q -34 899 -47 913 q 0 886 -21 886 z "},"ீ":{"ha":0,"x_min":-515,"x_max":54,"o":"m -228 1219 q -78 1184 -143 1219 q 20 1090 -14 1149 q 54 961 54 1031 q 17 858 54 899 q -78 817 -21 817 q -178 853 -137 817 q -218 946 -218 890 q -180 1037 -218 1001 q -82 1072 -142 1072 q -29 1063 -53 1072 q -106 1134 -56 1108 q -228 1160 -156 1160 q -390 1097 -332 1160 q -449 933 -449 1035 q -424 820 -449 871 q -358 741 -400 769 q -262 713 -315 713 l -262 664 q -392 699 -335 664 q -483 795 -450 733 q -515 933 -515 857 q -481 1081 -515 1017 q -381 1183 -446 1146 q -228 1219 -317 1219 m -78 868 q -23 890 -44 868 q -1 944 -1 911 q -23 998 -1 976 q -78 1019 -44 1019 q -134 998 -112 1019 q -156 944 -156 976 q -134 890 -156 911 q -78 868 -112 868 z "}}}
